<?xml version="1.0" encoding="UTF-8"?>
<svg id="Calque_2" data-name="Calque 2" xmlns="http://www.w3.org/2000/svg" xmlns:xlink="http://www.w3.org/1999/xlink" viewBox="0 0 514 171">
  <defs>
    <style>
      .cls-1 {
        fill: #15616d;
      }

      .cls-1, .cls-2, .cls-3, .cls-4, .cls-5, .cls-6, .cls-7, .cls-8, .cls-9, .cls-10, .cls-11 {
        stroke-width: 0px;
      }

      .cls-2 {
        fill: #b34603;
      }

      .cls-3 {
        fill: #cd5604;
      }

      .cls-4 {
        fill: #001524;
      }

      .cls-5 {
        fill: url(#Dégradé_sans_nom_4-2);
      }

      .cls-6 {
        fill: url(#Dégradé_sans_nom_4);
      }

      .cls-7 {
        fill: none;
      }

      .cls-8 {
        fill: url(#Dégradé_sans_nom_5);
      }

      .cls-9 {
        fill: #ffecd1;
      }

      .cls-10 {
        fill: #ff7d00;
      }

      .cls-11 {
        fill: #8b3202;
      }
    </style>
    <linearGradient id="Dégradé_sans_nom_4" data-name="Dégradé sans nom 4" x1="843.6" y1="267.2" x2="853.49" y2="-139.72" gradientTransform="translate(-233.81 246.65) scale(.67 -.67)" gradientUnits="userSpaceOnUse">
      <stop offset="0" stop-color="#052c41"/>
      <stop offset="1" stop-color="#04475f"/>
    </linearGradient>
    <linearGradient id="Dégradé_sans_nom_4-2" data-name="Dégradé sans nom 4" x1="946.56" y1="269.71" x2="956.45" y2="-137.22" xlink:href="#Dégradé_sans_nom_4"/>
    <linearGradient id="Dégradé_sans_nom_5" data-name="Dégradé sans nom 5" x1="914.15" y1="118.74" x2="983.68" y2="212.34" gradientTransform="translate(-233.81 246.65) scale(.67 -.67)" gradientUnits="userSpaceOnUse">
      <stop offset="0" stop-color="#313034"/>
      <stop offset="1" stop-color="#005272"/>
    </linearGradient>
  </defs>
  <g id="Calque_1-2" data-name="Calque 1">
    <g>
      <rect class="cls-7" x="513.58" width=".42" height="171"/>
      <rect class="cls-7" width="1.58" height="171"/>
      <path class="cls-4" d="m1.58,0v171h27.03c1.81-4.67,3.76-9.27,6.04-13.75,1.13-4.44,3.06-8.7,4.85-12.9l-13.58,5.2c-.46.2-.26.14-.77.19l2.23-7.7c1.03-4.07-.2-7.05-2.23-10.48,3.2-.33,6.4-1.37,9.55-2.05,4.78-1.05,9.34-1.48,14.23-1.55,2.85-3.12,5.01-7.31,7.53-10.75,4.23-5.78,9.03-11.35,13.83-16.68,14.6-16.23,30.73-31.18,48.74-43.55,15.84-10.88,32.78-19.56,50.53-26.87,10.28-4.23,20.63-8.15,31.36-11.1,30.68-8.43,62.8-10.01,94.07-4.13,11.64,2.19,23.07,5.48,34.29,9.24,15.27,5.12,30.12,11.29,44.13,19.26,4.29,1.77,8.4,4.3,12.36,6.71,14.18,8.6,27.21,19.23,39.02,30.86l5.65,6.04c5.14,5.33,10.47,10.7,14.76,16.76,1.29,1.82,2.27,3.7,3.38,5.61,1.47,1.37,2.97,3.5,4.12,5.17l7.52,10.18,11.01,18.02c3.19,5.51,6.49,11.06,9.24,16.8,1.79,3.75,3.33,7.61,4.83,11.48h28.28V0H1.58Zm31.88,37.39l-.07-.1-.13-.28c-1.16-2.39-3.55-2.65-5.88-3.45,2.42-.85,4.57-1.34,5.92-3.75l.11-.2.54-.05c1.25,2.6,2.83,3.11,5.19,4.46l-3.53.9c-1.03.37-1.55,1.32-2.02,2.24l-.11.22Zm13.19,47.82c-1.34,1.33-2.24,3.05-3.13,4.69-.34.48-.12.28-.69.56-.94-.98-1.63-2.43-2.41-3.55-1.83-2.62-4.03-4.42-6.55-6.35l2.09-.34c3.21-.62,4.72-1.95,6.48-4.6.94.94,1.5,2.26,2.52,3.22,2.06,1.95,5.42,1.96,8.06,1.89-2.04,1.4-4.62,2.73-6.37,4.46Zm20.65-25.48c-1.07-1.39-2.13-2.98-3.39-4.21-1.74-1.71-3.89-2.74-6.08-3.77l.29-.06c2.04-.44,5.02-1.18,6.56-2.64.92-.86,1.62-2.23,2.3-3.29,1.33,1.21,2.3,2.74,3.61,3.95,1.37,1.26,3.25,1.76,4.99,2.22-3.49,2.11-5.67,4.74-8.29,7.79Zm22.67-32.43l-.23.32-.28-.03c-1.63-1.61-3.09-2.1-5.23-2.76,2.7-.96,3.68-1.61,5.21-3.96l.38-.08c.61.55.74,1.29,1.01,2.06l4.01,1.87c-2.25.56-3.45.64-4.87,2.58Zm362.73,40.23c-1.28-1.9-2.67-4.07-4.38-5.62-1.39-1.26-3.17-2.28-4.74-3.32l1.3-.17c1.26-.18,2.7-.31,3.86-.86,1.92-.92,3.26-3.07,4.51-4.73,1.11,1.37,2.07,3.5,3.37,4.62,1.2,1.03,3.34,1.41,4.84,1.75-3.99,2.27-5.96,4.88-8.26,8.77l-.5-.43Zm14.64,29.06c-.32-.3-.15-1.67-.14-2.15-3.14-3.55-6.84-6.63-10.69-9.39,2.39-.77,5.91-.45,8.45-.58.7-.04,2.14-.07,2.7-.48,1.64-1.2,2.59-3.22,4.43-4.36.39-.11.83-.14,1.23-.2,1.51.32,2.73,2.29,3.6,3.45.46.6,1.88,2.59,2.53,2.78.61.17,1.68.08,2.34.11,1.75.09,3.49.19,5.23.43-2.59,2.53-4.99,5.52-7.78,7.8l-.36.29c.22,1.58.46,3.63.18,5.21-.11.64-.22.66-.73.99-1.89-.24-3.69-1.13-5.44-1.85-1.35-.55-4.54-1.12-5.55-2.04Zm32.57,58.31c-2.31-.21-4.43-.47-6.69-.99-2.08-.77-4.17-1.68-6.02-2.91-2.17-1.44-4.08-3.37-6.06-5.07-2.07-1.77-4.26-3.36-6.54-4.86,1.33-.95,2.65-1.99,3.72-3.22,1.3-1.51,2.43-3.37,4.09-4.53,1.24-.86,2.5-1.25,3.95-1.56,1.35-.1,2.76-.15,4.09.16,4.08.96,7.25,4.27,8.3,8.3.68,2.62.77,5.38,1.42,8.02.61,2.48,1.61,4.66,2.93,6.83-1,.14-2.17-.09-3.18-.18Z"/>
      <path class="cls-10" d="m89.82,20.78l-.38.08c-1.52,2.35-2.51,3-5.21,3.96,2.14.66,3.59,1.15,5.23,2.76l.28.03.23-.32c1.42-1.94,2.62-2.02,4.87-2.58l-4.01-1.87c-.27-.77-.4-1.51-1.01-2.06Z"/>
      <path class="cls-1" d="m35.58,34.93l3.53-.9c-2.35-1.35-3.93-1.86-5.19-4.46l-.54.05-.11.2c-1.35,2.41-3.5,2.89-5.92,3.75,2.33.8,4.72,1.05,5.88,3.45l.13.28.07.1.11-.22c.47-.92.99-1.88,2.02-2.24Z"/>
      <path class="cls-10" d="m66.99,45.76c-.68,1.06-1.38,2.43-2.3,3.29-1.54,1.45-4.52,2.2-6.56,2.64l-.29.06c2.19,1.02,4.34,2.05,6.08,3.77,1.25,1.23,2.31,2.81,3.39,4.21,2.62-3.05,4.8-5.68,8.29-7.79-1.74-.46-3.63-.96-4.99-2.22-1.31-1.21-2.28-2.74-3.61-3.95Z"/>
      <path class="cls-9" d="m461.46,59.2c-1.51-.35-3.64-.72-4.84-1.75-1.3-1.12-2.26-3.25-3.37-4.62-1.25,1.67-2.59,3.81-4.51,4.73-1.16.55-2.6.68-3.86.86l-1.3.17c1.57,1.04,3.34,2.06,4.74,3.32,1.71,1.55,3.1,3.72,4.38,5.62l.5.43c2.3-3.88,4.27-6.5,8.26-8.77Z"/>
      <path class="cls-10" d="m44.96,78.85c-1.02-.96-1.58-2.29-2.52-3.22-1.76,2.65-3.27,3.97-6.48,4.6l-2.09.34c2.52,1.93,4.72,3.72,6.55,6.35.78,1.12,1.47,2.57,2.41,3.55.57-.28.35-.08.69-.56.9-1.64,1.79-3.36,3.13-4.69,1.74-1.73,4.33-3.07,6.37-4.46-2.64.07-6,.05-8.06-1.89Z"/>
      <path class="cls-3" d="m34.7,129.49c-3.15.69-6.35,1.73-9.55,2.05,2.03,3.43,3.26,6.42,2.23,10.48l-2.23,7.7c.5-.05.31,0,.77-.19l13.58-5.2,9.43-16.4c-4.88.08-9.45.51-14.23,1.55Z"/>
      <path class="cls-1" d="m479.07,99.49c.28-1.57.04-3.63-.18-5.21l.36-.29c2.79-2.27,5.19-5.26,7.78-7.8-1.74-.24-3.48-.34-5.23-.43-.65-.03-1.73.06-2.34-.11-.65-.18-2.07-2.18-2.53-2.78-.88-1.16-2.09-3.13-3.6-3.45-.4.06-.84.09-1.23.2-1.85,1.14-2.79,3.16-4.43,4.36-.56.41-2,.45-2.7.48-2.54.13-6.06-.18-8.45.58,3.84,2.77,7.54,5.84,10.69,9.39-.01.48-.19,1.86.14,2.15,1.01.92,4.2,1.49,5.55,2.04,1.75.72,3.55,1.61,5.44,1.85.51-.33.62-.35.73-.99Z"/>
      <path class="cls-1" d="m500.17,148.25c-.65-2.64-.74-5.41-1.42-8.02-1.05-4.03-4.22-7.34-8.3-8.3-1.32-.31-2.74-.26-4.09-.16-1.45.32-2.71.7-3.95,1.56-1.66,1.15-2.79,3.02-4.09,4.53-1.07,1.24-2.39,2.28-3.72,3.22,2.27,1.5,4.47,3.09,6.54,4.86,1.98,1.7,3.89,3.62,6.06,5.07,1.85,1.23,3.94,2.14,6.02,2.91,2.26.53,4.38.78,6.69.99,1.01.09,2.18.31,3.18.18-1.32-2.17-2.32-4.35-2.93-6.83Z"/>
      <path class="cls-9" d="m185.19,170.79c-13.93-15.06-19.48-35.8-18.66-55.97-7.69.26-16.46,2.33-22.41,7.49-2.27,1.97-4.06,4.45-6.45,6.29l-.28.21c4.63,1.88,8.69,3.52,12.61,6.74-1.87-.53-3.9-1.37-5.82-1.63-3.25-.44-6.62.23-9.83.73-1.94.3-3.88.49-5.77,1l1.94,3.29c-1.85-.53-3.76-.43-5.66-.41l-7.27-.06,2.64-2.75c-2.58-1.36-5.41-2.23-8.03-3.52-5.42-2.67-10.26-6.17-16.25-7.45,1.75-1.23,3.71-2.35,5.85-2.74,5.73-1.04,11.07,2.44,16.16,4.55.57.23,2.12,1.07,2.61,1.06.49,0,1.6-.58,2.11-.74l7-2.15c-1.43-.89-5.19-2.72-5.97-4.17-.33-.61-.45-1.68-.59-2.36-.6-2.98-.57-5.66.56-8.5,2.28-5.77,7.81-11.11,13.43-13.59.89,1.41,1.51,3.04,2.27,4.53l2.7.8c-.87,3.47-.61,7.38-1.9,10.69-.5,1.29-1.45,2.52-2.22,3.66,8.52-3.59,18.98-3.65,28.06-2.45.92-5.84,2.36-11.94,4.55-17.44,3.89-9.8,10.42-19.1,17.99-26.39,19.24-18.56,46.86-25.59,72.88-20.68,4.9.92,9.74,2.47,14.43,4.12,4.73,1.66,9.32,3.48,13.74,5.87,4.27,2.3,8.45,5.08,12.39,7.91l3.79,2.72c.23.16.82.69,1.07.76.22.06.46,0,.69.01.84-1.95,1.65-4.01,2.78-5.82,10.73-17.15,31.8-22.81,50.89-21.86,2.61.13,5.19.5,7.77.84,1,.13,2.51.53,3.48.41.26-.03.69-.29.95-.4-14.02-7.97-28.86-14.14-44.13-19.26-11.22-3.76-22.64-7.05-34.29-9.24-31.27-5.88-63.4-4.3-94.07,4.13-10.73,2.95-21.08,6.87-31.36,11.1-17.75,7.31-34.68,15.99-50.53,26.87-18.02,12.37-34.15,27.31-48.74,43.55-4.79,5.33-9.6,10.9-13.83,16.68-2.52,3.44-4.68,7.64-7.53,10.75l-9.43,16.4c-1.79,4.2-3.72,8.47-4.85,12.9l.64.31c1.37-2.29,2.66-4.63,4.28-6.77,3.21-4.26,7.43-8.03,11.83-11.02,11.33-7.72,26.94-10.81,40.44-8.21,7.97,1.53,15.8,5.54,20.39,12.46,1.23,1.86,2.36,3.68,1.9,5.97.39,4.54.88,8.99.5,13.55-.21,2.48-.77,4.98-1.15,7.47h38.83c9.64-2.1,19.97-1.56,29.7,0h3.4s-.11-.11-.21-.21Zm100.87-137.26l.03-3.12c1,.46,3.92,2.23,4.81,1.92l.93-.48c.53.5.34.69.66,1.26.28.52,2.2.78,2.74.77l.86-.09c.03.43.08.22-.17.58-.83,1.2-1.27,2.4-1.46,3.84-.4.11-1.51.29-1.71.62l-.44.9c-.16.08-.3.25-.47.23-.06,0-1.14-.98-1.25-1.06-.49-.36-1.21-.44-1.8-.54l-.33-.06c-.79-.2-1.37-.43-2.07-.85l-2.96-1.76c1.29-.62,2.01-.88,2.64-2.18Zm-29.48-5.91l.61-.13.91,1.13-.66,1.13-.5.05-1.52.08-.1-1.12,1.26-1.12Zm-96.31,19.12c-.95-1.7-.7-3.23-.64-5.12l4.26,3.27h.22c1.45,0,2.38-.87,3.52-1.67l-1.83,3.88c.48.27.71.58,1.05,1.02-.37,1-1.14.49-1.86,1-.33.23-.78,1.05-1.05,1.41-.17.06-.34.24-.5.17-.43-.21-.82-1.33-1.25-1.55-.71-.35-2.33-.14-3.25-.45-.11-.94.75-1.22,1.33-1.95Z"/>
      <polygon class="cls-10" points="256.96 29.79 257.46 29.74 258.11 28.62 257.2 27.48 256.59 27.62 255.33 28.74 255.44 29.87 256.96 29.79"/>
      <path class="cls-10" d="m163.46,50.69c.16.08.33-.11.5-.17.26-.35.72-1.17,1.05-1.41.72-.51,1.5,0,1.86-1-.33-.44-.56-.75-1.05-1.02l1.83-3.88c-1.14.8-2.07,1.67-3.52,1.68h-.22s-4.26-3.27-4.26-3.27c-.06,1.89-.32,3.42.64,5.12-.57.73-1.43,1.01-1.33,1.95.92.31,2.54.1,3.25.45.43.21.82,1.34,1.25,1.55Z"/>
      <path class="cls-10" d="m288.45,38.32c-.39-1-.63-1.22-.3-2.27.91-.86,1.79-1.41,2.88-2.01.42,1.01.88,1.98,1.06,3.07l-.7,1.12c.42.35.16.23.59.31.45.09.29.05.77.29.2-.33,1.31-.51,1.71-.62.18-1.44.62-2.64,1.46-3.84.25-.36.2-.15.17-.58l-.86.09c-.54.01-2.45-.26-2.74-.77-.31-.57-.12-.77-.66-1.26l-.93.48c-.89.31-3.81-1.45-4.81-1.92l-.03,3.12c-.64,1.29-1.35,1.56-2.64,2.18l2.96,1.76c.7.41,1.28.65,2.07.85Z"/>
      <path class="cls-11" d="m291.39,38.24l.7-1.12c-.18-1.09-.64-2.06-1.06-3.07-1.09.6-1.97,1.14-2.88,2.01-.33,1.04-.08,1.27.3,2.27l.33.06c.59.11,1.31.18,1.8.54.11.08,1.2,1.06,1.25,1.06.17.01.31-.16.47-.23l.44-.9c-.48-.24-.33-.2-.77-.29-.43-.08-.17.04-.59-.31Z"/>
      <path class="cls-4" d="m137.94,115.77c.77-1.15,1.72-2.37,2.22-3.66,1.29-3.31,1.03-7.22,1.9-10.69l-2.7-.8c-.76-1.49-1.38-3.12-2.27-4.53-5.62,2.48-11.15,7.82-13.43,13.59-1.13,2.85-1.16,5.53-.56,8.5.14.69.26,1.75.59,2.36.78,1.46,4.54,3.29,5.97,4.17l-7,2.15c-.51.16-1.62.73-2.11.74-.49,0-2.04-.83-2.61-1.06-5.09-2.11-10.43-5.59-16.16-4.55-2.14.39-4.1,1.51-5.85,2.74,5.99,1.28,10.83,4.78,16.25,7.45,2.62,1.29,5.45,2.17,8.03,3.52l-2.64,2.75,7.27.06c1.9-.02,3.81-.12,5.66.41l-1.94-3.29c1.89-.51,3.84-.7,5.77-1,3.21-.5,6.58-1.17,9.83-.73,1.92.26,3.95,1.1,5.82,1.63-3.92-3.21-7.98-4.86-12.61-6.74l.28-.21c2.39-1.84,4.18-4.32,6.45-6.29,5.95-5.15,14.72-7.23,22.41-7.49.68-.02,1.29,0,1.92-.3l-.11-.32-2.35-.87c-9.08-1.2-19.54-1.15-28.06,2.45Z"/>
      <path class="cls-10" d="m231.66,165.99c-.96-1.47.24-5.94.55-7.69l-3.73-1.77c-1.12-.54-3.33-1.73-3.4-3.16-.1-1.96,3.21-8.21,4.11-10.33,1.58-3.72,3.32-7.59,4.2-11.54.09-.41.42-1.49.36-1.84-.07-.36-.55-1.06-.73-1.4-.71-1.39-1.51-2.81-2.01-4.29-2.56-7.61,1.09-16.19,4.4-23.04,1.68-5,6.78-9.14,11.07-11.86,3.36-2.13,7.18-3.69,10.89-5.09,6.3-2.38,12.9-4.19,19.65-4.62,6.52-.42,13.16.45,19.52,1.88,1.58.18,3.09.6,4.62,1.01v-.9c-.04-1.35.09-2.23,1.02-3.23,1.15-.4,2.85.07,4.05.25l-.21-4.53c.91-1.77,2.03-2.77,3.58-3.95,3.33-1.08,6.96-1.68,10.21.07,1.82.98,3.23,2.96,3.82,4.92.45,1.5.13,3.68,1.48,4.56l.38.22c1.71.19,4.93,3.64,6.03,4.97l1.12,1.61.24.36c.97,1.49,1.76,3.1,2.55,4.7.35.71.7,1.86,1.4,2.25l.29.17.24.13,5.67,3.71.22-.29c.3-.43.34-.86.43-1.36.29-1.61,1.11-2.54,2.44-3.47,7.79-5.46,20.76-1.14,29.34.25l16.95,2.71c9.36,1.9,19.77,4.57,28.23,9.04.68.36,1.95.86,2.42,1.43l.25.13c6.48,3.41,11.35,9.32,17.68,12.8,2.89-1.56,5.98-3.76,7-7.03l.59-2.4c-1.11-1.92-2.09-3.8-3.38-5.61-4.29-6.06-9.62-11.43-14.76-16.76l-5.65-6.04c-11.81-11.63-24.84-22.26-39.02-30.86-3.97-2.41-8.07-4.94-12.36-6.71-.26.11-.69.37-.95.4-.96.12-2.47-.27-3.48-.41-2.58-.35-5.17-.71-7.77-.84-19.09-.95-40.16,4.7-50.89,21.86-1.13,1.8-1.94,3.87-2.78,5.82-.23,0-.47.04-.69-.01-.25-.06-.85-.6-1.07-.76l-3.79-2.72c-3.94-2.83-8.12-5.61-12.39-7.91-4.42-2.38-9.01-4.2-13.74-5.87-4.7-1.65-9.54-3.19-14.43-4.12-26.02-4.91-53.64,2.12-72.88,20.68-7.56,7.3-14.09,16.6-17.99,26.39-2.19,5.5-3.63,11.6-4.55,17.44l2.35.87.11.32c-.63.3-1.24.28-1.92.3-.82,20.16,4.74,40.91,18.66,55.97.09.1.16.16.21.21h49.28c.22-.96.57-1.88.9-2.81-1.23-.49-3.16-1.05-3.91-2.21Zm141.43-84.74l1.86-.63-.12-.35c-.62-.05-1.25-.15-1.85,0-.59.15-1.16.12-1.77.12.58-.6,3.23-.59,4.15-.66,4.44.3,9.33,3.61,12.75,6.25l.26.64c-.2.32-.4.56-.68.82.74.34,10.06-2.65,11.74-3.06,2.42-.6,4.82-.97,7.31-1.09,2.34-.11,4.66.22,6.99.42,4.67.39,11.43.62,15.04,3.92l-.31.37c-4.23-.05-8.43-.76-12.66-.63-3.65.12-7.33,1.4-10.95,1.97-2.61.41-5.32.2-7.93-.13-1.71-.21-4.7-.73-6.07.56l-.2.24.18.32,1.88.27.13.41c-.63.4-2.16.24-2.88.08l-.25-.07-.38.15c-.53.2-.88.11-1.42,0-3.78-2.99-8.47-5.49-11.86-8.9-2.1.23-4.04,1.87-6.23,1.81l-.18-.44c.95-1.16,2.04-1.89,3.46-2.37Z"/>
      <path class="cls-10" d="m283.26,169.37c.72-1.6.36-3.27.16-4.96.77-.38,1.72-.43,2.57-.57,1.55-.92,2.81-2.1,3.83-3.59,2.18-3.2,2.77-7.76,2.02-11.5-.52-2.57-1.86-4.99-4.17-6.36-1.26-.75-3.15-1.21-4.57-.78-2.27.68-3.3,2.53-4.26,4.51-.24-2.98-.86-5.47-1.87-8.29-1.16-2.28-2.53-4.25-4.53-5.87-2.5-2.02-5.62-3.3-8.24-5.19-.91-.66-1.93-1.4-2.63-2.28-.91-1.14-1.53-2.51-2.4-3.69-1.31-1.78-2.78-3.45-3.97-5.31-2.93-4.58-4.14-9.3-4.97-14.59l-.13.28c-1.95,4.35-2.53,11.48-.82,15.9.91,2.34,2.15,3.25,4.35,4.24l.47.09c1.09.33,3.81.76,4.56,1.4l-12.11,4.54c.59.69,1.1,1.58,1.98,1.81,4.87.36,8.6,1.12,12.93,3.44-1.77,1.47-3.62,2.68-5.77,3.53l1.96-2.69c-1.74.73-3.29,1.99-5,2.64-1.63.62-3.72.29-5.39.05l-.79.09c-.56,2.94-.06,6.56.05,9.57l-.09,15.34c-.05,2.33.15,5.1-.35,7.37l-.17,2.5h36.5c.25-.4.48-.8.68-1.23l.18-.4Z"/>
      <path class="cls-4" d="m246.46,135.62c.48.43.22.26.78.51,1.67.24,3.76.57,5.39-.05,1.71-.65,3.26-1.9,5-2.64l-1.96,2.69c2.15-.85,4-2.06,5.77-3.53-4.33-2.33-8.06-3.08-12.93-3.44-1.6,1.46-1.93,3.3-2.02,5.38l-.04,1.09Z"/>
      <path class="cls-1" d="m376.05,82.25c3.38,3.41,8.07,5.91,11.86,8.9.54.12.88.2,1.42,0l.38-.15.25.07c.72.16,2.25.32,2.88-.08l-.13-.41-1.88-.27-.18-.32.2-.24c1.36-1.29,4.36-.77,6.07-.56,2.61.32,5.32.53,7.93.13,3.62-.56,7.3-1.85,10.95-1.97,4.23-.13,8.44.58,12.66.63l.31-.37c-3.62-3.3-10.37-3.52-15.04-3.92-2.32-.2-4.65-.53-6.99-.42-2.49.12-4.89.49-7.31,1.09-1.68.41-11,3.4-11.74,3.06.28-.26.48-.5.68-.82l-.26-.64c-3.42-2.64-8.31-5.95-12.75-6.25-.93.07-3.58.06-4.15.66.61,0,1.18.03,1.77-.12.6-.15,1.24-.05,1.85,0l.12.35-1.86.63c-1.42.48-2.51,1.21-3.46,2.37l.18.44c2.19.06,4.13-1.58,6.23-1.81Z"/>
      <path class="cls-4" d="m245.26,168.6c-2.71.87-5.94,1.33-8.73.66,2.42-1.12,5.02-1.72,7.56-2.53l.79-.62-.07-.26c-.88-2.09-8.35-5.23-10.62-6.55,1.18-.47,2.28-.89,3.3-1.66.43-.8.47-1.26.43-2.16-.98-1.74-5.23-1.6-7.18-2.15,2.1-5.32,5.44-9.87,8.03-14.93,1.58-3.09,2.57-7.27,1.42-10.66l-.09-.26.18-.17,1.19.66c1.4.58,3.4,0,4.75-.51l.33-.13,12.11-4.54c-.75-.64-3.47-1.08-4.56-1.4l-.46.59s-.48.39-.56.42c-1.65.52-3.87.36-5.61.59-2.03.26-4.2.92-6.25.94-1.05.01-1.68-.41-2.34-1.2-.99-1.17-1.68-2.74-2.26-4.15-2.49-6.09-1.87-11.32-1.2-17.67-3.31,6.84-6.96,15.42-4.4,23.04.5,1.48,1.3,2.91,2.01,4.29.18.35.66,1.05.73,1.4.07.35-.26,1.43-.36,1.84-.88,3.95-2.62,7.82-4.2,11.54-.9,2.13-4.21,8.37-4.11,10.33.07,1.43,2.28,2.63,3.4,3.16l3.73,1.77c-.31,1.75-1.51,6.21-.55,7.69.75,1.15,2.69,1.72,3.91,2.21-.32.93-.67,1.85-.9,2.81h11.23l.17-2.5-.81.1Z"/>
      <path class="cls-2" d="m244.09,166.73c-2.54.81-5.14,1.41-7.56,2.53,2.79.67,6.03.2,8.73-.66,0-.21.01-.54-.04-.73-.18-.65-.59-.81-1.13-1.13Z"/>
      <path class="cls-11" d="m241.46,127.98l-1.19-.66-.18.17.09.26c1.15,3.39.17,7.57-1.42,10.66-2.59,5.06-5.93,9.61-8.03,14.93,1.95.55,6.19.41,7.18,2.15.04.9,0,1.36-.43,2.16-1.03.77-2.12,1.19-3.3,1.66,2.27,1.31,9.73,4.46,10.62,6.55l.07.26-.79.62c.54.33.94.48,1.13,1.13.05.2.04.53.04.73l.81-.1c.5-2.27.3-5.04.35-7.37l.09-15.34c-.11-3.01-.61-6.63-.05-9.57l.79-.09c-.56-.25-.3-.08-.78-.51l.04-1.09c.09-2.08.42-3.92,2.02-5.38-.88-.23-1.39-1.12-1.98-1.81l-.33.13c-1.36.52-3.35,1.09-4.75.51Z"/>
      <path class="cls-4" d="m263.83,94.03c-.84-1.28-1.5-2.6-2.08-4.02-.21-.51-.54-1.8-.96-2.1-1.93,1.25-3.89,2.4-5.94,3.44-4.78,2.41-11.98,5.42-13.21,11.27-.94,4.43.62,9.57,3.09,13.26,1.56,2.32,5.11,5.04,7.97,5.43.3.04.62.02.93,0-2.21-.99-3.45-1.9-4.35-4.24-1.71-4.42-1.13-11.55.82-15.9l.13-.28c.83,5.3,2.03,10.01,4.97,14.59,1.19,1.86,2.66,3.53,3.97,5.31.87,1.18,1.49,2.55,2.4,3.69.7.88,1.72,1.63,2.63,2.28,2.62,1.89,5.75,3.17,8.24,5.19,2.01,1.62,3.37,3.59,4.53,5.87,1.74-2.29-.33-14.81-.37-17.99-.04-2.93.41-5.79.62-8.7.05-.66.36-2.65.15-3.2-.09-.23-.7-.72-.89-.93l-2.2-2.53c-4.08-2.82-7.7-6.29-10.44-10.45Z"/>
      <path class="cls-1" d="m277.02,79.36c-6.75.43-13.35,2.24-19.65,4.62-3.71,1.4-7.53,2.96-10.89,5.09-4.3,2.72-9.39,6.86-11.07,11.86-.67,6.35-1.29,11.58,1.2,17.67.58,1.41,1.26,2.98,2.26,4.15.66.78,1.28,1.21,2.34,1.2,2.04-.03,4.22-.68,6.25-.94,1.74-.22,3.96-.06,5.61-.59.08-.02.54-.4.56-.42l.46-.59-.47-.09c-.3.03-.62.05-.93,0-2.85-.39-6.41-3.11-7.97-5.43-2.47-3.68-4.03-8.82-3.09-13.26,1.24-5.85,8.44-8.85,13.21-11.27,2.05-1.04,4.01-2.19,5.94-3.44.43.3.75,1.59.96,2.1.58,1.41,1.24,2.74,2.08,4.02,2.74,4.16,6.35,7.62,10.44,10.45.68,0,1.3,0,1.96.18l.48.14c.17-.06.41-.03.52-.18.29-.37.57-1.55.76-2.04.65-1.7,1.36-3.37,2.46-4.84,1.24-1.67,2.88-2.91,4.6-4.02.78-.5,2.06-1.13,2.68-1.79.31-.33.65-1.53.84-2,1.38-3.21,3.57-6.02,6.7-7.72.38-.21.66-.36.97-.67l.3-.31c-6.36-1.44-12.99-2.3-19.52-1.88Z"/>
      <path class="cls-1" d="m471.24,142.71l-11.01-18.02-7.52-10.18c-1.15-1.67-2.65-3.79-4.12-5.17l-.59,2.4c-1.02,3.27-4.11,5.47-7,7.03-6.33-3.49-11.21-9.4-17.68-12.8l-.25-.13.19.38c.44.81,1.62,1.29,2.37,1.79l4.22,2.98c3.45,2.54,6.54,5.51,10.09,7.9l-.23.34c.24.72.59,1.17,1.16,1.66,2.69,2.32,4.37,5.4,6.09,8.46,1.73,3.1,3.53,6.33,4.85,9.63,4.04,10.13,5.29,21.16,7.01,32h26.5c-1.49-3.88-3.04-7.74-4.83-11.48-2.75-5.74-6.05-11.29-9.24-16.8Z"/>
      <path class="cls-1" d="m35.27,158.01l.02-.46-.64-.31c-2.28,4.48-4.23,9.09-6.04,13.75h3.62c.26-2.42.69-4.84,1.34-7.13.52-1.82,1.56-3.98,1.7-5.86Z"/>
      <path class="cls-4" d="m101.58,161.23c-1.07,2.12-2.03,4.41-3.34,6.39-.75,1.14-1.78,2.11-2.59,3.22,4.67-3.28,10.29-6.94,13.63-11.59,2.03-2.82,3.42-6.11,4.83-9.27.47-2.29-.66-4.11-1.9-5.97-4.58-6.92-12.42-10.93-20.39-12.46-13.5-2.6-29.11.49-40.44,8.21-4.4,3-8.62,6.76-11.83,11.02-1.61,2.14-2.9,4.48-4.28,6.77l-.02.46c-.14,1.87-1.18,4.03-1.7,5.86-.66,2.3-1.08,4.71-1.34,7.13h58.35c3.41-3.57,7.34-6.47,11.01-9.77Z"/>
      <path class="cls-10" d="m114.12,149.98c-1.42,3.16-2.81,6.45-4.83,9.27-3.34,4.65-8.95,8.31-13.63,11.59.81-1.11,1.84-2.08,2.59-3.22,1.31-1.98,2.27-4.28,3.34-6.39-3.66,3.29-7.59,6.2-11.01,9.77h6.19c1.12-.72,2.22-1.24,3.6-1.69,1.19-.14,2.5-.27,3.67.06,1.16.33,2.33.85,3.27,1.63h6.16c.38-2.49.95-4.99,1.15-7.47.38-4.56-.1-9.01-.5-13.55Z"/>
      <path class="cls-4" d="m100.37,169.31c-1.38.45-2.48.97-3.6,1.69h10.53c-.94-.78-2.11-1.3-3.27-1.63-1.17-.33-2.47-.2-3.67-.06Z"/>
      <path class="cls-4" d="m152.29,171h29.7c-9.74-1.56-20.06-2.1-29.7,0Z"/>
      <path class="cls-4" d="m386.05,162.28c.12-1.31-.51-2.65-.92-3.87-.88-2.7-2.34-6.59-2-9.44-.29-2.44-.02-4.87.33-7.29-.33-.3-.62-.56-1-.81-1.23-.18-2.43.9-3.51,1.43-2.2,1.07-4.66,2.12-6.97,2.89-7.32,2.46-17.88,5.08-25.15,1.32-3.76-1.94-5.66-6.55-6.95-10.39l7.95-2.4c.76.22.93.72,1.38,1.36l.5-.09c.33-1.48-.86-2.79-.27-4.23.92-2.24,1.91-3.99,3.64-5.72,1.47-1.47,3.12-2.68,4.91-3.72.36-.21.99-.69,1.38-.79.66-.16,1.88-.02,2.61-.05l10.8-.03-.19-.33-2.09.03c-.43.05-.74.1-1.18.03-.72-.12-1.62.07-2.38.07l-4.97-.08h-1.75c.62-.74.95-.96.99-1.95.03-.79-.22-1.61-.79-2.17l-.2-.19c-.64-.6-1.25-1.12-2-1.58l-.2-.12.37-.21-.04-.33c-3.66.58-6.18-1.71-10.04.29l-.24.13-.26-6.9c-.03-1.2.1-2.67-.32-3.81l-.14-.35c-.73-2.04-3.65-3.05-4.29-5.45l-5.67-3.71c-.71.94.69,4.72.77,6.11.09,1.61-.24,3.21-.76,4.72-1.84,5.24-5.7,7.37-10.4,9.65-.52-4.63-1.8-9.35-4.62-13.16-1.07-1.45-2.5-2.73-3.8-3.99.25-1.85.37-3.7.44-5.56.03-.93-.05-2.08.12-2.97.14-.74,1.31-1.87,1.77-2.47,1.39-1.78,2.98-3.67,3.75-5.83.13-.37.53-.47.86-.67l-.38-.22c-1.35-.88-1.03-3.06-1.48-4.56-.59-1.95-2-3.94-3.82-4.92-3.25-1.75-6.88-1.15-10.21-.07-1.55,1.18-2.67,2.18-3.58,3.95l.21,4.53c-1.2-.17-2.9-.65-4.05-.25-.93,1.01-1.06,1.89-1.01,3.23v.9c-1.54-.41-3.05-.83-4.63-1.01l-.3.31c-.31.31-.59.46-.97.67-3.12,1.69-5.31,4.51-6.7,7.72-.2.46-.53,1.66-.84,2-.62.66-1.9,1.28-2.68,1.79-1.73,1.12-3.36,2.36-4.6,4.02-1.09,1.47-1.8,3.14-2.46,4.84-.19.48-.46,1.67-.76,2.04-.11.14-.35.12-.52.18l-.48-.14c-.66-.18-1.28-.18-1.96-.18l2.2,2.53c.19.21.8.7.89.93.21.55-.11,2.54-.15,3.2-.2,2.91-.66,5.77-.62,8.7.04,3.17,2.11,15.69.37,17.99,1.01,2.82,1.63,5.31,1.87,8.29.96-1.98,1.99-3.83,4.26-4.51,1.42-.43,3.31.03,4.57.78,2.31,1.37,3.65,3.78,4.17,6.36.75,3.74.16,8.31-2.02,11.5-1.02,1.49-2.27,2.67-3.83,3.59.8,1.04,2.36,1.31,3.61,1.48l4.4.25,3.52,5.43h81.73c.81-1.36,2.08-2.69,2.98-3.88,1.13-1.5,2.28-3.81,3.81-4.83Zm-52.18-11.27c-5.44,8.46-17.44,11.82-26.71,13.9-3.43.63-6.67.81-10.14.74l1.82-.71c3.28-1.25,6.33-3.71,8.91-6.07,8.34-7.63,15.42-17.32,18.05-28.48.71-2.99.93-5.9,1.06-8.97l1.98,1.07c3.85,2.39,7.07,8.61,8.08,12.95,1.23,5.33-.12,11-3.05,15.56Z"/>
      <path class="cls-6" d="m386.05,162.28c.12-1.31-.51-2.65-.92-3.87-.88-2.7-2.34-6.59-2-9.44-.29-2.44-.02-4.87.33-7.29-.33-.3-.62-.56-1-.81-1.23-.18-2.43.9-3.51,1.43-2.2,1.07-4.66,2.12-6.97,2.89-7.32,2.46-17.88,5.08-25.15,1.32-3.76-1.94-5.66-6.55-6.95-10.39l7.95-2.4c.76.22.93.72,1.38,1.36l.5-.09c.33-1.48-.86-2.79-.27-4.23.92-2.24,1.91-3.99,3.64-5.72,1.47-1.47,3.12-2.68,4.91-3.72.36-.21.99-.69,1.38-.79.66-.16,1.88-.02,2.61-.05l10.8-.03-.19-.33-2.09.03c-.43.05-.74.1-1.18.03-.72-.12-1.62.07-2.38.07l-4.97-.08h-1.75c.62-.74.95-.96.99-1.95.03-.79-.22-1.61-.79-2.17l-.2-.19c-.64-.6-1.25-1.12-2-1.58l-.2-.12.37-.21-.04-.33c-3.66.58-6.18-1.71-10.04.29l-.24.13-.26-6.9c-.03-1.2.1-2.67-.32-3.81l-.14-.35c-.73-2.04-3.65-3.05-4.29-5.45l-5.67-3.71c-.71.94.69,4.72.77,6.11.09,1.61-.24,3.21-.76,4.72-1.84,5.24-5.7,7.37-10.4,9.65-.52-4.63-1.8-9.35-4.62-13.16-1.07-1.45-2.5-2.73-3.8-3.99.25-1.85.37-3.7.44-5.56.03-.93-.05-2.08.12-2.97.14-.74,1.31-1.87,1.77-2.47,1.39-1.78,2.98-3.67,3.75-5.83.13-.37.53-.47.86-.67l-.38-.22c-1.35-.88-1.03-3.06-1.48-4.56-.59-1.95-2-3.94-3.82-4.92-3.25-1.75-6.88-1.15-10.21-.07-1.55,1.18-2.67,2.18-3.58,3.95l.21,4.53c-1.2-.17-2.9-.65-4.05-.25-.93,1.01-1.06,1.89-1.01,3.23v.9c-1.54-.41-3.05-.83-4.63-1.01l-.3.31c-.31.31-.59.46-.97.67-3.12,1.69-5.31,4.51-6.7,7.72-.2.46-.53,1.66-.84,2-.62.66-1.9,1.28-2.68,1.79-1.73,1.12-3.36,2.36-4.6,4.02-1.09,1.47-1.8,3.14-2.46,4.84-.19.48-.46,1.67-.76,2.04-.11.14-.35.12-.52.18l-.48-.14c-.66-.18-1.28-.18-1.96-.18l2.2,2.53c.19.21.8.7.89.93.21.55-.11,2.54-.15,3.2-.2,2.91-.66,5.77-.62,8.7.04,3.17,2.11,15.69.37,17.99,1.01,2.82,1.63,5.31,1.87,8.29.96-1.98,1.99-3.83,4.26-4.51,1.42-.43,3.31.03,4.57.78,2.31,1.37,3.65,3.78,4.17,6.36.75,3.74.16,8.31-2.02,11.5-1.02,1.49-2.27,2.67-3.83,3.59.8,1.04,2.36,1.31,3.61,1.48l4.4.25,3.52,5.43h81.73c.81-1.36,2.08-2.69,2.98-3.88,1.13-1.5,2.28-3.81,3.81-4.83Zm-52.18-11.27c-5.44,8.46-17.44,11.82-26.71,13.9-3.43.63-6.67.81-10.14.74l1.82-.71c3.28-1.25,6.33-3.71,8.91-6.07,8.34-7.63,15.42-17.32,18.05-28.48.71-2.99.93-5.9,1.06-8.97l1.98,1.07c3.85,2.39,7.07,8.61,8.08,12.95,1.23,5.33-.12,11-3.05,15.56Z"/>
      <path class="cls-4" d="m382.23,167.12c-.9,1.19-2.17,2.52-2.98,3.88h2.48c1.72-2.78,3.86-5.54,4.32-8.72-1.53,1.03-2.68,3.34-3.81,4.83Z"/>
      <path class="cls-2" d="m336.83,93.53c-.7-.4-1.06-1.55-1.4-2.25-.78-1.6-1.58-3.2-2.55-4.7l-.24-.36-1.12-1.61c-1.09-1.32-4.31-4.78-6.03-4.97-.33.2-.73.3-.86.67-.76,2.16-2.36,4.04-3.75,5.83-.47.6-1.64,1.74-1.77,2.47-.17.89-.08,2.05-.12,2.97-.07,1.86-.19,3.71-.44,5.56,1.29,1.26,2.72,2.53,3.8,3.99,2.82,3.81,4.1,8.53,4.62,13.16,4.69-2.28,8.56-4.41,10.4-9.65.53-1.51.86-3.11.76-4.72-.08-1.38-1.48-5.17-.77-6.11l-.24-.13-.29-.17Z"/>
      <path class="cls-4" d="m289.6,165.31c-1.24-.16-2.81-.44-3.61-1.48-.85.14-1.8.19-2.57.57.19,1.69.55,3.36-.16,4.96l-.18.4c-.2.43-.43.84-.68,1.23h15.12l-3.52-5.43-4.4-.25Z"/>
      <path class="cls-4" d="m328.83,122.49l-1.98-1.07c-.13,3.06-.35,5.97-1.06,8.97-2.63,11.15-9.71,20.85-18.05,28.48-2.58,2.36-5.63,4.81-8.91,6.07l-1.82.71c3.47.07,6.71-.11,10.14-.74,9.27-2.08,21.28-5.44,26.71-13.9,2.93-4.56,4.28-10.23,3.05-15.56-1.01-4.35-4.22-10.56-8.08-12.95Z"/>
      <path class="cls-4" d="m446.96,129.37c-1.71-3.07-3.4-6.15-6.09-8.46-.57-.49-.92-.95-1.16-1.66l.23-.34c-3.56-2.38-6.64-5.36-10.09-7.9l-4.22-2.98c-.75-.5-1.93-.98-2.37-1.79l-.19-.38c-.47-.57-1.74-1.08-2.42-1.43-8.47-4.47-18.87-7.13-28.23-9.04l-16.95-2.71c-8.58-1.38-21.55-5.71-29.34-.25-1.33.93-2.14,1.87-2.44,3.47-.09.5-.13.94-.43,1.36l-.22.29c.64,2.4,3.56,3.42,4.29,5.45l.14.35c.41,1.14.28,2.6.32,3.81l.26,6.9.24-.13c3.86-1.99,6.38.29,10.04-.29l.04.33-.37.21.2.12c.75.46,1.36.98,2,1.58l.2.19c.57.56.82,1.38.79,2.17-.04,1-.37,1.21-.99,1.96h1.75s4.97.07,4.97.07c.76,0,1.67-.19,2.38-.07.44.07.75.02,1.18-.03l2.09-.03.19.33-10.8.03c-.73.02-1.95-.12-2.61.05-.39.1-1.02.58-1.38.79-1.79,1.05-3.44,2.25-4.91,3.72-1.73,1.73-2.72,3.49-3.64,5.72-.59,1.44.59,2.74.27,4.23l-.5.09c-.45-.64-.61-1.14-1.38-1.36l-7.95,2.4c1.29,3.84,3.19,8.44,6.95,10.39,7.27,3.76,17.83,1.13,25.15-1.32,2.31-.78,4.77-1.82,6.97-2.89,1.07-.52,2.28-1.61,3.51-1.43.37.25.67.51,1,.81.77-3.12,1.82-5.75,3.7-8.38,4.19-5.86,13.49-11.29,20.59-12.43,8.11-2.9,17.02-3.72,25.02.03,5.57,2.6,9.98,6.6,12.07,12.45,1.55,4.33,1.84,9.33,1.96,13.9.03,1.06.21,2.51-.09,3.52-.06,2.32.3,5.92-.56,8.05-.75,4.02-1.41,8.08-1.48,12.19h14.14c-1.72-10.85-2.97-21.88-7.01-32-1.31-3.3-3.12-6.53-4.85-9.63Z"/>
      <path class="cls-5" d="m446.96,129.37c-1.71-3.07-3.4-6.15-6.09-8.46-.57-.49-.92-.95-1.16-1.66l.23-.34c-3.56-2.38-6.64-5.36-10.09-7.9l-4.22-2.98c-.75-.5-1.93-.98-2.37-1.79l-.19-.38c-.47-.57-1.74-1.08-2.42-1.43-8.47-4.47-18.87-7.13-28.23-9.04l-16.95-2.71c-8.58-1.38-21.55-5.71-29.34-.25-1.33.93-2.14,1.87-2.44,3.47-.09.5-.13.94-.43,1.36l-.22.29c.64,2.4,3.56,3.42,4.29,5.45l.14.35c.41,1.14.28,2.6.32,3.81l.26,6.9.24-.13c3.86-1.99,6.38.29,10.04-.29l.04.33-.37.21.2.12c.75.46,1.36.98,2,1.58l.2.19c.57.56.82,1.38.79,2.17-.04,1-.37,1.21-.99,1.96h1.75s4.97.07,4.97.07c.76,0,1.67-.19,2.38-.07.44.07.75.02,1.18-.03l2.09-.03.19.33-10.8.03c-.73.02-1.95-.12-2.61.05-.39.1-1.02.58-1.38.79-1.79,1.05-3.44,2.25-4.91,3.72-1.73,1.73-2.72,3.49-3.64,5.72-.59,1.44.59,2.74.27,4.23l-.5.09c-.45-.64-.61-1.14-1.38-1.36l-7.95,2.4c1.29,3.84,3.19,8.44,6.95,10.39,7.27,3.76,17.83,1.13,25.15-1.32,2.31-.78,4.77-1.82,6.97-2.89,1.07-.52,2.28-1.61,3.51-1.43.37.25.67.51,1,.81.77-3.12,1.82-5.75,3.7-8.38,4.19-5.86,13.49-11.29,20.59-12.43,8.11-2.9,17.02-3.72,25.02.03,5.57,2.6,9.98,6.6,12.07,12.45,1.55,4.33,1.84,9.33,1.96,13.9.03,1.06.21,2.51-.09,3.52-.06,2.32.3,5.92-.56,8.05-.75,4.02-1.41,8.08-1.48,12.19h14.14c-1.72-10.85-2.97-21.88-7.01-32-1.31-3.3-3.12-6.53-4.85-9.63Z"/>
      <path class="cls-8" d="m446.96,129.37c-1.71-3.07-3.4-6.15-6.09-8.46-.57-.49-.92-.95-1.16-1.66l.23-.34c-3.56-2.38-6.64-5.36-10.09-7.9l-4.22-2.98c-.75-.5-1.93-.98-2.37-1.79l-.19-.38c-.47-.57-1.74-1.08-2.42-1.43-8.47-4.47-18.87-7.13-28.23-9.04l-16.95-2.71c-8.58-1.38-21.55-5.71-29.34-.25-1.33.93-2.14,1.87-2.44,3.47-.09.5-.13.94-.43,1.36l-.22.29c.64,2.4,3.56,3.42,4.29,5.45l.14.35c.41,1.14.28,2.6.32,3.81l.26,6.9.24-.13c3.86-1.99,6.38.29,10.04-.29l.04.33-.37.21.2.12c.75.46,1.36.98,2,1.58l.2.19c.57.56.82,1.38.79,2.17-.04,1-.37,1.21-.99,1.96h1.75s4.97.07,4.97.07c.76,0,1.67-.19,2.38-.07.44.07.75.02,1.18-.03l2.09-.03.19.33-10.8.03c-.73.02-1.95-.12-2.61.05-.39.1-1.02.58-1.38.79-1.79,1.05-3.44,2.25-4.91,3.72-1.73,1.73-2.72,3.49-3.64,5.72-.59,1.44.59,2.74.27,4.23l-.5.09c-.45-.64-.61-1.14-1.38-1.36l-7.95,2.4c1.29,3.84,3.19,8.44,6.95,10.39,7.27,3.76,17.83,1.13,25.15-1.32,2.31-.78,4.77-1.82,6.97-2.89,1.07-.52,2.28-1.61,3.51-1.43.37.25.67.51,1,.81.77-3.12,1.82-5.75,3.7-8.38,4.19-5.86,13.49-11.29,20.59-12.43,8.11-2.9,17.02-3.72,25.02.03,5.57,2.6,9.98,6.6,12.07,12.45,1.55,4.33,1.84,9.33,1.96,13.9.03,1.06.21,2.51-.09,3.52-.06,2.32.3,5.92-.56,8.05-.75,4.02-1.41,8.08-1.48,12.19h14.14c-1.72-10.85-2.97-21.88-7.01-32-1.31-3.3-3.12-6.53-4.85-9.63Z"/>
      <path class="cls-3" d="m383.13,148.97c1.09-2.37.49-4.63,2.28-6.94,1.52-1.95,4.23-3.56,6.72-3.8,2.99-.29,6.18.22,8.57,2.08.21-2.78.26-5.44.89-8.19,1.02-4.43,3.32-7.8,6.15-11.25-7.1,1.14-16.4,6.57-20.59,12.43-1.88,2.63-2.93,5.26-3.7,8.38-.35,2.42-.62,4.85-.33,7.29Z"/>
      <path class="cls-10" d="m435.85,158.31c-1.25.23-2.5.81-3.67,1.28,4.17-4.59,8.78-6.73,14.53-8.83.3-1.01.12-2.46.09-3.52-.11-4.57-.4-9.56-1.96-13.9-2.09-5.85-6.51-9.85-12.07-12.45-8.01-3.74-16.92-2.93-25.02-.03-2.82,3.45-5.13,6.82-6.15,11.25-.63,2.75-.68,5.41-.89,8.19l4.75,11.19c2.31,5.47,4.81,10.96,9.17,15.12,1.8,1.72,3.9,3.15,6.12,4.38h23.92c.08-4.1.73-8.16,1.48-12.19-3.58-.26-6.65-1.18-10.3-.51Zm-11.23-19.87l-2,2.59c-1.18,1.28-3.77,3.08-5.53,3.14l-.35-.55c-.25-2.84.91-6.04,1.66-8.76.56.96,1.08,1.74,1.89,2.51.8.23,1.33-.05,2.07-.33l.33-.13c1.98-.86,4.34-2.47,6.35-2.96-1.3,1.74-2.8,3.08-4.43,4.49Z"/>
      <path class="cls-4" d="m422.37,137.03c-.74.28-1.27.56-2.07.33-.81-.77-1.33-1.54-1.89-2.51-.75,2.72-1.91,5.91-1.66,8.76l.35.55c1.76-.06,4.35-1.86,5.53-3.14l2-2.59c1.63-1.41,3.13-2.74,4.43-4.49-2.01.49-4.37,2.1-6.35,2.96l-.33.13Z"/>
      <path class="cls-1" d="m432.18,159.59c1.17-.47,2.42-1.05,3.67-1.28,3.65-.67,6.73.25,10.3.51.86-2.13.49-5.73.56-8.05-5.75,2.09-10.36,4.24-14.53,8.83Z"/>
      <path class="cls-1" d="m405.46,151.5l-4.75-11.19c-2.4-1.86-5.58-2.37-8.57-2.08-2.49.24-5.2,1.85-6.72,3.8-1.79,2.31-1.19,4.57-2.28,6.94-.34,2.85,1.12,6.74,2,9.44.4,1.23,1.04,2.56.92,3.87-.45,3.17-2.6,5.94-4.32,8.72h39.02c-2.22-1.23-4.31-2.67-6.12-4.38-4.37-4.16-6.87-9.65-9.17-15.12Zm-17.08,2.98c-.1-.3-.14-.55-.08-.87.25-1.28,1.28-2.1,2.33-2.75,1.17-.37,2.14-.25,3.25.25l.08.37c-1.24.55-2.29.77-3.44,1.59l-.26.19-1.55,1.27-.33-.06Zm7.11.38c-.19.25-1.93.81-2.33.99-.92.42-1.73.98-2.56,1.55-.44.4-.55.61-1.14.74-.33-.78-.36-1.27-.3-2.1,1.22-1.1,2.58-1.46,4.16-1.75.73-.02,1.67-.19,2.27.2-.03.13-.02.27-.1.37Z"/>
      <path class="cls-4" d="m390.52,153.08c1.14-.82,2.2-1.04,3.44-1.59l-.08-.37c-1.11-.5-2.08-.62-3.25-.25-1.05.65-2.08,1.47-2.33,2.75-.06.32-.02.56.08.87l.33.06,1.55-1.27.26-.19Z"/>
      <path class="cls-4" d="m393.31,154.3c-1.58.29-2.94.66-4.16,1.75-.05.84-.03,1.33.3,2.1.59-.13.7-.34,1.14-.74.83-.57,1.64-1.13,2.56-1.55.4-.18,2.14-.75,2.33-.99.08-.1.06-.25.1-.37-.61-.39-1.55-.21-2.27-.2Z"/>
    </g>
  </g>
</svg>