<?xml version="1.0" encoding="utf-8"?>
<!-- Generator: Adobe Illustrator 27.8.1, SVG Export Plug-In . SVG Version: 6.00 Build 0)  -->
<svg version="1.1" id="Calque_1" xmlns="http://www.w3.org/2000/svg" xmlns:xlink="http://www.w3.org/1999/xlink" x="0px" y="0px"
	 viewBox="0 0 512 512" style="enable-background:new 0 0 512 512;" xml:space="preserve">
<style type="text/css">
	.st0{fill:#1E4389;}
	.st1{fill:#D6B2BA;}
	.st2{fill:#7674B9;}
	.st3{fill:#FFDFDC;}
	.st4{fill:#C8A999;}
	.st5{fill:#A5A5A4;}
	.st6{fill:#AEA5E6;}
	.st7{fill:url(#SVGID_1_);}
	.st8{fill:url(#SVGID_00000018930846529641156940000005870814807154619069_);}
	.st9{fill:url(#SVGID_00000129200751140915336080000005131271368379069583_);}
	.st10{fill:#AAA5D5;}
	.st11{fill:#16349E;}
	.st12{fill:url(#SVGID_00000099651462106464382530000009980690008435597971_);}
	.st13{fill:#AFA4E5;}
	.st14{fill:url(#SVGID_00000170980504471575580920000018377841580168786827_);}
	.st15{fill:url(#SVGID_00000112607062892070693810000005294196817057961389_);}
	.st16{fill:#E4C7D1;}
	.st17{fill:#9189C4;}
	.st18{fill:url(#SVGID_00000008829021844599406420000011281699471424809879_);}
</style>
<path class="st0" d="M427.5,512H0V0h512v512h-74.1H427.5z"/>
<path class="st1" d="M486.3,404.4c0.5,0.7,0.8,1.6,1.4,2.3c0.5,0.6,1.9,1.1,2.7,1.4l0.1,0.5c-1.1,1-2.9,1.2-3.8,2.3l-0.3,0.4
	c-0.3,0-0.5-0.2-0.7-0.3c-1.3-1.1-2.3-1.8-3.8-2.5C484.5,407.6,485,406.8,486.3,404.4z"/>
<path class="st1" d="M87.9,21.9l0.4-0.1c0.6,0.6,0.7,1.3,1,2.1l4,1.9c-2.3,0.6-3.5,0.6-4.9,2.6l-0.2,0.3l-0.3,0
	c-1.6-1.6-3.1-2.1-5.2-2.8C85.4,24.9,86.3,24.2,87.9,21.9z"/>
<path class="st2" d="M31.8,30.6l0.5,0c1.3,2.6,2.8,3.1,5.2,4.5L34,35.9c-1,0.4-1.5,1.3-2,2.2l-0.1,0.2l-0.1-0.1L31.7,38
	c-1.2-2.4-3.5-2.6-5.9-3.4c2.4-0.9,4.6-1.3,5.9-3.7L31.8,30.6z"/>
<path class="st1" d="M65.4,46.8c1.3,1.2,2.3,2.7,3.6,4c1.4,1.3,3.2,1.8,5,2.2c-3.5,2.1-5.7,4.7-8.3,7.8c-1.1-1.4-2.1-3-3.4-4.2
	c-1.7-1.7-3.9-2.7-6.1-3.8l0.3-0.1c2-0.4,5-1.2,6.6-2.6C64,49.2,64.7,47.8,65.4,46.8z"/>
<path class="st3" d="M451.7,53.8c1.1,1.4,2.1,3.5,3.4,4.6c1.2,1,3.3,1.4,4.8,1.8c-4,2.3-6,4.9-8.3,8.8l-0.5-0.4
	c-1.3-1.9-2.7-4.1-4.4-5.6c-1.4-1.3-3.2-2.3-4.7-3.3l1.3-0.2c1.3-0.2,2.7-0.3,3.9-0.9C449.1,57.7,450.4,55.5,451.7,53.8z"/>
<path class="st2" d="M33.5,482c-0.3-0.4-0.5-0.7-0.7-1.2c-0.2-0.5-0.2-0.7-0.6-1.1c-0.5,0.2-0.9,0.3-1.5,0.2
	c-1.3-0.2-2.9-1.1-3.6-2.1l0.2-0.5c1.5-1.3,3.4-1.7,5.3-2.1c0.6-1.9-0.9-3.7-1.2-5.5c-0.1-0.7-0.2-1.1,0.2-1.7
	c0.9,0.5,1.4,1.3,2.1,2.1c1.3,1.6,2.7,3.6,4.5,4.7l0.3,0.2c2.8,1.7,5.2,1.5,8.3,1.1c-0.4,1.3-2.8,3.5-4,4.2
	c-0.8,0.5-1.5,0.7-2.4,0.8l-0.5-0.3c-0.7-0.6-1.4-1.2-2.2-1.6l-0.5,0.2l-0.2,2.2C36,481.7,34.3,481.6,33.5,482z"/>
<path class="st1" d="M40.9,76.6c0.9,0.9,1.5,2.3,2.5,3.2c2.1,1.9,5.4,2,8.1,1.9c-2,1.4-4.6,2.7-6.4,4.5c-1.3,1.3-2.2,3.1-3.1,4.7
	c-0.3,0.5-0.1,0.3-0.7,0.6c-0.9-1-1.6-2.4-2.4-3.5c-1.8-2.6-4-4.4-6.6-6.3l2.1-0.3C37.6,80.6,39.1,79.3,40.9,76.6z"/>
<path class="st3" d="M468.4,443.2c6.9-0.3,14-1.1,20.9-0.7c-2.6,1.9-6.4,3.3-9.5,3.9c1.7,0.4,7,0.3,7.8,1.5c-2.2,1.3-4.8,1.8-7.3,2
	c-1.1-0.5-2.5-0.6-3.7-0.8l-8.8-1.4L468.4,443.2z"/>
<path class="st4" d="M23.6,132.6c3.2-0.3,6.4-1.4,9.6-2.1c4.8-1,9.3-1.5,14.2-1.6l-9.4,16.4l-13.6,5.2c-0.5,0.2-0.3,0.1-0.8,0.2
	l2.2-7.7C26.8,139,25.6,136,23.6,132.6z"/>
<path class="st2" d="M470.5,80.6c0.4-0.1,0.8-0.1,1.2-0.2c1.5,0.3,2.7,2.3,3.6,3.4c0.5,0.6,1.9,2.6,2.5,2.8c0.6,0.2,1.7,0.1,2.3,0.1
	c1.8,0.1,3.5,0.2,5.2,0.4c-2.6,2.5-5,5.5-7.8,7.8l-0.4,0.3c0.2,1.6,0.5,3.6,0.2,5.2c-0.1,0.6-0.2,0.7-0.7,1
	c-1.9-0.2-3.7-1.1-5.4-1.8c-1.3-0.6-4.5-1.1-5.5-2c-0.3-0.3-0.1-1.7-0.1-2.2c-3.1-3.5-6.8-6.6-10.7-9.4c2.4-0.8,5.9-0.4,8.4-0.6
	c0.7,0,2.1-0.1,2.7-0.5C467.7,83.8,468.7,81.8,470.5,80.6z"/>
<path class="st1" d="M457.4,447.8l1.2-1.3c2.8-2.8,6-3.3,9.8-3.3l-0.5,4.6l8.8,1.4c1.2,0.2,2.6,0.3,3.7,0.8
	c-3.5,0.8-7.1,1.7-9.7,4.4c-1.4,1.5-2.4,3.3-3.6,5c-1.2,1.6-2.9,2.9-4.6,3.9c-1.7,1-3.4,0.9-5.3,0.5c-0.2,0-1.2-0.3-1.3-0.3
	c-0.2,0-0.3,0.2-0.4,0.3l-0.2,0.4c-0.3,0.6-0.5,0.7-0.9,1.1c-1.2,0-1.8-0.1-2.7-0.9c-0.3-0.3-0.5-0.4-0.8-0.7
	c-1.1,1.7-2.3,3.6-4.4,4c-0.6,0.1-1.2,0.2-1.7-0.2c-0.9-0.6-1.9-1.8-2.4-2.8l5.2-5c0.9-0.9,1.8-1.6,2.1-2.8l4.5,0.2
	C454.9,453.8,455.8,450.9,457.4,447.8z"/>
<path class="st2" d="M484.8,132.8c1.3-0.1,2.8-0.1,4.1,0.2c4.1,1,7.3,4.3,8.3,8.3c0.7,2.6,0.8,5.4,1.4,8c0.6,2.5,1.6,4.7,2.9,6.8
	c-1,0.1-2.2-0.1-3.2-0.2c-2.3-0.2-4.4-0.5-6.7-1c-2.1-0.8-4.2-1.7-6-2.9c-2.2-1.4-4.1-3.4-6.1-5.1c-2.1-1.8-4.3-3.4-6.5-4.9
	c1.3-0.9,2.6-2,3.7-3.2c1.3-1.5,2.4-3.4,4.1-4.5C482.1,133.5,483.3,133.1,484.8,132.8z"/>
<path class="st1" d="M74.5,460.8c-2.7-1.5-5.1-3.5-7.7-5.2c-4.2-2.8-8.6-5.1-13.2-7.2c-4.9-2.2-10.3-3.2-15.2-5.3
	c-1.5-0.6-3.1-1.3-4.5-2.3c-1.4-0.9-2.9-2.6-4.5-3.1c-0.8-0.3-2-0.2-2.9-0.3l-5.7-0.6c1.9-1,3.8-2,5.5-3.4c-3.2,0-6.7,0.8-9.9,1.2
	c-1.3,0.2-3.1,0.6-4.3,0c-0.6-0.3-0.8-0.3-1-0.9c2-0.2,3.7-1,5.4-1.8c4.1-2,8-4.9,12.5-5.9c2.8-0.7,5.7-0.5,8.6,0
	c3.6,0.6,7.5,1.9,10.5,3.9c4.9,3.3,7.8,8.2,11.9,12.5c5.3,5.6,11.5,10.5,15.9,16.8L74.5,460.8z"/>
<path class="st3" d="M102,442.5c0.6,0,1.1-0.1,1.7,0.2c-2.6,7.7-6.9,14.8-10,22.3c-2.3,5.3-4.3,10.8-6,16.3l-4.4,16.5
	c-1.5-4.5-2.9-8.8-5.8-12.6c-1.4-1.8-3-3.5-4.7-5l-3.5-3.1c-0.2-0.2-1-0.8-1.1-1c-0.4-0.9,3.1-9.3,3.7-10.7l2.6-4.6l1.2-1.5
	c2.9-2.9,6.3-5.3,9.6-7.6C90.5,448.1,96,444.1,102,442.5z"/>
<path class="st2" d="M161.9,422.8c0.7,1.2,1,2.5,1.3,3.8L163,427c1.5,0.1,8.2,6.6,9.7,8l3.4,2.7l0.1,0.4l-13.6,9.5l-26.8,21
	l-22.4,19.3l-7.3,7c-0.7,0.7-2,2.2-2.9,2.5c-0.4,0.1-1.2,0.1-1.6,0.1l-4.2,0c0.2-2.6,0.1-6.7,1.3-9c-1-2.2,3.1-24.7,3.9-28.4
	l0.3-0.3c2.5-2.3,2.9-8.9,7.4-8.7c1.6,0.1,3.1,1.4,4.1,2.6c2.6,3,4.1,7.3,5.1,11.1c5.3-5.1,9.5-11.6,13.6-17.7l3-4.2
	c1.5-0.2,1.8-0.7,2.9-1.6C146.1,434.6,155,429.9,161.9,422.8z"/>
<path class="st0" d="M161.9,422.8c0.7,1.2,1,2.5,1.3,3.8L163,427L139,443.3c-1.8,1.6-3.6,3.1-6,3.7l3-4.2c1.5-0.2,1.8-0.7,2.9-1.6
	C146.1,434.6,155,429.9,161.9,422.8z"/>
<path class="st5" d="M102.4,460l0.3-0.3c2.5-2.3,2.9-8.9,7.4-8.7c1.6,0.1,3.1,1.4,4.1,2.6c2.6,3,4.1,7.3,5.1,11.1
	c-4.4,3.8-8.2,8.2-12,12.7c-3,3.6-6.1,7.3-8.8,11.1C97.5,486.2,101.6,463.8,102.4,460z"/>
<path class="st2" d="M176.5,444.3c2.8,0.3,5.3,1.8,7.6,3.3c5.9,3.8,10.9,8.4,15.4,13.8c0.8,1,1.8,2.1,2.2,3.4
	c-9.7,1.2-20.9,5.2-28.7,11.2c-7,6.5-13.5,13.1-18.6,21.2c-0.1,0.2-0.2,0.5-0.4,0.6c-0.5,0.2-1.9,0.1-2.5,0.1l-1.7-0.1
	c-3.5-5.1-5.2-11.5-5.8-17.6c-0.1-0.6,0.1-1.7-0.5-1.9l-5.3,18.3l-0.1,0.5c-0.5,0.3-1.4,0.1-1.9,0.1l-5.7-0.1l-22.2,0.5l14.1-14.5
	c7.4-7.2,15.2-13.7,23.3-20.2c7-5.5,13.8-11.2,21.8-15.2C170.3,446.3,173.4,444.9,176.5,444.3z"/>
<path class="st3" d="M47.3,128.9c2.8-3.1,5-7.3,7.5-10.8c4.2-5.8,9-11.3,13.8-16.7C83.3,85.3,99.4,70.3,117.4,58
	c15.8-10.9,32.8-19.6,50.5-26.9c10.3-4.2,20.6-8.2,31.4-11.1c30.7-8.4,62.8-10,94.1-4.1c11.6,2.2,23.1,5.5,34.3,9.2
	c15.3,5.1,30.1,11.3,44.1,19.3c-0.3,0.1-0.7,0.4-0.9,0.4c-1,0.1-2.5-0.3-3.5-0.4c-2.6-0.3-5.2-0.7-7.8-0.8
	c-19.1-1-40.2,4.7-50.9,21.9c-1.1,1.8-1.9,3.9-2.8,5.8c-0.2,0-0.5,0-0.7,0c-0.3-0.1-0.8-0.6-1.1-0.8l-3.8-2.7
	c-3.9-2.8-8.1-5.6-12.4-7.9c-4.4-2.4-9-4.2-13.7-5.9c-4.7-1.7-9.5-3.2-14.4-4.1c-26-4.9-53.6,2.1-72.9,20.7
	c-7.6,7.3-14.1,16.6-18,26.4c-2.2,5.5-3.6,11.6-4.5,17.4l2.4,0.9l0.1,0.3c-0.6,0.3-1.2,0.3-1.9,0.3c-0.8,20.2,4.7,40.9,18.7,56
	c0.4,0.5,0.3,0.2,0.4,0.8c-16.4-3.1-35-3.7-49.4,6.2c-5,3.5-10.2,9-13.7,14.1l-0.5-0.1c-3.7-3.9-9.1-11.2-9-16.9
	c0-3.7,1.2-7.6,1.5-11.3c0.4-4.6-0.1-9-0.5-13.6c0.5-2.3-0.7-4.1-1.9-6c-4.6-6.9-12.4-10.9-20.4-12.5c-13.5-2.6-29.1,0.5-40.4,8.2
	c-4.4,3-8.6,6.8-11.8,11c-1.6,2.1-2.9,4.5-4.3,6.8l-0.6-0.3c1.1-4.4,3.1-8.7,4.8-12.9L47.3,128.9z"/>
<path class="st1" d="M255,28.6l0.6-0.1l0.9,1.1l-0.7,1.1l-0.5,0l-1.5,0.1l-0.1-1.1L255,28.6z"/>
<path class="st1" d="M164.2,48.1c0.5,0.3,0.7,0.6,1,1c-0.4,1-1.1,0.5-1.9,1c-0.3,0.2-0.8,1.1-1,1.4c-0.2,0.1-0.3,0.2-0.5,0.2
	c-0.4-0.2-0.8-1.3-1.3-1.5c-0.7-0.3-2.3-0.1-3.2-0.5c-0.1-0.9,0.8-1.2,1.3-1.9c-1-1.7-0.7-3.2-0.6-5.1l4.3,3.3l0.2,0
	c1.5,0,2.4-0.9,3.5-1.7L164.2,48.1z"/>
<path class="st1" d="M284.5,34.5l0-3.1c1,0.5,3.9,2.2,4.8,1.9l0.9-0.5c0.5,0.5,0.3,0.7,0.7,1.3c0.3,0.5,2.2,0.8,2.7,0.8l0.9-0.1
	c0,0.4,0.1,0.2-0.2,0.6c-0.8,1.2-1.3,2.4-1.5,3.8c-0.4,0.1-1.5,0.3-1.7,0.6l-0.4,0.9c-0.2,0.1-0.3,0.2-0.5,0.2c-0.1,0-1.1-1-1.3-1.1
	c-0.5-0.4-1.2-0.4-1.8-0.5l-0.3-0.1c-0.8-0.2-1.4-0.4-2.1-0.8l-3-1.8C283.1,36.1,283.9,35.8,284.5,34.5z"/>
<path class="st5" d="M286.9,39.3c-0.4-1-0.6-1.2-0.3-2.3c0.9-0.9,1.8-1.4,2.9-2c0.4,1,0.9,2,1.1,3.1l-0.7,1.1
	c0.4,0.4,0.2,0.2,0.6,0.3c0.4,0.1,0.3,0.1,0.8,0.3l-0.4,0.9c-0.2,0.1-0.3,0.2-0.5,0.2c-0.1,0-1.1-1-1.3-1.1
	c-0.5-0.4-1.2-0.4-1.8-0.5L286.9,39.3z"/>
<path class="st0" d="M165,115.8c-7.7,0.3-16.5,2.3-22.4,7.5c-2.3,2-4.1,4.4-6.4,6.3l-0.3,0.2c4.6,1.9,8.7,3.5,12.6,6.7
	c-1.9-0.5-3.9-1.4-5.8-1.6c-3.2-0.4-6.6,0.2-9.8,0.7c-1.9,0.3-3.9,0.5-5.8,1l1.9,3.3c-1.8-0.5-3.8-0.4-5.7-0.4l-7.3-0.1l2.6-2.8
	c-2.6-1.4-5.4-2.2-8-3.5c-5.4-2.7-10.3-6.2-16.3-7.5c1.8-1.2,3.7-2.4,5.8-2.7c5.7-1,11.1,2.4,16.2,4.6c0.6,0.2,2.1,1.1,2.6,1.1
	c0.5,0,1.6-0.6,2.1-0.7l7-2.1c-1.4-0.9-5.2-2.7-6-4.2c-0.3-0.6-0.4-1.7-0.6-2.4c-0.6-3-0.6-5.7,0.6-8.5c2.3-5.8,7.8-11.1,13.4-13.6
	c0.9,1.4,1.5,3,2.3,4.5l2.7,0.8c-0.9,3.5-0.6,7.4-1.9,10.7c-0.5,1.3-1.4,2.5-2.2,3.7c8.5-3.6,19-3.6,28.1-2.4l2.4,0.9l0.1,0.3
	C166.2,115.8,165.6,115.8,165,115.8z"/>
<path class="st1" d="M306,71.2c0.8-2,1.6-4,2.8-5.8c10.7-17.2,31.8-22.8,50.9-21.9c2.6,0.1,5.2,0.5,7.8,0.8c1,0.1,2.5,0.5,3.5,0.4
	c0.3,0,0.7-0.3,0.9-0.4c4.3,1.8,8.4,4.3,12.4,6.7c14.2,8.6,27.2,19.2,39,30.9l5.7,6c5.1,5.3,10.5,10.7,14.8,16.8
	c1.3,1.8,2.3,3.7,3.4,5.6l-0.6,2.4c-1,3.3-4.1,5.5-7,7c-6.3-3.5-11.2-9.4-17.7-12.8l-0.2-0.1c-0.5-0.6-1.7-1.1-2.4-1.4
	c-8.5-4.5-18.9-7.1-28.2-9l-16.9-2.7c-8.6-1.4-21.5-5.7-29.3-0.2c-1.3,0.9-2.1,1.9-2.4,3.5c-0.1,0.5-0.1,0.9-0.4,1.4l-0.2,0.3
	l-5.7-3.7l-0.2-0.1l-0.3-0.2c-0.7-0.4-1.1-1.5-1.4-2.3c-0.8-1.6-1.6-3.2-2.5-4.7l-0.2-0.4l-1.1-1.6c-1.1-1.3-4.3-4.8-6-5l-0.4-0.2
	c-1.4-0.9-1-3.1-1.5-4.6c-0.6-2-2-3.9-3.8-4.9c-3.2-1.8-6.9-1.2-10.2-0.1c-1.6,1.2-2.7,2.2-3.6,3.9l0.2,4.5c-1.2-0.2-2.9-0.7-4-0.2
	c-0.9,1-1.1,1.9-1,3.2l0,0.9c-1.5-0.4-3-0.8-4.6-1l-0.3,0.3c-0.3,0.3-0.6,0.5-1,0.7c-3.1,1.7-5.3,4.5-6.7,7.7
	c-0.2,0.5-0.5,1.7-0.8,2c-0.6,0.7-1.9,1.3-2.7,1.8c-1.7,1.1-3.4,2.4-4.6,4c-1.1,1.5-1.8,3.1-2.5,4.8c-0.2,0.5-0.5,1.7-0.8,2
	c-0.1,0.1-0.3,0.1-0.5,0.2l-0.5-0.1c-0.7-0.2-1.3-0.2-2-0.2l2.2,2.5c0.2,0.2,0.8,0.7,0.9,0.9c0.2,0.6-0.1,2.5-0.2,3.2
	c-0.2,2.9-0.7,5.8-0.6,8.7c0,3.2,2.1,15.7,0.4,18c1,2.8,1.6,5.3,1.9,8.3c1-2,2-3.8,4.3-4.5c1.4-0.4,3.3,0,4.6,0.8
	c2.3,1.4,3.7,3.8,4.2,6.4c0.8,3.7,0.2,8.3-2,11.5c-1,1.5-2.3,2.7-3.8,3.6c-0.8,0.1-1.8,0.2-2.6,0.6c0.2,1.7,0.6,3.4-0.2,5l-0.2,0.4
	c-2.5,5.4-9.1,8.2-14.1,10.7c-2.6,1.3-5.2,2.7-7.9,3.8c-4.5,1.7-9.2,3.4-14,4.3c-7.9,1.5-16.1,1.7-24.1,2.2
	c-9.9,0.5-20.2,1.3-30.2,0.5c-1.6-4-3.7-7.7-6.5-10.9c2-2.6,4.6-5,6.9-7.5c-2.5-0.1-5-0.5-7.5-1.2c-0.1-0.6,0-0.4-0.4-0.8
	c-13.9-15.1-19.5-35.8-18.7-56c0.7,0,1.3,0,1.9-0.3l-0.1-0.3l-2.4-0.9c0.9-5.8,2.4-11.9,4.5-17.4c3.9-9.8,10.4-19.1,18-26.4
	c19.2-18.6,46.9-25.6,72.9-20.7c4.9,0.9,9.7,2.5,14.4,4.1c4.7,1.7,9.3,3.5,13.7,5.9c4.3,2.3,8.5,5.1,12.4,7.9l3.8,2.7
	c0.2,0.2,0.8,0.7,1.1,0.8C305.5,71.2,305.7,71.2,306,71.2z"/>
<path class="st0" d="M246.9,130.2c4.9,0.4,8.6,1.1,12.9,3.4c-1.8,1.5-3.6,2.7-5.8,3.5l2-2.7c-1.7,0.7-3.3,2-5,2.6
	c-1.6,0.6-3.7,0.3-5.4,0.1c-0.6-0.3-0.3-0.1-0.8-0.5l0-1.1C245,133.5,245.3,131.6,246.9,130.2z"/>
<path class="st2" d="M373.8,80.7c4.4,0.3,9.3,3.6,12.7,6.2l0.3,0.6c-0.2,0.3-0.4,0.6-0.7,0.8c0.7,0.3,10.1-2.6,11.7-3.1
	c2.4-0.6,4.8-1,7.3-1.1c2.3-0.1,4.7,0.2,7,0.4c4.7,0.4,11.4,0.6,15,3.9l-0.3,0.4c-4.2,0-8.4-0.8-12.7-0.6c-3.7,0.1-7.3,1.4-10.9,2
	c-2.6,0.4-5.3,0.2-7.9-0.1c-1.7-0.2-4.7-0.7-6.1,0.6l-0.2,0.2l0.2,0.3l1.9,0.3l0.1,0.4c-0.6,0.4-2.2,0.2-2.9,0.1l-0.2-0.1l-0.4,0.2
	c-0.5,0.2-0.9,0.1-1.4,0c-3.8-3-8.5-5.5-11.9-8.9c-2.1,0.2-4,1.9-6.2,1.8l-0.2-0.4c0.9-1.2,2-1.9,3.5-2.4l1.9-0.6l-0.1-0.3
	c-0.6,0-1.2-0.2-1.9,0c-0.6,0.1-1.2,0.1-1.8,0.1C370.2,80.8,372.9,80.8,373.8,80.7z"/>
<path class="st0" d="M244.5,169.5l-0.8,12.3c-0.2,1-0.5,2.3-1.4,3c-1.1,0.7-2.5,0.9-3.8,0.5c-1.6-0.4-2.7-1.6-3.4-3
	c-1.4-2.7-0.5-4.6,0.3-7.3l-2.4-2.3c0.2-1.2,0.6-2.4,1-3.6c-1.2-0.5-3.2-1.1-3.9-2.2c-1-1.5,0.2-5.9,0.6-7.7l-3.7-1.8
	c-1.1-0.5-3.3-1.7-3.4-3.2c-0.1-2,3.2-8.2,4.1-10.3c1.6-3.7,3.3-7.6,4.2-11.5c0.1-0.4,0.4-1.5,0.4-1.8c-0.1-0.4-0.6-1.1-0.7-1.4
	c-0.7-1.4-1.5-2.8-2-4.3c-2.6-7.6,1.1-16.2,4.4-23c-0.7,6.4-1.3,11.6,1.2,17.7c0.6,1.4,1.3,3,2.3,4.2c0.7,0.8,1.3,1.2,2.3,1.2
	c2,0,4.2-0.7,6.2-0.9c1.7-0.2,4-0.1,5.6-0.6c0.1,0,0.5-0.4,0.6-0.4l0.5-0.6c1.1,0.3,3.8,0.8,4.6,1.4l-12.1,4.5
	c0.6,0.7,1.1,1.6,2,1.8c-1.6,1.5-1.9,3.3-2,5.4l0,1.1c0.5,0.4,0.2,0.3,0.8,0.5l-0.8,0.1c-0.6,2.9-0.1,6.6,0.1,9.6l-0.1,15.3
	C244.8,164.5,245,167.2,244.5,169.5z"/>
<path class="st6" d="M243.7,169.6c-2.7,0.9-5.9,1.3-8.7,0.7c2.4-1.1,5-1.7,7.6-2.5c0.5,0.3,0.9,0.5,1.1,1.1
	C243.7,169.1,243.7,169.4,243.7,169.6z"/>
<path class="st5" d="M242.5,167.7l0.8-0.6l-0.1-0.3c-0.9-2.1-8.4-5.2-10.6-6.5c1.2-0.5,2.3-0.9,3.3-1.7c0.4-0.8,0.5-1.3,0.4-2.2
	c-1-1.7-5.2-1.6-7.2-2.2c2.1-5.3,5.4-9.9,8-14.9c1.6-3.1,2.6-7.3,1.4-10.7l-0.1-0.3l0.2-0.2l1.2,0.7c1.4,0.6,3.4,0,4.8-0.5l0.3-0.1
	c0.6,0.7,1.1,1.6,2,1.8c-1.6,1.5-1.9,3.3-2,5.4l0,1.1c0.5,0.4,0.2,0.3,0.8,0.5l-0.8,0.1c-0.6,2.9-0.1,6.6,0.1,9.6l-0.1,15.3
	c0,2.3,0.2,5.1-0.3,7.4l-0.8,0.1c0-0.2,0-0.5,0-0.7C243.5,168.2,243,168.1,242.5,167.7z"/>
<path class="st0" d="M233.8,101.9c1.7-5,6.8-9.1,11.1-11.9c3.4-2.1,7.2-3.7,10.9-5.1c6.3-2.4,12.9-4.2,19.6-4.6
	c6.5-0.4,13.2,0.4,19.5,1.9l-0.3,0.3c-0.3,0.3-0.6,0.5-1,0.7c-3.1,1.7-5.3,4.5-6.7,7.7c-0.2,0.5-0.5,1.7-0.8,2
	c-0.6,0.7-1.9,1.3-2.7,1.8c-1.7,1.1-3.4,2.4-4.6,4c-1.1,1.5-1.8,3.1-2.5,4.8c-0.2,0.5-0.5,1.7-0.8,2c-0.1,0.1-0.3,0.1-0.5,0.2
	l-0.5-0.1c-0.7-0.2-1.3-0.2-2-0.2l2.2,2.5c0.2,0.2,0.8,0.7,0.9,0.9c0.2,0.6-0.1,2.5-0.2,3.2c-0.2,2.9-0.7,5.8-0.6,8.7
	c0,3.2,2.1,15.7,0.4,18c-1.2-2.3-2.5-4.2-4.5-5.9c-2.5-2-5.6-3.3-8.2-5.2c-0.9-0.7-1.9-1.4-2.6-2.3c-0.9-1.1-1.5-2.5-2.4-3.7
	c-1.3-1.8-2.8-3.5-4-5.3c-2.9-4.6-4.1-9.3-5-14.6l-0.1,0.3c-1.9,4.4-2.5,11.5-0.8,15.9c0.9,2.3,2.1,3.3,4.4,4.2l0.5,0.1L252,123
	c0,0-0.5,0.4-0.6,0.4c-1.6,0.5-3.9,0.4-5.6,0.6c-2,0.3-4.2,0.9-6.2,0.9c-1.1,0-1.7-0.4-2.3-1.2c-1-1.2-1.7-2.7-2.3-4.2
	C232.5,113.5,233.2,108.3,233.8,101.9z"/>
<path class="st2" d="M233.8,101.9c1.7-5,6.8-9.1,11.1-11.9c3.4-2.1,7.2-3.7,10.9-5.1c6.3-2.4,12.9-4.2,19.6-4.6
	c6.5-0.4,13.2,0.4,19.5,1.9l-0.3,0.3c-0.3,0.3-0.6,0.5-1,0.7c-3.1,1.7-5.3,4.5-6.7,7.7c-0.2,0.5-0.5,1.7-0.8,2
	c-0.6,0.7-1.9,1.3-2.7,1.8c-1.7,1.1-3.4,2.4-4.6,4c-1.1,1.5-1.8,3.1-2.5,4.8c-0.2,0.5-0.5,1.7-0.8,2c-0.1,0.1-0.3,0.1-0.5,0.2
	l-0.5-0.1c-0.7-0.2-1.3-0.2-2-0.2c-4.1-2.8-7.7-6.3-10.4-10.4c-0.8-1.3-1.5-2.6-2.1-4c-0.2-0.5-0.5-1.8-1-2.1
	c-1.9,1.2-3.9,2.4-5.9,3.4c-4.8,2.4-12,5.4-13.2,11.3c-0.9,4.4,0.6,9.6,3.1,13.3c1.6,2.3,5.1,5,8,5.4c0.3,0,0.6,0,0.9,0l0.5,0.1
	L252,123c0,0-0.5,0.4-0.6,0.4c-1.6,0.5-3.9,0.4-5.6,0.6c-2,0.3-4.2,0.9-6.2,0.9c-1.1,0-1.7-0.4-2.3-1.2c-1-1.2-1.7-2.7-2.3-4.2
	C232.5,113.5,233.2,108.3,233.8,101.9z"/>
<path class="st2" d="M421.5,106.9l0.2,0.1c6.5,3.4,11.4,9.3,17.7,12.8c2.9-1.6,6-3.8,7-7l0.6-2.4c1.5,1.4,3,3.5,4.1,5.2l7.5,10.2
	l11,18c3.2,5.5,6.5,11.1,9.2,16.8c2.2,4.6,4,9.3,5.8,14c9.7,25.5,13.8,51.6,14.7,78.8c0.3,9.5,0.4,19.1-0.2,28.5
	c-0.5,8.3-1.6,16.6-3,24.7c-1.7,10.7-4.5,21.2-8,31.4c-0.6,1.7-1.2,4.5-2.5,5.7c-2.5,6.4-5.1,12.9-8.1,19.1
	c-9.7,19.7-23.3,37.5-38.2,53.5c-5.1,5.5-10.3,11.1-15.9,16.1c2.7,1.2,5.4,2.3,7.9,3.8c4,2.4,7.3,5.6,10.7,8.8
	c1.7,1.6,3.4,3.2,4.8,5.1l2.9,6.9c-0.4,1.2-1.3,2-2.1,2.8l-5.2,5c-1.8,0.8-3.5,1.2-5.4,1.3c-0.5-0.3-2-0.4-2.6-0.6
	c0.6-0.2,1.2-0.4,1.8-0.7l0-0.5c-0.7-0.5-1.6-0.4-2.5-0.4c-1.5-0.1-3.1-0.2-4.7-0.4c-1.4-0.2-2.7-0.7-4-1.2c3-0.5,6.2-0.7,9.2-1.5
	c2.2-0.5,4.2-1.4,6.3-2.2l-9.1-0.1c-2.4,0-4.8,0.2-7.1,0.1c-3.6-0.2-7.2-1-10.5-2.2l-0.9,41.7c-2.1-2.3-3.2-5.2-4.4-8l-3.5-8.1
	l-5.8-12.5c-3.5-7-7.6-13.4-11.9-19.9c-2.5-2.5-4.4-5.6-6.9-8.2c-7.6-8-16.6-14.3-26.1-19.7l-0.2-0.3c2.7-3.6,4.1-8.5,5-12.9
	c0.8-4.1,1.2-7.9,0.9-12c-0.1-1.4-0.2-3.1-0.6-4.4c-0.4-1.3-1.3-2.5-2-3.6c-1-1.5-1.9-3.1-2.6-4.7c-5.9-12.6-6-27.3-3.5-40.7
	c1.6-6.4,3.7-12.5,7.4-18c1.8-2.6,3.9-4.9,6-7.2c-0.8-0.6-1.5-1.3-2.2-2l0.1-19.7c3.5,1.1,7.1,1.9,10.7,2.7c2.7,0.6,5.5,1.3,8.3,1.7
	c1.5,0.2,3.4,0.6,4.7-0.4c1.4-2.9,1.4-6.6,2.1-9.7c0.3-1.3,1.1-2.6,1.1-4c0-1.1,0.3-2.3,0.6-3.4c0.2-0.5,0.3-0.8,0.2-1.4l-0.3-5.6
	c1.7-0.5,2.9-0.9,4.3-2c-1.9-5.8-5.7-10.9-7.6-16.7c-1.8-5.5-1.3-11.6-2.5-17.3c0.5-0.1,1-0.2,1.4-0.5c1.6-1.3,3-3.2,4.5-4.7
	c2.1-2.1,4.4-3.9,6.6-5.8c6.9-5.8,15.2-12.3,16.1-21.9l16.1,22.6c1-3.1,2.9-6.2,4.7-8.9c3.9-6,8.7-11.7,11-18.6
	c1.2-3.5,1.6-7.1,2-10.8c3.5,7.6,8.8,13.4,14.8,19.1l0.5-0.2c0.9-0.3,1.5-0.7,2.1-1.5c1.1-1.3,2.4-3,2.2-4.8
	c-0.3-2.8-2.1-6.2-3.1-8.9c-1.3-3.4-2.4-6.9-3.3-10.4c-3.7-14.8-3.9-30.8-9.5-45c-1.3-3.3-3.1-6.5-4.8-9.6c-1.7-3.1-3.4-6.1-6.1-8.5
	c-0.6-0.5-0.9-0.9-1.2-1.7l0.2-0.3c-3.6-2.4-6.6-5.4-10.1-7.9l-4.2-3c-0.8-0.5-1.9-1-2.4-1.8L421.5,106.9z"/>
<path class="st3" d="M384.3,240.2c0.5-0.1,1-0.2,1.4-0.5c1.6-1.3,3-3.2,4.5-4.7c2.1-2.1,4.4-3.9,6.6-5.8
	c6.9-5.8,15.2-12.3,16.1-21.9l16.1,22.6c1-3.1,2.9-6.2,4.7-8.9c3.9-6,8.7-11.7,11-18.6c1.2-3.5,1.6-7.1,2-10.8
	c3.5,7.6,8.8,13.4,14.8,19.1l12.9,11.7c4.7,4.2,9.9,8.7,13,14.3c1.5,2.7,2.3,5.8,2.4,8.9c0.3,6.5-1.7,13.7-4.6,19.5
	c-0.8,1.6-1.6,3.4-2.8,4.8l-0.1,0.1l0-0.4c0.1-1.7,0.8-3.5,1.1-5.3c0.8-5.3-0.1-10.5-3.5-14.7c-1.7-2.1-3.8-3.8-5.9-5.4
	c-8.2-6.2-18.8-10.2-29-11.2c-11.6-1.1-22.7,1.4-31.8,9.1c-6.2,5.2-12.6,14.3-13.3,22.6c-1.1,13.8-2,29.2,2,42.5
	c-13.2-1.3-26.8,2.3-37.2,10.7c-0.8-0.6-1.5-1.3-2.2-2l0.1-19.7c3.5,1.1,7.1,1.9,10.7,2.7c2.7,0.6,5.5,1.3,8.3,1.7
	c1.5,0.2,3.4,0.6,4.7-0.4c1.4-2.9,1.4-6.6,2.1-9.7c0.3-1.3,1.1-2.6,1.1-4c0-1.1,0.3-2.3,0.6-3.4c0.2-0.5,0.3-0.8,0.2-1.4l-0.3-5.6
	c1.7-0.5,2.9-0.9,4.3-2c-1.9-5.8-5.7-10.9-7.6-16.7C385,252,385.5,245.9,384.3,240.2z"/>
<path class="st3" d="M404.4,307.5c2.4-3,5.8-3.1,8.7-5.2c4-2.9,5.4-11,4.5-15.6c-0.9-4.6-3.4-8.3-2.5-13.2c0.8-4.2,2.4-7.5,5.9-10.1
	c3.3-2.4,7.6-4.2,11.8-3.5c3.9,0.7,9.1,4,11.3,7.3l0.3,0.4c2.2-1.5,3.9-3.6,5.7-5.6c4.3-4.8,9.6-8.9,16-10.5
	c3.3-0.9,7.2-1.3,10.3,0.6c5.2,3.2,5.9,8.3,5.7,13.9c0,1.1-0.3,2.6,0,3.7l0.1,0.4c-0.1,2.9,0.4,6.9-0.7,9.5c-0.6,1.5-3.1,2.8-3.3,4
	c-0.8,3.8-0.2,8.3-0.1,12.2c0,1.5,0.2,3.5-0.3,5c-0.2,0.5-0.6,1.1-1,1.4c-0.9,0.9-2.3,1-3.6,0.9c-1-0.1-2.1-0.4-3.1-0.7
	c-4.4-1-8.7-1.9-12.8,0.6c-2.3,1.4-3.4,3.9-3.9,6.4c-0.7,3.3-0.2,7.1,0,10.4c0.1,1.5,0.4,3,0,4.5c6.6,4.3,13.8,8.1,20.6,12
	c3.7,2.1,8.9,4.4,11.8,7.5c-2.5,6.4-5.1,12.9-8.1,19.1c-9.7,19.7-23.3,37.5-38.2,53.5c-5.1,5.5-10.3,11.1-15.9,16.1
	c2.7,1.2,5.4,2.3,7.9,3.8c4,2.4,7.3,5.6,10.7,8.8c1.7,1.6,3.4,3.2,4.8,5.1l2.9,6.9c-0.4,1.2-1.3,2-2.1,2.8l-5.2,5
	c-1.8,0.8-3.5,1.2-5.4,1.3c-0.5-0.3-2-0.4-2.6-0.6c0.6-0.2,1.2-0.4,1.8-0.7l0-0.5c-0.7-0.5-1.6-0.4-2.5-0.4
	c-1.5-0.1-3.1-0.2-4.7-0.4c-1.4-0.2-2.7-0.7-4-1.2c3-0.5,6.2-0.7,9.2-1.5c2.2-0.5,4.2-1.4,6.3-2.2l-9.1-0.1c-2.4,0-4.8,0.2-7.1,0.1
	c-3.6-0.2-7.2-1-10.5-2.2l-1.2-2.3c-1.2-1.3-2-3-2.7-4.6l-3.5-7.1c-0.4-0.8-1.5-2.3-1.7-3.1c-0.1-0.4,0-1.1,0-1.6l-0.3,0l-2.3-5.8
	c-1-2.2-2.3-4.5-2.7-6.8c-0.3-1.8,0.2-3,1.2-4.4l-0.1-0.3c0.8-1.9,1.6-3.9,2.6-5.7c1.4-2.4,3.2-4.7,5-6.9c1.6-1.9,3.1-3.8,5.1-5.3
	l14,2c3.1,0.2,6.6,0.1,9-2.1c4.3-3.9,1.9-8.2,2.1-13.1l0.7-0.4c1.2-0.8,1.9-1.5,2.2-3c-0.3-0.9-0.6-1.1-1.2-1.8
	c-0.3-0.4-0.5-0.7-0.7-1.1c0.3-0.9,1.4-1.5,2-2.1l0.2-2.5c1.6-1.9,5.3-2.3,7.5-3.6c0.9-0.5,1.5-1.1,1.7-2.1
	c-0.3-0.8-0.8-1.3-1.4-1.9c-3-2.9-5.3-5.8-7.5-9.3l-0.6-1.1c-0.6-1.1-2-3.1-2.1-4.4c-0.1-1.2,1.1-3.5,1.5-4.6l1.9-5.8l0.2-0.4
	c0.5-1.9,0.7-3.7,0.4-5.6l-0.1-0.5c-0.5-3.1-2-6.1-3.6-8.7c-4.9-8.1-12.4-14.8-21-18.8C413.9,309.9,409.2,308.6,404.4,307.5z"/>
<path class="st0" d="M404.5,437.9c1.5,0.1,2.3,1,3.3,2.1l6.5,7.5c2,2.1,4.2,3.9,6.3,5.7l-8.3,1c-1.2-1.3-2-3-2.7-4.6l-3.5-7.1
	c-0.4-0.8-1.5-2.3-1.7-3.1C404.4,439.1,404.5,438.4,404.5,437.9z"/>
<linearGradient id="SVGID_1_" gradientUnits="userSpaceOnUse" x1="1013.8502" y1="-81.5729" x2="1066.6382" y2="-51.7349" gradientTransform="matrix(0.6667 0 0 -0.6667 -234.3331 248.3336)">
	<stop  offset="0" style="stop-color:#9E97CC"/>
	<stop  offset="1" style="stop-color:#AAA5D5"/>
</linearGradient>
<path class="st7" d="M452.8,323.7c-2.6-6-6.6-11.8-7.7-18.2L445,305c-0.6-3.7-0.1-5.7,1.8-8.9c0.4-0.7,1-1.6,1.2-2.4
	c0.5-3.2-0.3-7.1-0.4-10.3c-0.1-4.9,1.5-11,5.1-14.6c2.5-2.5,5.7-3.4,9.2-3.3c2.8,0.1,5.7,1.5,7.6,3.6c1,1.1,1.8,2.6,2.2,4.1
	c0.9,3,0.6,6.1,1.1,9.2c0.6,3.3,2.2,6.7,2,10.1c-0.3,4.2-1.6,7.2-4.7,10.1c-4.4-1-8.7-1.9-12.8,0.6c-2.3,1.4-3.4,3.9-3.9,6.4
	c-0.7,3.3-0.2,7.1,0,10.4c0.1,1.5,0.4,3,0,4.5L452.8,323.7z"/>
<path class="st0" d="M455.7,278.8c2.8-0.1,5.2,0.1,7.4,2c0.5,0.4,1.2,0.9,1.3,1.5l-0.7-0.1c-1.7-0.6-3.4-1.4-5.2-1.8
	c-1.3-0.3-2.7-0.3-3.9-0.7l0-0.4L455.7,278.8z"/>
<path class="st0" d="M454.9,272.3c2.4-0.3,4.4-0.1,6.5,1c1.6,0.8,3,2,3.6,3.7l-0.3,0.4c-1.4,0.2-2.9-0.8-4.1-1.4
	c-1.4-0.6-2.9-1-4.4-1.2c-2.4-0.4-4-0.4-6,1l-0.3,0.2l-0.2-0.3l0.4-0.9C451,273.2,453.3,272.8,454.9,272.3z"/>
<path class="st1" d="M364.6,317.9c10.3-8.4,24-12,37.2-10.7c0.9,0.2,1.7,0.3,2.6,0.2c4.8,1.2,9.5,2.5,14,4.5
	c8.6,4,16.1,10.7,21,18.8c1.6,2.6,3.1,5.6,3.6,8.7l0.1,0.5c0.3,1.9,0.1,3.7-0.4,5.6l-0.2,0.4l-1.9,5.8c-0.4,1.2-1.6,3.4-1.5,4.6
	c0.1,1.2,1.5,3.2,2.1,4.4l0.6,1.1c2.2,3.6,4.5,6.4,7.5,9.3c0.6,0.6,1.1,1,1.4,1.9c-0.3,1-0.8,1.6-1.7,2.1c-2.2,1.3-5.9,1.7-7.5,3.6
	l-0.2,2.5c-0.7,0.6-1.8,1.3-2,2.1c0.2,0.4,0.4,0.7,0.7,1.1c0.6,0.6,1,0.9,1.2,1.8c-0.3,1.5-1,2.2-2.2,3l-0.7,0.4
	c-0.2,4.8,2.1,9.2-2.1,13.1c-2.4,2.2-5.9,2.3-9,2.1l-14-2c-2,1.5-3.5,3.4-5.1,5.3c-1.7,2.2-3.6,4.5-5,6.9c-1,1.8-1.8,3.8-2.6,5.7
	l0.1,0.3c-1,1.4-1.5,2.6-1.2,4.4c0.4,2.4,1.7,4.7,2.7,6.8l2.3,5.8l0.3,0c0,0.5-0.1,1.1,0,1.6c0.2,0.8,1.2,2.3,1.7,3.1l3.5,7.1
	c0.8,1.6,1.5,3.3,2.7,4.6l1.2,2.3l-0.9,41.7c-2.1-2.3-3.2-5.2-4.4-8l-3.5-8.1l-5.8-12.5c-3.5-7-7.6-13.4-11.9-19.9
	c-2.5-2.5-4.4-5.6-6.9-8.2c-7.6-8-16.6-14.3-26.1-19.7l-0.2-0.3c2.7-3.6,4.1-8.5,5-12.9c0.8-4.1,1.2-7.9,0.9-12
	c-0.1-1.4-0.2-3.1-0.6-4.4c-0.4-1.3-1.3-2.5-2-3.6c-1-1.5-1.9-3.1-2.6-4.7c-5.9-12.6-6-27.3-3.5-40.7c1.6-6.4,3.7-12.5,7.4-18
	C360.4,322.5,362.5,320.2,364.6,317.9z"/>
<path class="st6" d="M439,389.2l-0.5-0.7c-0.8-1.4-2.4-2.6-3.6-3.7c1.1-0.6,3.7-0.4,5-0.3c0.6,0.6,1,0.9,1.2,1.8
	C440.9,387.7,440.2,388.4,439,389.2z"/>
<path class="st6" d="M430.9,347.1l1.9-0.2l-0.2-0.6l1-1.2c1.2-1.1,3-2.8,4.7-2.7c1.3,0.1,2.4,1.2,3.3,2.1l1,1.1l-0.2,0.4l-0.9,0.4
	c-0.5,1.1-1.3,2.5-0.9,3.7l0.2,0.4c-0.9,0-2-1.3-2.9-1.7c-1.1-0.6-2.2-0.9-3.4-1.1l-0.5-0.1L430.9,347.1z"/>
<path class="st4" d="M393.9,432.3c0.8,1.4,1.4,3,2,4.5c1.7-1,3.3-1.7,5.2-2.3c0.3,2.3,0.5,4.6,0.1,6.8c-0.8,4.5-2.4,9.1-3.6,13.5
	c-0.5-1.6-0.9-3.1-1.2-4.8c-0.2-1-0.2-1.9-0.6-2.8c-0.5-1-0.2-2.7-0.2-3.8c0-0.5-0.2-0.6-0.3-1c-0.1-0.8,0-2,0-2.8
	c0-0.8,0.2-1.8-0.2-2.4c0.1-0.5,0-0.3,0.2-0.6c-0.4-1.3-0.9-2.5-1.5-3.7L393.9,432.3z"/>
<path class="st0" d="M400.4,420.7c-0.3-0.9-0.2-2-0.2-3l-0.2-4.8c-0.3-4.6-0.6-9.3-1.5-13.9c-0.6-3-1.5-5.8-2.5-8.6
	c1.2,1.3,2,3.1,3.1,4.5c3.8,4.8,8.4,6.3,14,8c-2,1.5-3.5,3.4-5.1,5.3c-1.7,2.2-3.6,4.5-5,6.9C402,416.8,401.3,418.8,400.4,420.7z"/>
<linearGradient id="SVGID_00000116237713164273888200000010373707653784702117_" gradientUnits="userSpaceOnUse" x1="896.488" y1="-237.9186" x2="921.568" y2="-284.6367" gradientTransform="matrix(0.6667 0 0 -0.6667 -234.3331 248.3336)">
	<stop  offset="0" style="stop-color:#A6A6A6"/>
	<stop  offset="1" style="stop-color:#C8B69F"/>
</linearGradient>
<path style="fill:url(#SVGID_00000116237713164273888200000010373707653784702117_);" d="M359,408.6c4.3,0.9,8.1,2.6,12,4.3
	c7.8,3.5,15.7,7.7,20.5,15l0.5,0.8c0.6,1.1,1.7,2.4,1.9,3.6l0,0.6l-0.2-0.3c-0.6-0.9-0.5-1.3-1.4-2c-0.9,0.4-1.5,1-2.4,1.4l-2.3,1.3
	c-2,1-3.9,2.4-5.7,3.7c-1,0.7-2.2,1.3-3,2.2c1.6,1.6,3.4,3.3,4.7,5.1c1.1,1.5,3.6,3.5,3.6,5.4c-2.5-2.5-4.4-5.6-6.9-8.2
	c-7.6-8-16.6-14.3-26.1-19.7l-0.2-0.3C356.6,417.9,358.1,412.9,359,408.6z"/>
<path class="st0" d="M364.6,317.9c10.3-8.4,24-12,37.2-10.7c0.9,0.2,1.7,0.3,2.6,0.2c4.8,1.2,9.5,2.5,14,4.5
	c8.6,4,16.1,10.7,21,18.8c1.6,2.6,3.1,5.6,3.6,8.7l0.1,0.5c0.3,1.9,0.1,3.7-0.4,5.6l-1-1.1c-0.8-0.9-2-2-3.3-2.1
	c-1.7-0.1-3.5,1.5-4.7,2.7l-1,1.2l0.2,0.6l-1.9,0.2l-1.4,0.7c-2.6,1.3-3.9,3.3-5.4,5.7c-0.2-1.9-0.7-7.9-2.3-9.2
	c-0.6-0.5-1.1-0.4-1.9-0.2c-4.4,1-10.1,7.3-12.2,11.1c-0.6,1.1-1.2,2.3-1.6,3.5c-0.9-2.8-2.1-5.6-4.9-7c-1.3-0.7-3.1-1-4.6-0.6
	c-1.9,0.6-3.5,2.4-4.3,4.2c-1.7,3.6-1.4,7.3,0.1,10.9c0.5,1.2,1.1,2.5,1.8,3.6c0.5,0.8,2.6,2.5,2.6,3.3c-1.8,3-3.7,6-6,8.6
	c-5.4,6.1-12.7,10.3-20.6,12.3l-10.3,2.5c-0.1-1.4-0.2-3.1-0.6-4.4c-0.4-1.3-1.3-2.5-2-3.6c-1-1.5-1.9-3.1-2.6-4.7
	c-5.9-12.6-6-27.3-3.5-40.7c1.6-6.4,3.7-12.5,7.4-18C360.4,322.5,362.5,320.2,364.6,317.9z"/>
<path class="st2" d="M33.7,158.6c1.4-2.3,2.7-4.6,4.3-6.8c3.2-4.3,7.4-8,11.8-11c11.3-7.7,26.9-10.8,40.4-8.2
	c8,1.5,15.8,5.5,20.4,12.5c1.2,1.9,2.4,3.7,1.9,6c0.4,4.5,0.9,9,0.5,13.6c-0.3,3.8-1.5,7.6-1.5,11.3c-0.1,5.7,5.3,13,9,16.9l0.5,0.1
	c3.4-5.1,8.6-10.6,13.7-14.1c14.4-9.9,33-9.2,49.4-6.2c2.5,0.7,4.9,1.1,7.5,1.2c-2.3,2.4-4.9,4.8-6.9,7.5c2.8,3.2,4.9,6.9,6.5,10.9
	l2.9,9.6c0.5,1.8,1.2,3.5,1.6,5.3c0.5,2.1-0.1,4.3,0.2,6.4c0.2,1.5,1.3,3.2,2.1,4.5c1.9,3,4.3,5.8,6.5,8.5c0.8,0.9,1.5,1.7,2,2.8
	c-0.1,1.4-1,2.4-2.1,3.3c-0.7,0.5-1.8,1-2.2,1.8c1.1,2.4,1.1,5.1,1.9,7.6c0.6,2-0.5,3.9-0.8,5.8c0.8,3.5,2.2,8.7,0,11.9
	c-1.1,1.6-2.4,2.6-4.3,2.9c-1.8,0.3-3.4-0.1-5-0.8c-4.5-0.8-8.6-0.6-12.9-2.4c-0.7,2.8-1.9,5.7-2.2,8.6c0.7,1.3,0.8,2.9,1,4.3
	c0.6,4.1,0.8,8.2,1.1,12.4c0.1,1.6-0.1,3.4,0.5,4.9c1.4,3.7,9.2,17.3,7.9,20.2c-0.6,1.3-2,2.3-2.8,3.5l-1-0.2
	c0.3,6.1,1.5,12,2.4,18.1c0.2,1.3,0.2,3.1,0.6,4.3c0.2,0.6,1.4,1.7,1.8,2.1c1.5,1.6,2.9,3.2,4.2,4.9c3.1,4,5.7,7.9,7.8,12.5
	l9.8,31.6c-5,2.8-8.2,5.8-9.9,11.6c-1.2,4.3-0.7,9.3,1.5,13.2c1.8,3.1,4.6,6,8.1,6.9c1.4,0.4,2.3,0.4,3.7,0l0.6-0.2
	c0.6,1.2,1.1,2.5,1.9,3.7c2.4,3.7,6,6.7,10.1,8l1.3,0.4l-5,23.7c-0.5,2.5-0.9,6.8-2.3,8.9c-2.4,1.1-5.4,1-8,1l4-35.8l0-0.2
	c-0.8,0.8-1.5,1.5-2.5,2.1l-0.3,0.2c0.4,0.9,0.4,1.5,0.3,2.5c-0.2,3.6-1,7.2-1.5,10.8l-2.5,20.8l-10.1,0.6c-0.4-1.3-1.4-2.4-2.2-3.4
	c-4.5-5.5-9.5-10-15.4-13.8c-2.3-1.5-4.9-3.1-7.6-3.3l0.4-0.4l0-4.1c-0.1-0.9,0-1.2-0.7-1.8l-0.1-0.4l-3.4-2.7
	c-1.6-1.4-8.2-7.9-9.7-8l0.2-0.4c-0.2-1.3-0.6-2.6-1.3-3.8c-6.9,7.1-15.8,11.8-23,18.5c-1.1,0.9-1.5,1.4-2.9,1.6l-3,4.2
	c-4.1,6.1-8.4,12.5-13.6,17.7c-1-3.8-2.5-8.1-5.1-11.1c-1-1.2-2.4-2.5-4.1-2.6c-4.5-0.1-4.9,6.4-7.4,8.7l-0.3,0.3l1.6-8.3l-0.3-0.9
	c-0.2-1.4-0.5-4.8-0.2-6.1c0.2-0.6,0.7-1.3,1-1.8c-0.3,0-0.7-0.2-0.9-0.2c-0.6-0.3-1.1-0.2-1.7-0.2l0.1-0.3c-0.5-0.1-0.6-0.3-1-0.6
	l0.2-0.2c-0.6-1.3-2.6-2.5-3.7-3.4l-4.8-4.5l-12.5-12.3c-8.7-8.5-16.6-17.7-24-27.3c-5.8-7.5-11.4-15-16.3-23.2
	c-1.9-3.1-3.4-6.4-5.1-9.6c-6.8-13.2-12.2-27.4-15.6-41.9c-0.9-3.9-2-8-2.6-12c-0.4-3-1.3-6-1.8-9L12.4,278
	c-1.9-20.6-1.5-42.2,2.1-62.7c2.2-12.5,5.8-24.9,10.1-36.8c2.5-6.9,5.2-13.7,8.5-20.3L33.7,158.6z"/>
<path class="st0" d="M36,303.4c1.1,0.3,1.9,0.7,2.7,1.4l0,0c-0.8,0.7-1.2,1.8-1.7,2.8c1,0.6,3.1,1.5,3.6,2.4
	c0.2,0.4,0.1,0.4,0.1,0.8c-2,1.5-7.4,1.4-9.9,1.5c0.4-0.9,0.8-1.7,1.4-2.5c1.5-1.8,3.8-3.6,3.7-6.1L36,303.4z"/>
<path class="st0" d="M46.8,358.8c-2.2-2.3-4.3-3.9-6.9-5.7c3.4,0.6,16.1,3.9,17.9,6.8c0.2,0.3,0.2,0.7,0.3,1.1l-1,1.7
	c-3.4-0.5-6.7-2.4-9.8-3.7L46.8,358.8z"/>
<path class="st1" d="M26.5,291.3c3.6,1.6,6.2,5.1,8.1,8.4c0.2,0.6,0.3,1.1,0.7,1.6c1.8-1.1,3.5-1,5.5-0.5c2.3,0.6,4.5,1.6,6.8,2.4
	l7.2,2.8c-3.7,0.2-7.4-0.2-11-0.5c-1.7-0.2-3.3-0.2-4.9-0.7l0,0c-0.9-0.7-1.7-1-2.7-1.4c-0.9,0.2-2.1,0.6-2.9,0.2l-0.2-0.5
	c0.4-0.6,0.7-0.9,1.2-1.4c-1.5-2.1-2.7-4.5-4.3-6.5C29,294.3,26.7,292.5,26.5,291.3z"/>
<path class="st0" d="M33.7,158.6c1.4-2.3,2.7-4.6,4.3-6.8c3.2-4.3,7.4-8,11.8-11c11.3-7.7,26.9-10.8,40.4-8.2
	c8,1.5,15.8,5.5,20.4,12.5c1.2,1.9,2.4,3.7,1.9,6c0.4,4.5,0.9,9,0.5,13.6c-0.3,3.8-1.5,7.6-1.5,11.3c-0.1,5.7,5.3,13,9,16.9l0.5,0.1
	c1.1,1.1,1.8,2.6,2.6,3.9l-2,1.8l-0.1,0l-1-0.4c-0.5,0.4-0.9,0.8-1.5,0.9c-1.2,1.4-1,4-0.9,5.9l0.1,0.5c-0.9,1.1-1.7,2.2-2.7,3.1
	l3.7,0.7c-0.9,0.9-1.9,1.9-2.5,3l-0.2,0.3c-2,3.7-1.1,9.3-3.9,12.5c-0.9,1.1-2.5,1.7-3.8,2.1c-4.1,1.2-10.3-0.4-14.5-1.2
	c-1.2,1.8-2.3,3.7-3.3,5.6c-0.7,1.3-1.2,3.2-2.2,4.4l-3.4,10.7c-0.3,1-0.8,2.5-0.5,3.5l-0.8,0.6c-2.1-1.4-4.1-3.4-6-5l-8.7-6.9
	c-2.3,3.2-6,6-9,8.6l-7.8,6.8c-8.5,8.1-13.5,17.2-16.7,28.5c-0.9,3.1-1.8,6.4-2.3,9.6c-0.1,1.1-0.4,2.3-0.2,3.3c0.2,1.3,1,2.6,1.1,4
	c-1.9-3.3-4.5-6.8-8.1-8.4c-1.5-0.6-2.7-2.7-3.8-3.9c-1.5-1.7-2.9-3.2-4.9-4.3l-0.2-0.1c4-14.7,14.4-27.1,24.9-37.7
	c3.2-3.2,7.3-6.3,9.6-10.1l-0.2-0.2l-0.5-0.1c-1.7-2.2-2.7-4.9-4-7.3c-3.9-7.3-7.4-14.8-10.5-22.5c-3.8-9.5-6.8-18.7-6.5-29.1
	c0.1-3.7,0.6-7.5,1.6-11.1c0.5-1.8,1.6-4,1.7-5.9L33.7,158.6z"/>
<path class="st1" d="M56.2,229.3c1.1-4.3,2.2-9.4,6.5-11.9c1.2-0.7,2.6-0.7,3.9-0.3c1.8,0.6,3.7,1.5,5.2,2.7
	c3.4,2.5,6.3,6.1,9.3,9.1c2.5,2.5,5.4,4.6,7.8,7.1l-3.4,10.7c-0.3,1-0.8,2.5-0.5,3.5l-0.8,0.6c-2.1-1.4-4.1-3.4-6-5l-8.7-6.9
	L56.2,229.3z"/>
<path class="st1" d="M112.5,151c0.4,4.5,0.9,9,0.5,13.6c-0.3,3.8-1.5,7.6-1.5,11.3c-0.1,5.7,5.3,13,9,16.9l0.5,0.1
	c1.1,1.1,1.8,2.6,2.6,3.9l-2,1.8l-0.1,0l-1-0.4c-0.5,0.4-0.9,0.8-1.5,0.9c-1.2,1.4-1,4-0.9,5.9l0.1,0.5c-0.9,1.1-1.7,2.2-2.7,3.1
	l3.7,0.7c-0.9,0.9-1.9,1.9-2.5,3l-0.2,0.3c-2,3.7-1.1,9.3-3.9,12.5c-0.9,1.1-2.5,1.7-3.8,2.1c-4.1,1.2-10.3-0.4-14.5-1.2
	c-5.7-1.5-11.3-3.4-15.4-7.8c-3.9-4.2-4.6-9-4.4-14.6c0.2-4.5,1.5-8.9,3.1-13c2.7-6.8,6.1-13,11.1-18.4c3.5-3.7,7.5-6.6,11.2-10
	c-1.1,2.1-2,4.4-3.3,6.4c-0.8,1.1-1.8,2.1-2.6,3.2c4.7-3.3,10.3-6.9,13.6-11.6C109.7,157.4,111.1,154.1,112.5,151z"/>
<path class="st6" d="M119,199.1c-1.5,0-4.6,0.3-6-0.3c-0.6-0.3-0.8-0.7-1-1.3c0.3-0.5,0.5-1.2,1.2-1.3c0.3-0.1,1.2,0.1,1.6,0.1
	c2.3,0.2,3.8,0,5.9-1.1l0.3-0.2c0.6,0.1,0.9,0.4,1.4,0.8l0.1,0.5l-2,1.8C120,198.5,119.6,198.9,119,199.1z"/>
<path class="st0" d="M100.4,178.6c0.5-0.1,0.9-0.2,1.4-0.1c0.9,0.2,1.9,0.9,2.3,1.8c0.4,0.8,0.3,1.5,0,2.3c-1.4,1.3-3,1.1-4.8,1.1
	c-1.5-0.4-2.8-1.2-4.2-1.8C96.9,180.9,98.5,179.3,100.4,178.6z"/>
<path class="st0" d="M98.8,170.3c1.2-0.1,2.5-0.3,3.7,0.1c1.8,0.5,3.7,1.5,4.6,3.2l-0.2,0.4l-7-0.5l-5.2,0.8l-2.3,0.4l-0.2-0.4
	c0.5-0.8,1.3-1,2-1.5C95.7,171.6,97,170.9,98.8,170.3z"/>
<path class="st1" d="M109.4,316.4c13.7-2,27.6-1.7,39.1,6.9c8,6,12.2,13.2,13.6,23.1c2.1,14.8-3.7,30.4-10.5,43.3
	c-1.3,2.4-2.5,5.2-4.1,7.4l-0.4,0.5l0.3,0.4c1.6-1.1,3.2-2,5.1-2.6l0.2,0.3c0.3,0.3,0.5,0.4,0.9,0.6c4,1.9,8.2,7.3,9.7,11.5
	c1,2.9,2.1,8.8,0.8,11.7c-0.2,0.5-0.7,1.4-1,1.7c-0.2,0.3-1,1.4-1,1.7c-6.9,7.1-15.8,11.8-23,18.5c-1.1,0.9-1.5,1.4-2.9,1.6l-3,4.2
	c-4.1,6.1-8.4,12.5-13.6,17.7c-1-3.8-2.5-8.1-5.1-11.1c-1-1.2-2.4-2.5-4.1-2.6c-4.5-0.1-4.9,6.4-7.4,8.7l-0.3,0.3l1.6-8.3l-0.3-0.9
	c-0.2-1.4-0.5-4.8-0.2-6.1c0.2-0.6,0.7-1.3,1-1.8l6.5-7.4c1.1-1.3,2.4-3.2,4-3.9c0.5-0.2,0.7-0.4,1.1-0.8l-0.3-1.3
	c-1.6-5.8-5-11.2-9.1-15.5c-1.7-1.8-3.7-3.5-6.2-4c-1.2-0.3-2.7-0.1-3.9-0.2c-3-0.1-5.8-0.6-8.4-2.2c-2.9-1.7-4.1-4.8-4.9-7.8
	c0.2-1,0.8-2.3,1.4-3.1c0.3-0.3,0.4-0.5,0.5-0.9l-0.5-0.2c-0.8-0.2-1.3-0.2-1.8-0.9c-0.4-0.5-0.3-0.9-0.2-1.5
	c0.1-0.4,0.2-0.6,0.1-0.9c-0.1-0.9-0.9-3.3-1.5-4c-0.6-0.8-2.1-1.4-3-1.9c-1-0.5-2-1.2-2.9-1.8c2.2-3.1,4.2-6.2,5.4-9.8
	c-4.6-5.1-12.5-7.3-18.8-9.6c-1.7,0.7-2.6,0.7-4.4,0.3l-0.3-0.1l-2,2.9l-2.4-2.8l-5.9-0.5c1.2-1.1,2.3-2.3,3.9-2.6l0.3,0
	c-0.2-0.4-1.4-0.9-1.8-1.1c-1.1-0.6-1.9-1.2-2.6-2.2l0.5,0.2c3.2,1.3,6.4,3.2,9.8,3.7l1-1.7c1.2-0.8,2.7-1.1,4.1-1.6
	c4.2-1.3,8.2-2.3,12.4-3.2c-1-5.2-0.8-9.9,1.1-14.9c2.9-7.7,9.6-15,16.8-18.9c2.8-1.5,5.7-2.4,8.5-3.8l0.2-0.1l3.6-1.3L109.4,316.4z
	"/>
<path class="st5" d="M132.4,372.4c0.4-0.1,0.3-0.1,0.6-0.1c1.3-0.1,2.6,0.1,3.6,1c1.3,1.2,1.2,2.9,1.4,4.5c-0.6-1.2-1.1-2.8-2.3-3.5
	c-0.7,0.7-0.6,2.3-0.9,3.3c-0.2,0.8-0.7,1.5-1.1,2.1c-1.7,1.8-3.4,2.5-5.8,3.1c0.1-1.8,0.3-3.6,0.9-5.3
	C129.5,375.4,130.4,373.4,132.4,372.4z"/>
<path class="st0" d="M93.2,363.6l0.2,0c2.9-0.3,5.6,2.4,7.7,4.1l0,0.2c-2.3,0.6-3.8,1-5.7,2.5l-0.4,0.3c-0.8,0.6-1.9,1.3-3,1
	c-1.1-0.3-2.5-1.5-2.9-2.5c-0.3-0.7,0-1.2,0.3-1.9C90.2,365.7,91.7,364.1,93.2,363.6z"/>
<path class="st5" d="M116.2,430.8l1.6,10.6c-5.1,1-9.3,3.2-12.3,7.6l-1.5,2.7l-0.3-0.9c-0.2-1.4-0.5-4.8-0.2-6.1
	c0.2-0.6,0.7-1.3,1-1.8l6.5-7.4c1.1-1.3,2.4-3.2,4-3.9C115.6,431.4,115.8,431.2,116.2,430.8z"/>
<path class="st2" d="M147.3,397.9c1.6-1.1,3.2-2,5.1-2.6l0.2,0.3c0.3,0.3,0.5,0.4,0.9,0.6c4,1.9,8.2,7.3,9.7,11.5
	c1,2.9,2.1,8.8,0.8,11.7c-0.2,0.5-0.7,1.4-1,1.7c-0.2,0.3-1,1.4-1,1.7c-6.9,7.1-15.8,11.8-23,18.5c-1.1,0.9-1.5,1.4-2.9,1.6
	c1.7-2.5,4.1-4.8,6.3-6.9c4-3.7,8.3-7,12.7-10.3c2.4-1.8,4.8-3.4,6.9-5.5l0-0.2c0,0-0.2-0.5-0.2-0.5c-0.6-0.7-3.3-1.4-4.2-1.7
	c-1.5-0.6-2.9-1.3-4.4-2.1c-0.1-2.2-1-4.4-1.7-6.4c-0.7-2.2-1.3-4.4-2.1-6.5C148.6,401.2,147.7,399.6,147.3,397.9z"/>
<path class="st5" d="M153.1,415.8c-6.4-2.4-12.8-7.3-18.1-11.5c-3.3-2.6-9.1-7-9.7-11.5c0.1-0.2,0.2-0.4,0.3-0.5
	c0.7-0.5,3.6-0.5,4.6-0.7c1-0.2,2-0.6,2.9-1l0.4-0.2l0.3,0.1c1.4,0.5,3.3-0.1,4.9,0.5c3.4,1.2,5.3,4.9,8.3,6.5l0.3,0.4
	c0.4,1.7,1.3,3.3,2,5c0.8,2.1,1.4,4.4,2.1,6.5C152.1,411.4,153,413.6,153.1,415.8z"/>
<path class="st0" d="M109.4,316.4c13.7-2,27.6-1.7,39.1,6.9c8,6,12.2,13.2,13.6,23.1c2.1,14.8-3.7,30.4-10.5,43.3
	c-1.3,2.4-2.5,5.2-4.1,7.4l-0.4,0.5c-3-1.6-5-5.3-8.3-6.5c-1.6-0.6-3.5,0.1-4.9-0.5l-0.3-0.1c3-2.3,5.3-5.2,6.7-8.7
	c1.2-3,1.9-6.7,0.5-9.7c-0.7-1.6-2.2-2.7-3.8-3.2c-1.9-0.7-3.9-0.5-5.6,0.5c-3.6,1.9-5.3,5.6-6.4,9.3c-1.7-9.3-5.4-19-9.5-27.5
	l-4.4,0.6c-5.7,0.5-10.1,0.1-14.6-3.7l-0.4,0.1c0.2,4.7,5.8,7.7,8.8,10.8c-2.6-1.5-5.1-2.9-8.1-3.7c-2.6-0.7-5.8-0.9-8.2,0.5
	c-3.1,1.9-4.5,5.4-5.4,8.7c-1.3-1.3-2.9-2.4-4.3-3.6c-1.6-1.4-2.9-3-4.3-4.6c-1-5.2-0.8-9.9,1.1-14.9c2.9-7.7,9.6-15,16.8-18.9
	c2.8-1.5,5.7-2.4,8.5-3.8l0.2-0.1l3.6-1.3L109.4,316.4z"/>
<linearGradient id="SVGID_00000081612614248844648950000000101187395109254288_" gradientUnits="userSpaceOnUse" x1="720.5801" y1="-118.9426" x2="467.2442" y2="-76.6396" gradientTransform="matrix(0.6667 0 0 -0.6667 -234.3331 248.3336)">
	<stop  offset="0" style="stop-color:#FFDFD9"/>
	<stop  offset="1" style="stop-color:#FFFFFF"/>
</linearGradient>
<path style="fill:url(#SVGID_00000081612614248844648950000000101187395109254288_);" d="M121,192.9c3.4-5.1,8.6-10.6,13.7-14.1
	c14.4-9.9,33-9.2,49.4-6.2c2.5,0.7,4.9,1.1,7.5,1.2c-2.3,2.4-4.9,4.8-6.9,7.5c2.8,3.2,4.9,6.9,6.5,10.9l2.9,9.6
	c0.5,1.8,1.2,3.5,1.6,5.3c0.5,2.1-0.1,4.3,0.2,6.4c0.2,1.5,1.3,3.2,2.1,4.5c1.9,3,4.3,5.8,6.5,8.5c0.8,0.9,1.5,1.7,2,2.8
	c-0.1,1.4-1,2.4-2.1,3.3c-0.7,0.5-1.8,1-2.2,1.8c1.1,2.4,1.1,5.1,1.9,7.6c0.6,2-0.5,3.9-0.8,5.8c0.8,3.5,2.2,8.7,0,11.9
	c-1.1,1.6-2.4,2.6-4.3,2.9c-1.8,0.3-3.4-0.1-5-0.8c-4.5-0.8-8.6-0.6-12.9-2.4c-0.7,2.8-1.9,5.7-2.2,8.6c0.7,1.3,0.8,2.9,1,4.3
	c0.6,4.1,0.8,8.2,1.1,12.4c0.1,1.6-0.1,3.4,0.5,4.9c1.4,3.7,9.2,17.3,7.9,20.2c-0.6,1.3-2,2.3-2.8,3.5l-1-0.2
	c0.3,6.1,1.5,12,2.4,18.1c0.2,1.3,0.2,3.1,0.6,4.3c0.2,0.6,1.4,1.7,1.8,2.1c1.5,1.6,2.9,3.2,4.2,4.9c3.1,4,5.7,7.9,7.8,12.5
	l9.8,31.6c-5,2.8-8.2,5.8-9.9,11.6c-1.2,4.3-0.7,9.3,1.5,13.2c1.8,3.1,4.6,6,8.1,6.9c1.4,0.4,2.3,0.4,3.7,0l0.6-0.2
	c0.6,1.2,1.1,2.5,1.9,3.7c2.4,3.7,6,6.7,10.1,8l1.3,0.4l-5,23.7c-0.5,2.5-0.9,6.8-2.3,8.9c-2.4,1.1-5.4,1-8,1l4-35.8l0-0.2
	c-0.8,0.8-1.5,1.5-2.5,2.1l-0.3,0.2c0.4,0.9,0.4,1.5,0.3,2.5c-0.2,3.6-1,7.2-1.5,10.8l-2.5,20.8l-10.1,0.6c-0.4-1.3-1.4-2.4-2.2-3.4
	c-4.5-5.5-9.5-10-15.4-13.8c-2.3-1.5-4.9-3.1-7.6-3.3l0.4-0.4l0-4.1c-0.1-0.9,0-1.2-0.7-1.8l-0.1-0.4l-3.4-2.7
	c-1.6-1.4-8.2-7.9-9.7-8l0.2-0.4c-0.2-1.3-0.6-2.6-1.3-3.8c0-0.3,0.8-1.4,1-1.7c0.4-0.3,0.8-1.2,1-1.7c1.3-2.9,0.2-8.8-0.8-11.7
	c-1.5-4.2-5.7-9.6-9.7-11.5c-0.4-0.2-0.6-0.3-0.9-0.6l-0.2-0.3c-1.8,0.6-3.5,1.4-5.1,2.6l-0.3-0.4l0.4-0.5c1.6-2.2,2.8-5,4.1-7.4
	c6.8-12.9,12.6-28.4,10.5-43.3c-1.4-9.9-5.5-17.1-13.6-23.1c-11.5-8.6-25.4-8.8-39.1-6.9l-4.6,1l-3.6,1.3c-0.5-0.8-0.8-1.6-1.2-2.4
	c-2.9-5.4-8.3-6.8-13.6-8.6c0.4-1.1,0.8-1.9,1.4-2.9c-0.6-0.2-1-0.2-1.6-0.2c-1.8-0.1-4.7-0.3-6-1.7c0.3-1.4,1.2-2.6,1.9-3.9
	c1.5-2.8,3.3-5.8,3.7-9c0.2-1.9-0.2-3.5-0.8-5.3c-0.5-1.6-1.2-3.3-1.4-5c-0.3-2.8,0.5-5.5,1.8-8c1.1-2.1,3.6-6,5.9-6.8
	c0.5-0.7,0.9-1.3,1.1-2.1l-8.1-12l0.8-0.6c-0.3-1,0.3-2.5,0.5-3.5l3.4-10.7c0.9-1.1,1.5-3,2.2-4.4c1-1.9,2.1-3.8,3.3-5.6
	c4.1,0.9,10.4,2.4,14.5,1.2c1.3-0.4,2.9-1,3.8-2.1c2.7-3.2,1.9-8.8,3.9-12.5l0.2-0.3c0.6-1.1,1.7-2.1,2.5-3l-3.7-0.7
	c1-0.9,1.9-2.1,2.7-3.1l-0.1-0.5c-0.2-1.9-0.4-4.4,0.9-5.9c0.6-0.2,1-0.6,1.5-0.9l1,0.4l0.1,0l2-1.8
	C122.8,195.4,122.1,194,121,192.9z"/>
<path class="st1" d="M135.8,282.9l0.5-0.1c0.8,0,1,0.4,1.6,0.9c0.3,0.7,0.3,1.4,0,2.1c-0.3,0.7-0.8,1.1-1.5,1.3l-0.4,0
	c-0.7-0.1-1.1-0.3-1.5-0.9c-0.5-0.8-0.4-1.5-0.2-2.3C134.8,283.3,135,283.1,135.8,282.9z"/>
<path class="st0" d="M148.8,304.1l0.4,0c3.6,1.8,6.7,5.1,9.6,7.8c4.3,4,9.2,8.2,12.5,13.1l-5.5-2.8c-7.9-4.2-16.1-7.2-24.9-9
	l0.7-2.6C142.9,307.7,146,305.3,148.8,304.1z"/>
<path class="st2" d="M94.3,226.1c4.1,0.9,10.4,2.4,14.5,1.2c1.3-0.4,2.9-1,3.8-2.1c2.7-3.2,1.9-8.8,3.9-12.5l0.2-0.3
	c7.5,16.2,18.2,30.9,25.1,47.4c0.5,1.3,1.8,3.5,1.7,4.8c-9.8-9.2-21.8-13.6-35.2-10.3c-2,0.5-3.9,1.2-5.8,1.9
	c-0.8,0.3-2.1,1-2.9,1.1c-0.6,0-1.6-0.4-2.1-0.7c-4.1-1.6-8.1-5.8-12.4-6.3c-0.3-1,0.3-2.5,0.5-3.5l3.4-10.7c0.9-1.1,1.5-3,2.2-4.4
	C92,229.8,93.1,227.9,94.3,226.1z"/>
<path class="st10" d="M87.8,304.8c-0.6-0.2-1-0.2-1.6-0.2c-1.8-0.1-4.7-0.3-6-1.7c0.3-1.4,1.2-2.6,1.9-3.9c1.5-2.8,3.3-5.8,3.7-9
	c0.2-1.9-0.2-3.5-0.8-5.3c-0.5-1.6-1.2-3.3-1.4-5c-0.3-2.8,0.5-5.5,1.8-8c1.1-2.1,3.6-6,5.9-6.8l0.2,0.1c1.6,0.6,3.3,0.5,4.9,1.1
	c7.2,2.5,13.1,7.9,16.1,14.9c1.7,4,2.7,9,2.4,13.3c-0.2,2.4-0.8,4.9-1.2,7.3c3.2-3.7,6.3-9.4,11.7-9.9c1-0.1,1.8-0.1,2.5,0.6
	c0.7,0.7,1.1,2.3,1.1,3.2c-0.1,1.9-0.9,3.5-2.4,4.7c-1.9,1.6-4.1,2.9-6.2,4.3c-4.6,3.3-8.1,6.9-11.5,11.3l0.3,0.2l0.1,0.1l-4.6,1
	l-3.6,1.3c-0.5-0.8-0.8-1.6-1.2-2.4c-2.9-5.4-8.3-6.8-13.6-8.6C86.8,306.6,87.2,305.7,87.8,304.8z"/>
<path class="st0" d="M89.5,289.4c3.1-0.5,6.1-0.2,9.1,0.2l0.1,0.4l-0.6,0.5c-0.6,0.2-2,0.9-2.6,0.9c-0.1,0-1.1-0.6-1.3-0.7
	c-0.8-0.4-1.4-0.6-2.2-0.7C91.1,289.9,90.3,289.7,89.5,289.4z"/>
<path class="st0" d="M100.2,284.8l-0.3-0.3c-1.2-1.2-4.3-1.4-6-1.2c-0.9,0.1-1.8,0.5-2.6,0.8c-0.1,0.1-0.9,0.5-1,0.4
	c-0.2,0-0.3-0.2-0.4-0.3c0.5-1.2,1.8-2,3-2.5c1.8-0.7,3.4,0.1,5.1,0.9c1.3,0.6,2.4,1.4,3.4,2.4c1,0.1,2.6,1.8,3.4,2.4l-0.3,0.1
	c-0.9,0.1-2-0.2-2.9-0.2c-1.9-0.2-6.6-0.3-8-1.5c0.2-0.6,0.5-0.9,1.1-1.3C96.2,283.8,98.5,284.4,100.2,284.8z"/>
<path class="st3" d="M87.8,304.8c1.7-1.2,4-0.7,5.9-0.4c3.3,0.6,6.3,2.9,8.2,5.6c1.5,2.3,2,4.9,3,7.4l-3.6,1.3
	c-0.5-0.8-0.8-1.6-1.2-2.4c-2.9-5.4-8.3-6.8-13.6-8.6C86.8,306.6,87.2,305.7,87.8,304.8z"/>
<path class="st11" d="M152.4,395.3c5.2-1.5,13.2-2.3,18.1,0.3c5.2,2.8,6.1,8.9,7.8,14c1.9,5.4,5,9.9,10.4,12.1
	c3.7,1.5,7.3,1.6,11.2,0.8l0.1,0.4c0.6,2.9,2.3,5.8,4.8,7.4c2.2,1.4,5.4,1.6,7.9,1c1-0.2,1.9-0.5,2.9-1c0.4,0.9,0.4,1.5,0.3,2.5
	c-0.2,3.6-1,7.2-1.5,10.8l-2.5,20.8l-10.1,0.6c-0.4-1.3-1.4-2.4-2.2-3.4c-4.5-5.5-9.5-10-15.4-13.8c-2.3-1.5-4.9-3.1-7.6-3.3
	l0.4-0.4l0-4.1c-0.1-0.9,0-1.2-0.7-1.8l-0.1-0.4l-3.4-2.7c-1.6-1.4-8.2-7.9-9.7-8l0.2-0.4c-0.2-1.3-0.6-2.6-1.3-3.8
	c0-0.3,0.8-1.4,1-1.7c0.4-0.3,0.8-1.2,1-1.7c1.3-2.9,0.2-8.8-0.8-11.7c-1.5-4.2-5.7-9.6-9.7-11.5c-0.4-0.2-0.6-0.3-0.9-0.6
	L152.4,395.3z"/>
<path class="st0" d="M121,192.9c3.4-5.1,8.6-10.6,13.7-14.1c14.4-9.9,33-9.2,49.4-6.2c2.5,0.7,4.9,1.1,7.5,1.2
	c-2.3,2.4-4.9,4.8-6.9,7.5c2.8,3.2,4.9,6.9,6.5,10.9l2.9,9.6c0.5,1.8,1.2,3.5,1.6,5.3c0.5,2.1-0.1,4.3,0.2,6.4
	c0.2,1.5,1.3,3.2,2.1,4.5c1.9,3,4.3,5.8,6.5,8.5c0.8,0.9,1.5,1.7,2,2.8c-0.1,1.4-1,2.4-2.1,3.3c-0.7,0.5-1.8,1-2.2,1.8
	c1.1,2.4,1.1,5.1,1.9,7.6c0.6,2-0.5,3.9-0.8,5.8c0.8,3.5,2.2,8.7,0,11.9c-1.1,1.6-2.4,2.6-4.3,2.9c-1.8,0.3-3.4-0.1-5-0.8
	c-4.5-0.8-8.6-0.6-12.9-2.4c-0.7,2.8-1.9,5.7-2.2,8.6c0.7,1.3,0.8,2.9,1,4.3c0.6,4.1,0.8,8.2,1.1,12.4c0.1,1.6-0.1,3.4,0.5,4.9
	c1.4,3.7,9.2,17.3,7.9,20.2c-0.6,1.3-2,2.3-2.8,3.5l-1-0.2c-0.7-0.2-1.9-1-2.6-1.4l-6.6-3.9l-11.9-6.6c-4.5-2.5-9-5.2-13.8-7.1
	l0.7-11.8c-1.4-6.8-3.7-12.4-7.9-17.9c0.1-1.3-1.2-3.6-1.7-4.8c-6.9-16.5-17.6-31.1-25.1-47.4c0.6-1.1,1.7-2.1,2.5-3l-3.7-0.7
	c1-0.9,1.9-2.1,2.7-3.1l-0.1-0.5c-0.2-1.9-0.4-4.4,0.9-5.9c0.6-0.2,1-0.6,1.5-0.9l1,0.4l0.1,0l2-1.8
	C122.8,195.4,122.1,194,121,192.9z"/>
<path class="st3" d="M120.5,198.2l1,0.4c-1.5,2.1-1.5,5.1-3.3,7l-0.1-0.5c-0.2-1.9-0.4-4.4,0.9-5.9
	C119.6,198.9,120,198.5,120.5,198.2z"/>
<path class="st6" d="M181.1,259.6c-5-1.8-10-2.6-14.8-5.3c-3.2-1.8-4.5-4-5.4-7.5c0-0.1-0.3-1.3-0.4-1.4c-0.2-0.2-2.2-0.3-2.7-0.4
	c-1.9-0.4-3.8-1.1-5.5-2.1c-3.5-2.1-7.1-6.2-8-10.3c-0.6-2.5-0.4-5.6,1.1-7.8c1.1-1.6,2.5-2.5,4.4-2.8c6.6-1.2,9.7,5.3,14.2,8.4
	c1.1,0.7,4.6,3,5.6,2.7c4.2,8.8,9.3,16.8,16.8,23.3c2.4,2,5,3.7,7.6,5.5C189.6,261.2,185.4,261.3,181.1,259.6z"/>
<path class="st1" d="M178.9,268.2c0.7,1.3,0.8,2.9,1,4.3c0.6,4.1,0.8,8.2,1.1,12.4c0.1,1.6-0.1,3.4,0.5,4.9
	c1.4,3.7,9.2,17.3,7.9,20.2c-0.6,1.3-2,2.3-2.8,3.5l-1-0.2c-0.7-0.2-1.9-1-2.6-1.4l-6.6-3.9l-11.9-6.6c-4.5-2.5-9-5.2-13.8-7.1
	l0.7-11.8c3.3,1.2,6.3,2.8,9.4,4.3c4.1,2,8,4,11.9,6.5l-6.1-11.6c0.9-0.1,1.8-0.1,2.6-0.5C173.6,279.4,177.1,272.4,178.9,268.2z"/>
<path class="st3" d="M184.6,181.3c2.8,3.2,4.9,6.9,6.5,10.9l2.9,9.6c0.5,1.8,1.2,3.5,1.6,5.3c0.5,2.1-0.1,4.3,0.2,6.4
	c0.2,1.5,1.3,3.2,2.1,4.5c1.9,3,4.3,5.8,6.5,8.5c0.8,0.9,1.5,1.7,2,2.8c-0.1,1.4-1,2.4-2.1,3.3c-0.7,0.5-1.8,1-2.2,1.8
	c1.1,2.4,1.1,5.1,1.9,7.6c0.6,2-0.5,3.9-0.8,5.8c0.8,3.5,2.2,8.7,0,11.9c-1.1,1.6-2.4,2.6-4.3,2.9c-1.8,0.3-3.4-0.1-5-0.8
	c-2.6-1.7-5.2-3.4-7.6-5.5c-7.5-6.4-12.6-14.5-16.8-23.3l-2.7-8.4c-0.6-2-1-4.2-1.9-6.1l-0.1-0.2c1.6-3.1,3.2-6.4,5.3-9.2l0.2-0.3
	l-0.1-0.3c-1.2,0.1-2.3,0.1-3.3-0.8c-1.5-1.4-2.2-4.4-2.3-6.4c-0.1-1.8-0.1-4,0.6-5.7c1.8-4.2,7.6-5.8,11.3-8
	C179.9,186.1,182.2,184.1,184.6,181.3z"/>
<path class="st0" d="M185.7,215.9c0.4-0.1,0.4-0.1,0.8-0.1c0.8,0.1,2.6,0.8,3.1,1.4l-0.3,0.7l-1,0.1c-1-0.3-2-1.1-3.1-0.9l-0.5,0.1
	l-0.2-0.2L185.7,215.9z"/>
<path class="st6" d="M196.8,232.2c0-0.8,0.2-1.6,0.6-2.4c1-1.8,2.5-2.5,4.4-3c-1.3,2-3,3.1-4.2,5.3
	C197,232.3,197.3,232.3,196.8,232.2z"/>
<path class="st0" d="M188.1,209.6c0.7,0,1.5,0.1,2.2,0.3c0.9,0.3,1.5,0.8,1.9,1.6l-0.3,0.3c-3.3-0.9-6.2-0.3-9.4,0.7l-4.2,1.2
	C181.2,211.6,184.5,210,188.1,209.6z"/>
<path class="st1" d="M204.2,242.1c0.6,2-0.5,3.9-0.8,5.8c-2.1-0.6-4.1-0.9-6.3-1l-0.3-0.5c1.5-2.4,5-2.6,7.2-4.2L204.2,242.1z"/>
<path class="st1" d="M204.4,226.6c0.8,0.9,1.5,1.7,2,2.8c-0.1,1.4-1,2.4-2.1,3.3c-0.7,0.5-1.8,1-2.2,1.8c-1.3,0.1-3.5,0.3-4.6-0.5
	c-0.7-0.5-0.8-0.9-0.9-1.8c0.5,0,0.2,0.1,0.8-0.1c1.1-2.2,2.9-3.3,4.2-5.3C202.6,226.6,203.5,226.6,204.4,226.6z"/>
<linearGradient id="SVGID_00000144298903729845947240000003094830803905902777_" gradientUnits="userSpaceOnUse" x1="829.2792" y1="267.9026" x2="839.1672" y2="-139.0264" gradientTransform="matrix(0.6667 0 0 -0.6667 -234.3331 248.3336)">
	<stop  offset="0" style="stop-color:#3A5199"/>
	<stop  offset="1" style="stop-color:#273EA7"/>
</linearGradient>
<path style="fill:url(#SVGID_00000144298903729845947240000003094830803905902777_);" d="M308,70.9c3.3-1.1,7-1.7,10.2,0.1
	c1.8,1,3.2,3,3.8,4.9c0.5,1.5,0.1,3.7,1.5,4.6l0.4,0.2c1.7,0.2,4.9,3.6,6,5l1.1,1.6l0.2,0.4c1,1.5,1.8,3.1,2.5,4.7
	c0.3,0.7,0.7,1.9,1.4,2.3l0.3,0.2l0.2,0.1l5.7,3.7l0.2-0.3c0.3-0.4,0.3-0.9,0.4-1.4c0.3-1.6,1.1-2.5,2.4-3.5
	c7.8-5.5,20.8-1.1,29.3,0.2l16.9,2.7c9.4,1.9,19.8,4.6,28.2,9c0.7,0.4,2,0.9,2.4,1.4l0.2,0.4c0.4,0.8,1.6,1.3,2.4,1.8l4.2,3
	c3.5,2.5,6.5,5.5,10.1,7.9l-0.2,0.3c0.2,0.7,0.6,1.2,1.2,1.7c2.7,2.3,4.4,5.4,6.1,8.5c1.7,3.1,3.5,6.3,4.8,9.6
	c5.7,14.2,5.8,30.3,9.5,45c0.9,3.5,2,7.1,3.3,10.4c1,2.7,2.8,6.1,3.1,8.9c0.2,1.7-1.1,3.5-2.2,4.8c-0.6,0.7-1.2,1.1-2.1,1.5
	l-0.5,0.2c-6.1-5.7-11.3-11.5-14.8-19.1c-0.4,3.7-0.8,7.2-2,10.8c-2.3,6.8-7.2,12.6-11,18.6c-1.8,2.8-3.7,5.8-4.7,8.9l-16.1-22.6
	c-0.9,9.6-9.2,16.1-16.1,21.9c-2.3,1.9-4.6,3.7-6.6,5.8c-1.5,1.5-2.9,3.4-4.5,4.7c-0.4,0.3-0.9,0.4-1.4,0.5
	c1.2,5.6,0.7,11.7,2.5,17.3c1.9,5.8,5.7,10.9,7.6,16.7c-1.4,1.1-2.6,1.5-4.3,2l0.3,5.6c0,0.6-0.1,0.9-0.2,1.4
	c-0.3,1.1-0.6,2.2-0.6,3.4c0,1.4-0.8,2.6-1.1,4c-0.7,3.1-0.7,6.8-2.1,9.7c-1.3,1-3.2,0.6-4.7,0.4c-2.8-0.3-5.5-1-8.3-1.7
	c-3.6-0.8-7.2-1.6-10.7-2.7l-0.1,19.7c0.7,0.8,1.4,1.4,2.2,2c-2.2,2.3-4.2,4.6-6,7.2c-3.7,5.5-5.8,11.7-7.4,18
	c-2.5,13.4-2.4,28.1,3.5,40.7c0.8,1.6,1.6,3.2,2.6,4.7c0.7,1.1,1.6,2.3,2,3.6c0.4,1.3,0.5,3,0.6,4.4c0.3,4.1-0.1,8-0.9,12
	c-0.9,4.3-2.4,9.3-5,12.9l0.2,0.3c-0.5,1.4-1.5,2.3-2.6,3.3c-3,3-6.6,5-10.4,6.8c-1.4,0.5-2.4,1.5-3,2.8c-0.7,1.6-1.4,4.1-1.5,5.8
	c-4.1-0.2-8.2,1.6-12,3c-14.2,5.2-28.4,12.1-41.1,20.3c-3.5,2.2-6.9,4.9-9.9,7.7c-1.2,1.1-2.4,2.4-3.3,3.7l-0.5,0.1
	c0.4,5.5,0.7,10.9,0.6,16.5l-0.4,9.3c0,0.6-0.2,1.8,0,2.3c-0.1,0.7,0,1.2-0.4,1.8c-4.8-2.5-9.7-4.9-14.1-8
	c-4.7-3.3-8.8-7.5-12.9-11.6l-11.3-11.8l-9.1-10.8c1.4-2.1,1.8-6.4,2.3-8.9l5-23.7l-1.3-0.4c-4.2-1.3-7.8-4.3-10.1-8
	c-0.8-1.2-1.2-2.4-1.9-3.7l-0.6,0.2c-1.3,0.4-2.3,0.4-3.7,0c-3.6-0.9-6.4-3.8-8.1-6.9c-2.2-3.9-2.8-8.9-1.5-13.2
	c1.6-5.8,4.8-8.7,9.9-11.6l-9.8-31.6c-2.1-4.6-4.7-8.6-7.8-12.5c-1.3-1.7-2.8-3.3-4.2-4.9c-0.4-0.5-1.6-1.5-1.8-2.1
	c-0.4-1.1-0.4-3-0.6-4.3c-1-6.1-2.1-11.9-2.4-18.1l1,0.2c0.8-1.2,2.3-2.2,2.8-3.5c1.3-3-6.5-16.5-7.9-20.2c-0.5-1.5-0.4-3.3-0.5-4.9
	c-0.2-4.2-0.4-8.2-1.1-12.4c-0.2-1.4-0.3-3-1-4.3c0.3-2.9,1.5-5.8,2.2-8.6c4.3,1.7,8.5,1.6,12.9,2.4c1.6,0.7,3.2,1.2,5,0.8
	c1.9-0.3,3.3-1.3,4.3-2.9c2.1-3.2,0.8-8.4,0-11.9c0.3-1.9,1.3-3.9,0.8-5.8c-0.8-2.5-0.8-5.2-1.9-7.6c0.3-0.8,1.5-1.3,2.2-1.8
	c1.1-0.9,1.9-1.9,2.1-3.3c-0.5-1.1-1.3-1.9-2-2.8c-2.3-2.7-4.6-5.5-6.5-8.5c-0.8-1.3-1.8-3-2.1-4.5c-0.3-2.1,0.3-4.2-0.2-6.4
	c-0.4-1.8-1.1-3.6-1.6-5.3l-2.9-9.6c9.9,0.8,20.2,0,30.2-0.5c8-0.4,16.3-0.6,24.1-2.2c4.7-0.9,9.5-2.5,14-4.3
	c2.7-1.1,5.3-2.5,7.9-3.8c5-2.5,11.7-5.3,14.1-10.7l0.2-0.4c0.7-1.6,0.4-3.3,0.2-5c0.8-0.4,1.7-0.4,2.6-0.6c1.6-0.9,2.8-2.1,3.8-3.6
	c2.2-3.2,2.8-7.8,2-11.5c-0.5-2.6-1.9-5-4.2-6.4c-1.3-0.7-3.2-1.2-4.6-0.8c-2.3,0.7-3.3,2.5-4.3,4.5c-0.2-3-0.9-5.5-1.9-8.3
	c1.7-2.3-0.3-14.8-0.4-18c0-2.9,0.4-5.8,0.6-8.7c0-0.7,0.4-2.6,0.2-3.2c-0.1-0.2-0.7-0.7-0.9-0.9l-2.2-2.5c0.7,0,1.3,0,2,0.2
	l0.5,0.1c0.2-0.1,0.4,0,0.5-0.2c0.3-0.4,0.6-1.6,0.8-2c0.7-1.7,1.4-3.4,2.5-4.8c1.2-1.7,2.9-2.9,4.6-4c0.8-0.5,2.1-1.1,2.7-1.8
	c0.3-0.3,0.6-1.5,0.8-2c1.4-3.2,3.6-6,6.7-7.7c0.4-0.2,0.7-0.4,1-0.7l0.3-0.3c1.6,0.2,3.1,0.6,4.6,1l0-0.9c0-1.3,0.1-2.2,1-3.2
	c1.2-0.4,2.8,0.1,4,0.2l-0.2-4.5C305.4,73.1,306.5,72.1,308,70.9z"/>
<path class="st13" d="M381.5,181.4l-0.4-0.5c-0.3-1.6-0.5-3.9,0-5.5l1-0.2l0.1,6.3L381.5,181.4z"/>
<path class="st1" d="M341.9,177.1c0.5-0.2,0.2-0.1,0.8-0.1c0.1,0.4,0.3,1.1,0.5,1.4c0.4,0.6,1.1,0.7,1.4,1.5c-0.6,0.3-1.4,0.5-1.9,1
	l-0.8,0.8l-0.2-0.5c-0.7-0.3-1.2-0.3-1.9-0.2c-0.4,0-0.2,0.1-0.6-0.2l0.6-1.4c-0.1-0.5-0.3-0.7-0.6-1.1l-0.3-0.4l0.3-0.2l0.9,0.2
	C340.9,178,341.2,177.6,341.9,177.1z"/>
<path class="st0" d="M384.5,163.3c-0.6,3.9-3.7,7.2-5.4,10.6l-0.8,0.1c-0.7-0.4-0.8-0.4-1-1.2c0.7-1.7,2.3-3.3,3.4-4.7
	C381.8,166.6,382.9,164.3,384.5,163.3z"/>
<path class="st6" d="M323.9,80.7c1.7,0.2,4.9,3.6,6,5l1.1,1.6l0.2,0.4c1,1.5,1.8,3.1,2.5,4.7c0.3,0.7,0.7,1.9,1.4,2.3l0.3,0.2
	l0.2,0.1c-0.7,0.9,0.7,4.7,0.8,6.1c0.1,1.6-0.2,3.2-0.8,4.7c-1.8,5.2-5.7,7.4-10.4,9.6c-0.5-4.6-1.8-9.3-4.6-13.2
	c-1.1-1.5-2.5-2.7-3.8-4c0.2-1.8,0.4-3.7,0.4-5.6c0-0.9-0.1-2.1,0.1-3c0.1-0.7,1.3-1.9,1.8-2.5c1.4-1.8,3-3.7,3.7-5.8
	C323.2,81,323.6,80.9,323.9,80.7z"/>
<path class="st0" d="M259.4,185.3c2.7-1.1,5.3-2.5,7.9-3.8c5-2.5,11.7-5.3,14.1-10.7l0.2-0.4c0.7-1.6,0.4-3.3,0.2-5
	c0.8-0.4,1.7-0.4,2.6-0.6c0.8,1,2.4,1.3,3.6,1.5l4.4,0.3l7.9,12.2l-2,1.5c-10.9,6.1-21.7,14.5-34.9,14.3c-0.3-3.5-0.8-5.9-2.9-8.8
	L259.4,185.3z"/>
<path class="st0" d="M325.3,122.4l2,1.1c3.9,2.4,7.1,8.6,8.1,13c1.2,5.3-0.1,11-3,15.6c-5.4,8.5-17.4,11.8-26.7,13.9
	c-3.4,0.6-6.7,0.8-10.1,0.7l1.8-0.7c3.3-1.3,6.3-3.7,8.9-6.1c8.3-7.6,15.4-17.3,18.1-28.5C324.9,128.4,325.1,125.5,325.3,122.4z"/>
<path class="st0" d="M245,307.4c-1-3.4-3.3-7.1-5.1-10.1c-2.6-4.2-5.7-8.4-8.9-12.2c-6.6-7.7-14.1-14.8-17.5-24.6
	c-1.4-4-2-8.3-2.3-12.5c-1-11.3,2.3-23.9,9.7-32.7c6.2-7.3,15.7-12.2,25.3-12.9c1.8-0.1,8.3-0.6,9.5,0.5c-7.4,7.2-15.5,14.5-21,23.3
	c-3.8,6.2-6.4,14.4-7.1,21.7c-0.7,3.6-1.8,10.3,0.4,13.5c0.7,1,1.6,1.6,2.9,1.8l0.4,0c0.2,4.5,1.6,8.4,5,11.5
	c3.7,3.3,8.4,4.4,13.3,4.2c-1.5,1-3,1.9-4.7,2.6L245,307.4z"/>
<linearGradient id="SVGID_00000163784043454110597530000013825699668936310915_" gradientUnits="userSpaceOnUse" x1="929.1896" y1="107.399" x2="998.7166" y2="201" gradientTransform="matrix(0.6667 0 0 -0.6667 -234.3331 248.3336)">
	<stop  offset="0" style="stop-color:#0F0A4E"/>
	<stop  offset="1" style="stop-color:#4C59AD"/>
</linearGradient>
<path style="fill:url(#SVGID_00000163784043454110597530000013825699668936310915_);" d="M341.5,98.5l0.2-0.3
	c0.3-0.4,0.3-0.9,0.4-1.4c0.3-1.6,1.1-2.5,2.4-3.5c7.8-5.5,20.8-1.1,29.3,0.2l16.9,2.7c9.4,1.9,19.8,4.6,28.2,9
	c0.7,0.4,2,0.9,2.4,1.4l0.2,0.4c0.4,0.8,1.6,1.3,2.4,1.8l4.2,3c3.5,2.5,6.5,5.5,10.1,7.9l-0.2,0.3c0.2,0.7,0.6,1.2,1.2,1.7
	c2.7,2.3,4.4,5.4,6.1,8.5c1.7,3.1,3.5,6.3,4.8,9.6c5.7,14.2,5.8,30.3,9.5,45c0.9,3.5,2,7.1,3.3,10.4c1,2.7,2.8,6.1,3.1,8.9
	c0.2,1.7-1.1,3.5-2.2,4.8c-0.6,0.7-1.2,1.1-2.1,1.5l-0.5,0.2c-6.1-5.7-11.3-11.5-14.8-19.1c-0.9-2.5-1.5-5.2-2.1-7.8
	c-0.8-3.7-1.5-7.6-1.5-11.4c0-4.3,0.7-8.5,1.5-12.7c0.9-2.1,0.5-5.7,0.6-8c0.3-1,0.1-2.5,0.1-3.5c-0.1-4.6-0.4-9.6-2-13.9
	c-2.1-5.9-6.5-9.8-12.1-12.5c-8-3.7-16.9-2.9-25,0c-2.8,3.5-5.1,6.8-6.1,11.2c-0.6,2.7-0.7,5.4-0.9,8.2c-2.4-1.9-5.6-2.4-8.6-2.1
	c-2.5,0.2-5.2,1.9-6.7,3.8c-1.8,2.3-1.2,4.6-2.3,6.9c-0.3-2.4,0-4.9,0.3-7.3c-0.3-0.3-0.6-0.6-1-0.8c-1.2-0.2-2.4,0.9-3.5,1.4
	c-2.2,1.1-4.7,2.1-7,2.9c-7.3,2.5-17.9,5.1-25.2,1.3c-3.8-1.9-5.7-6.6-7-10.4l8-2.4c0.8,0.2,0.9,0.7,1.4,1.4l0.5-0.1
	c0.3-1.5-0.9-2.8-0.3-4.2c0.9-2.2,1.9-4,3.6-5.7c1.5-1.5,3.1-2.7,4.9-3.7c0.4-0.2,1-0.7,1.4-0.8c0.7-0.2,1.9,0,2.6,0l10.8,0
	l-0.2-0.3l-2.1,0c-0.4,0-0.7,0.1-1.2,0c-0.7-0.1-1.6,0.1-2.4,0.1l-5-0.1l-1.8,0c0.6-0.7,1-1,1-2c0-0.8-0.2-1.6-0.8-2.2l-0.2-0.2
	c-0.6-0.6-1.3-1.1-2-1.6l-0.2-0.1l0.4-0.2l0-0.3c-3.7,0.6-6.2-1.7-10,0.3l-0.2,0.1l-0.3-6.9c0-1.2,0.1-2.7-0.3-3.8l-0.1-0.4
	C345,102,342.1,100.9,341.5,98.5z"/>
<path class="st4" d="M381.9,142.7c0.8-3.1,1.8-5.8,3.7-8.4c4.2-5.9,13.5-11.3,20.6-12.4c-2.8,3.5-5.1,6.8-6.1,11.2
	c-0.6,2.7-0.7,5.4-0.9,8.2c-2.4-1.9-5.6-2.4-8.6-2.1c-2.5,0.2-5.2,1.9-6.7,3.8c-1.8,2.3-1.2,4.6-2.3,6.9
	C381.3,147.5,381.5,145.1,381.9,142.7z"/>
<path class="st0" d="M353.5,213.3l9.3-5.2l0.4-0.2c2-1,3.7-1.3,6-1.2c0.6,0.1,1.3,0.1,1.9,0.3c1.8,0,4.7-0.4,6.1,1
	c0.6,0.6,0.7,1.2,0.9,1.9c0.8,1.1,2.2,3.1,3.3,3.7c1.6,0.8,2.9,2.1,4.3,3.2c1.8,1.4,4.5,2.9,6.7,3.7l-0.3,0.3
	c-1.7,1.8-3.7,3-5.5,4.6c-3.1,2.8-2.3,10.5-2.4,14.3l-0.3,0.2c-2.3-2.9-4-6.8-5.8-10.1c-1,0.5-1.8,0.9-2.6,1.7
	c-2.2,2.1-3.8,4.9-5.9,7.1c-4.5,4.7-9.7,8.6-13.6,13.8c-2,2.7-3.6,5.8-4.7,9c-1,2.9-1.5,5.8-1.4,8.8l-0.3-0.2
	c-3.7-2.5-9.2-5.2-13.8-4.3c-2.5,0.5-4.8,1.7-6.3,3.9c-0.7,1-1,2-1.2,3.2c1.2,4.7,4,8.2,7.7,11.4c2.2,1.5,4.2,2.7,6.6,3.8
	c2.2,1,19.6,7.2,20.1,8.1l-0.1,19.7c0.7,0.8,1.4,1.4,2.2,2c-2.2,2.3-4.2,4.6-6,7.2c-3.7,5.5-5.8,11.7-7.4,18c-1-1.1-2.6-1.9-3.9-2.5
	c-6.3-3.3-13.2-5.4-20.3-6c-6-0.5-11.8,1.6-16.4,5.4c-2.9,2.5-4.5,5.2-6.2,8.5c-0.5-1.1-1.3-2.4-1.6-3.6c-0.7-1.1-1.5-2-2.3-3
	c0-0.6,0-1.2,0-1.8c-0.4-4.2,0.2-8.8,0.8-13c0.7-5.2,1.6-10.2,3.6-15.1c0.7-1.7,1.5-3.8,3-4.9c6.5-5.5,13.4-9.6,15.2-18.7
	c1.7-8.6-2.2-16.7-1.8-25.3l0-0.5c-0.7-2-0.7-4.5-0.8-6.6c-0.8-10.7,0.3-20.7,4.8-30.5c3-6.5,7.9-11.1,14.5-13.6
	C344.7,210.8,348.9,211.7,353.5,213.3z"/>
<linearGradient id="SVGID_00000173156650287441110230000007881090531959326907_" gradientUnits="userSpaceOnUse" x1="917.8015" y1="43.3421" x2="905.5742" y2="63.5528" gradientTransform="matrix(0.6667 0 0 -0.6667 -234.3331 248.3336)">
	<stop  offset="0" style="stop-color:#A1A396"/>
	<stop  offset="1" style="stop-color:#495BA2"/>
</linearGradient>
<path style="fill:url(#SVGID_00000173156650287441110230000007881090531959326907_);" d="M371,207c1.8,0,4.7-0.4,6.1,1
	c0.6,0.6,0.7,1.2,0.9,1.9c0.8,1.1,2.2,3.1,3.3,3.7c0,1.4,0.3,3.1-0.8,4.2c-1.2,1.2-3.1,1.5-4.7,1.4c-3.2-0.1-5-1.7-6.9-3.9
	c-1.5-1.7-4.1-3.9-4.2-6.2l0.7-0.4l1.8,0.7c0.9,0.4,2.1,0.6,3.1,0.5l0.2-0.5C370.5,208.6,370.8,207.8,371,207z"/>
<path class="st1" d="M371,207c1.8,0,4.7-0.4,6.1,1c0.6,0.6,0.7,1.2,0.9,1.9c-0.7,1.4-1.1,2-2.7,2.5c-1.6,0.5-2.6,0.2-4-0.5
	c-0.7-0.8-0.8-1.4-1-2.4C370.5,208.6,370.8,207.8,371,207z"/>
<path class="st1" d="M339.8,212.1c4.9-1.3,9.1-0.4,13.7,1.2c2.6,1.9,4.9,2.8,7.9,3.8c-15.6,6.8-30.8,17.2-37.3,33.6
	c-1.6,4-2.3,7.9-2.9,12.2c-0.7-2-0.7-4.5-0.8-6.6c-0.8-10.7,0.3-20.7,4.8-30.5C328.3,219.2,333.2,214.6,339.8,212.1z"/>
<path class="st1" d="M335.8,301c1.6,0.2,4.2,2.6,5.7,3.5l13.4,7.4c2.3,1.2,5.1,3.2,7.5,3.9c0.7,0.8,1.4,1.4,2.2,2
	c-2.2,2.3-4.2,4.6-6,7.2c-3.7,5.5-5.8,11.7-7.4,18c-1-1.1-2.6-1.9-3.9-2.5c-6.3-3.3-13.2-5.4-20.3-6c-6-0.5-11.8,1.6-16.4,5.4
	c-2.9,2.5-4.5,5.2-6.2,8.5c-0.5-1.1-1.3-2.4-1.6-3.6c2.3-3.1,5.6-6,8.5-8.6c4.5-4,9.1-7.9,13.2-12.3c4.1-4.4,7.4-9.8,9.6-15.4
	C335,306.4,335.9,303.6,335.8,301z"/>
<path class="st3" d="M255.7,202.8l0.1-0.1c1-0.7,2.6-0.4,3.8-0.2l0.3,0.4c2.5,0.3,4.9,1,7.3,1.7c7.3,2,14.2,5.3,19,11.4
	c4.3,5.4,6.8,12.4,8.1,19.1l1.6,9.7c1.5,7.3,5.1,13.4,10.9,18.1c0.6,0.6,1.1,1,1.3,1.9c-1.2,2.2-5.8,2.6-7.9,3.8l-0.1,0.6
	c0.2,1.4,0.3,2.9,0.7,4.3c0.3,1.4,1.3,3.1,1.1,4.5l-0.5,0.5c-1.1,1.3-1.5,2-1.5,3.7c0.8,0.5,1.5,1,2.1,1.6c-0.3,0.4-1.3,1.6-1.4,2.1
	c-0.3,2,0.6,5.5,1,7.5l0.1,0.4c0.2,1.2-0.1,2.2-0.8,3.2c-1.7,2.5-5.4,3.6-8.3,4c-3.6,0.6-8,0.9-11.6,0.1l-1-0.1
	c-0.7,2-0.6,4.9-0.7,7.1l-0.4,18.1l0.9,0.9l-0.2,0c-2.2,0.3-4.7-0.6-6.8-1.2c-3.6-1-7.4-2-10.9-3.4c-6.2-2.4-12-5.6-17.7-9
	c0.6-1.7,0.4-4.2,0.4-6l-0.1-25.9c1.7-0.7,3.2-1.6,4.7-2.6c-4.9,0.2-9.5-1-13.3-4.2c-3.5-3.1-4.8-6.9-5-11.5l-0.4,0
	c-1.3-0.2-2.1-0.7-2.9-1.8c-2.2-3.2-1.1-9.9-0.4-13.5c0.7-7.3,3.3-15.5,7.1-21.7C240.2,217.3,248.3,210,255.7,202.8z"/>
<path class="st1" d="M300,282c-2.4-0.2-5.8-0.2-7.9-1.3l9.4-2.4C300.3,279.6,300,280.3,300,282z"/>
<path class="st0" d="M282.3,248.6l0.6-0.1l0.3,0.3c-0.3,0.6-0.5,1.2-0.7,1.9c0.5,1.5,1.7,2.3,3.1,3l0.3,0.2c-2.1,0.7-4,1.3-6.3,1.4
	c-1.7-0.5-3.2-1.3-4.8-2C277.1,251.5,279.4,249.4,282.3,248.6z"/>
<path class="st2" d="M281.7,240.5c1.1-0.2,2.4-0.1,3.5,0c2.1,0.3,5.2,1.5,6.4,3.2c1,1.4,1.5,3.9,1.2,5.7c-0.1,0.7-0.2,0.7-0.7,1.1
	c-0.8-0.6-1.2-1.9-1.6-2.8c-0.5-1-1.2-2.8-2.2-3.3l-0.7-0.3c-3.9-1.9-7.4-1.9-11.5-0.6C277.8,242.2,279.7,241.4,281.7,240.5z"/>
<path class="st16" d="M307,262.7c0.6,0.6,1.1,1,1.3,1.9c-1.2,2.2-5.8,2.6-7.9,3.8l-0.1,0.6c-1.8,1.4-3.7,1.1-5.8,1
	c-0.4-0.5-0.3-0.2-0.4-0.8c-0.2-0.7-0.2-1.6,0-2.3c0.2-0.7,1.1-1.2,1.7-1.6c1.8-1.1,3.9-2.1,6.1-2.3
	C303.4,262.9,305.5,263.5,307,262.7z"/>
<path class="st1" d="M294,269.2l0.2-1.3l0.6-0.1l0.9,0.7c1.1,0.5,3.5,0.2,4.7-0.1l-0.1,0.6c-1.8,1.4-3.7,1.1-5.8,1
	C294,269.6,294.1,269.8,294,269.2z"/>
<path class="st2" d="M242.8,257.5l1.3-0.2c5.4-1,11.5-5.6,15.3-9.4c1.5-1.5,2.6-3.4,4.3-4.6c0.7,0.1,0.7,0.1,1.2,0.7
	c-2,4.5-4.9,8.3-7.3,12.6c-0.5,3.5-0.1,6.5-0.2,9.9c0,1.6-0.3,3.3-0.5,4.9c-0.6,0.3-0.6,0.2-1.2,0c-0.7-0.4-1.4-1.4-2-2
	c-2.2-2.5-4.1-5.3-6.3-7.8C246.2,260,244.6,258.7,242.8,257.5z"/>
<path class="st17" d="M255.8,271.4c0-0.5,0-0.9-0.2-1.3c-0.9-3.5-0.7-7.6,0.5-11.1l0.2-0.4c0.3-1,0.5-1.4,1.4-2
	c-0.5,3.5-0.1,6.5-0.2,9.9c0,1.6-0.3,3.3-0.5,4.9C256.4,271.7,256.4,271.6,255.8,271.4z"/>
<linearGradient id="SVGID_00000136393474739276834790000014517636532731272843_" gradientUnits="userSpaceOnUse" x1="716.0453" y1="-24.6243" x2="733.6833" y2="67.3217" gradientTransform="matrix(0.6667 0 0 -0.6667 -234.3331 248.3336)">
	<stop  offset="0" style="stop-color:#7071B6"/>
	<stop  offset="1" style="stop-color:#8B82C0"/>
</linearGradient>
<path style="fill:url(#SVGID_00000136393474739276834790000014517636532731272843_);" d="M255.7,202.8l0.1-0.1
	c1-0.7,2.6-0.4,3.8-0.2l0.3,0.4c0.5,1.8,3.2,3.4,4.9,4.3c1.4,0.8,3,1.3,4.4,2.2l-0.2,0.2c-2.2,2.5-3.5,4.9-3.3,8.3
	c0.1,1.9,0.7,3.8,1.2,5.7c1.3,5.2,1.3,9.4,0.1,14.6c-0.5,2-1.2,4-2,5.9c-0.5-0.5-0.5-0.6-1.2-0.7c-1.7,1.2-2.9,3.1-4.3,4.6
	c-3.8,3.8-9.9,8.4-15.3,9.4l-1.3,0.2c-2.3-1-4.8-2-7.4-1c-1.5,0.6-2.7,1.9-3.4,3.4c-0.4,1.1-0.7,2.2-0.8,3.3l-0.4,0
	c-1.3-0.2-2.1-0.7-2.9-1.8c-2.2-3.2-1.1-9.9-0.4-13.5c0.7-7.3,3.3-15.5,7.1-21.7C240.2,217.3,248.3,210,255.7,202.8z"/>
<path class="st2" d="M255.7,202.8l0.1-0.1c1-0.7,2.6-0.4,3.8-0.2l0,0.4c-0.1,0.8-0.1,1.4,0.1,2.2c0.2,0.9,0.1,2.3,0.1,3.3
	c-0.2,6.3-2.1,12.2-5.5,17.4c-5.4,8.3-14.2,13.1-22.2,18.5c-1.6,1.1-2.9,2.4-4.5,3.5c0.7-7.3,3.3-15.5,7.1-21.7
	C240.2,217.3,248.3,210,255.7,202.8z"/>
<path class="st1" d="M231.3,263.1c0.2-1.1,0.4-2.3,0.8-3.3c0.6-1.5,1.8-2.8,3.4-3.4c2.5-1,5,0,7.4,1c1.8,1.2,3.3,2.5,4.7,4.1
	c2.2,2.5,4,5.3,6.3,7.8c0.6,0.6,1.3,1.6,2,2c0.6,0.2,0.6,0.2,1.2,0c0.8,0.9,1.8,1.8,3.1,2c0.5,0.1,0.4,0,0.8-0.1
	c1.3-3,4.9-6.3,8-7.5c2.3-0.9,4.3-0.7,6.5,0.3c4.3,1.9,6.9,6.9,8.4,11.1c1.5,4.4,2.7,9.6,2.7,14.3c0,1.7-0.1,3.3-0.9,4.9
	c-0.8,1.4-2,2.6-3.4,3.4l-1.1,1.2l-1-0.1c-0.7,2-0.6,4.9-0.7,7.1l-0.4,18.1l0.9,0.9l-0.2,0c-2.2,0.3-4.7-0.6-6.8-1.2
	c-3.6-1-7.4-2-10.9-3.4c-6.2-2.4-12-5.6-17.7-9c0.6-1.7,0.4-4.2,0.4-6l-0.1-25.9c1.7-0.7,3.2-1.6,4.7-2.6c-4.9,0.2-9.5-1-13.3-4.2
	C232.8,271.5,231.5,267.7,231.3,263.1z"/>
<path class="st0" d="M240.8,267.4c1.1,0.3,2.5,1.2,3.6,1.7l4.8,1.6l0.1,0.5c-0.2,0.1-0.3,0.1-0.6,0.1c-2.9,0-6-1.3-8.1-3.3
	L240.8,267.4z"/>
<path class="st6" d="M279.1,326.1c-0.8,0-1.3-0.5-1.9-1c-2.4-1.9-4.6-4.3-6.7-6.4c-8.6-8.6-12-15-13.3-27c4.3,4.1,11,7.7,17,8.6
	l6.1,0.6c-0.7,2-0.6,4.9-0.7,7.1L279.1,326.1z"/>
<path class="st1" d="M406.2,121.9c8.1-2.9,17-3.7,25,0c5.6,2.6,10,6.6,12.1,12.5c1.6,4.3,1.8,9.3,2,13.9c0,1.1,0.2,2.5-0.1,3.5
	c-0.1,2.3,0.3,5.9-0.6,8c-0.8,4.2-1.5,8.4-1.5,12.7c0,3.8,0.7,7.7,1.5,11.4c0.6,2.6,1.1,5.3,2.1,7.8c-0.4,3.7-0.8,7.2-2,10.8
	c-2.3,6.8-7.2,12.6-11,18.6c-1.8,2.8-3.7,5.8-4.7,8.9l-16.1-22.6c-0.9,9.6-9.2,16.1-16.1,21.9c-2.3,1.9-4.6,3.7-6.6,5.8
	c-1.5,1.5-2.9,3.4-4.5,4.7c-0.4,0.3-0.9,0.4-1.4,0.5c1.2,5.6,0.7,11.7,2.5,17.3c1.9,5.8,5.7,10.9,7.6,16.7c-1.4,1.1-2.6,1.5-4.3,2
	l0.3,5.6c0,0.6-0.1,0.9-0.2,1.4c-0.3,1.1-0.6,2.2-0.6,3.4c0,1.4-0.8,2.6-1.1,4c-0.7,3.1-0.7,6.8-2.1,9.7c-1.3,1-3.2,0.6-4.7,0.4
	c-2.8-0.3-5.5-1-8.3-1.7c-3.6-0.8-7.2-1.6-10.7-2.7c-0.5-0.9-17.8-7.1-20.1-8.1c-2.4-1.1-4.5-2.3-6.6-3.8c-3.7-3.1-6.5-6.6-7.7-11.4
	c0.3-1.2,0.5-2.2,1.2-3.2c1.4-2.2,3.7-3.5,6.3-3.9c4.6-0.9,10.1,1.8,13.8,4.3l0.3,0.2c-0.1-3,0.4-5.9,1.4-8.8c1.1-3.2,2.7-6.3,4.7-9
	c3.9-5.3,9.1-9.1,13.6-13.8c2.1-2.2,3.8-5,5.9-7.1c0.8-0.8,1.6-1.2,2.6-1.7c1.8,3.2,3.5,7.2,5.8,10.1l0.3-0.2
	c0.1-3.8-0.8-11.5,2.4-14.3c1.8-1.6,3.8-2.8,5.5-4.6l0.3-0.3l8.9-11.5c2.1-2.9,4.2-5.9,6.8-8.4c-1.7-0.3-3.7-0.2-5.5-0.2
	c-4.4,0-9.1,0.2-13.5-0.8c-2-0.4-4.2-1.2-5.7-2.7c-2.6-2.6-1.5-5.8-0.6-8.9c0-0.2,0.4-1.1,0.3-1.1c0-0.2-0.3-0.3-0.5-0.5
	c-1.1-1.2-1.3-1.7-1.3-3.4l0.6-0.4l0.1-0.6l-0.5-0.6l0.7,0.1l-0.1-6.3l0,0l0.3-0.7l-0.3-0.5c-1-0.2-2.1-0.1-3.2-0.1
	c1.7-3.4,4.8-6.7,5.4-10.6c0.1-1.3-0.5-2.6-0.9-3.9c-0.9-2.7-2.3-6.6-2-9.4c1.1-2.4,0.5-4.6,2.3-6.9c1.5-2,4.2-3.6,6.7-3.8
	c3-0.3,6.2,0.2,8.6,2.1c0.2-2.8,0.3-5.4,0.9-8.2C401,128.7,403.3,125.3,406.2,121.9z"/>
<path class="st6" d="M388.2,282.6l0.7-0.1l0.3,0.3c-0.3,0.8-1,1.1-1.4,1.8c-0.4,0.8,0.4,0.7,0.7,1.3c-0.4,0.1-0.3,0.1-0.7,0
	c-1.1-0.4-2.1-0.7-3.3-0.9l-3.9-0.7c2.2-0.9,4.8-0.7,7.2-1.5L388.2,282.6z"/>
<path class="st6" d="M388.5,272.8c1.5-0.1,2.8-0.1,4.2,0.1c0.5,0.5,0.7,0.6,0.7,1.3c-0.7,0.5-2.1,0.3-3,0.3l-0.1,0
	c-0.7,0.4-1.1,0.6-2,0.5c-0.9,0-1.5-0.1-2.1-0.8C386.7,273.4,387.7,273.1,388.5,272.8z"/>
<path class="st0" d="M376.2,253.6c1.4-0.1,2.7,0.2,4.1,0.3c0.4,0,0.5,0,0.9,0.2l-0.5,0.7c-0.3,0.7,0,1.5,0.2,2.2l0.1,0.4l-0.3,0.4
	l-1.4,0.1c-1.9,0.1-3.8,0.2-5.7,0l-0.3-0.4l0.8-0.9l0.2-1.6C374.6,254,375.5,253.9,376.2,253.6z"/>
<path class="st0" d="M421.1,137.9c2-0.9,4.3-2.5,6.4-3c-1.3,1.7-2.8,3.1-4.4,4.5l-2,2.6c-1.2,1.3-3.8,3.1-5.5,3.1l-0.4-0.6
	c-0.3-2.8,0.9-6,1.7-8.8c0.6,1,1.1,1.7,1.9,2.5c0.8,0.2,1.3,0,2.1-0.3L421.1,137.9z"/>
<path class="st2" d="M444.6,159.8c-3.6-0.3-6.7-1.2-10.3-0.5c-1.2,0.2-2.5,0.8-3.7,1.3c4.2-4.6,8.8-6.7,14.5-8.8
	C445.1,154.1,445.4,157.7,444.6,159.8z"/>
<path class="st2" d="M381.5,150c1.1-2.4,0.5-4.6,2.3-6.9c1.5-2,4.2-3.6,6.7-3.8c3-0.3,6.2,0.2,8.6,2.1l4.8,11.2
	c2.3,5.5,4.8,11,9.2,15.1c3.5,3.3,8,5.6,12.4,7.3l12.8,4.2c-5.6,6-12.2,11.3-19.2,15.6c-3.6,2.2-7.3,4-11,5.9
	c-1.7-0.3-3.7-0.2-5.5-0.2c-4.4,0-9.1,0.2-13.5-0.8c-2-0.4-4.2-1.2-5.7-2.7c-2.6-2.6-1.5-5.8-0.6-8.9c0-0.2,0.4-1.1,0.3-1.1
	c0-0.2-0.3-0.3-0.5-0.5c-1.1-1.2-1.3-1.7-1.3-3.4l0.6-0.4l0.1-0.6l-0.5-0.6l0.7,0.1l-0.1-6.3l0,0l0.3-0.7l-0.3-0.5
	c-1-0.2-2.1-0.1-3.2-0.1c1.7-3.4,4.8-6.7,5.4-10.6c0.1-1.3-0.5-2.6-0.9-3.9C382.7,156.7,381.2,152.8,381.5,150z"/>
<path class="st0" d="M389,151.9c1.2-0.4,2.1-0.2,3.3,0.3l0.1,0.4c-1.2,0.5-2.3,0.8-3.4,1.6l-0.3,0.2l-1.6,1.3l-0.3-0.1
	c-0.1-0.3-0.1-0.5-0.1-0.9C387,153.3,388,152.5,389,151.9z"/>
<path class="st0" d="M391.7,155.3c0.7,0,1.7-0.2,2.3,0.2c0,0.1,0,0.3-0.1,0.4c-0.2,0.2-1.9,0.8-2.3,1c-0.9,0.4-1.7,1-2.6,1.6
	c-0.4,0.4-0.5,0.6-1.1,0.7c-0.3-0.8-0.4-1.3-0.3-2.1C388.8,156,390.1,155.6,391.7,155.3z"/>
<path class="st0" d="M181.4,289.8c8.8,5,14.3,13,20,21.2l10.2,15.2l6.2,10.1c0.8-1.6,2.9-2.8,4.2-3.9c7-5.8,14.6-11.9,22.5-16.5
	l0.1-2.6c5.7,3.4,11.5,6.6,17.7,9c3.5,1.4,7.2,2.4,10.9,3.4c2.1,0.6,4.6,1.5,6.8,1.2l0.2,0c0.9,0.6,1.5,1.9,2,2.8
	c3.1,1.3,5.9,1.3,8.6,3.5c3.4,2.8,6.8,5.5,9.7,8.8c0.8,1,1.6,2,2.3,3c0.3,1.2,1.1,2.5,1.6,3.6c1.7-3.3,3.3-6.1,6.2-8.5
	c4.6-3.9,10.4-5.9,16.4-5.4c7.1,0.5,14,2.7,20.3,6c1.3,0.7,2.9,1.4,3.9,2.5c-2.5,13.4-2.4,28.1,3.5,40.7c0.8,1.6,1.6,3.2,2.6,4.7
	c0.7,1.1,1.6,2.3,2,3.6c0.4,1.3,0.5,3,0.6,4.4c0.3,4.1-0.1,8-0.9,12c-0.9,4.3-2.4,9.3-5,12.9l0.2,0.3c-0.5,1.4-1.5,2.3-2.6,3.3
	c-3,3-6.6,5-10.4,6.8c-1.4,0.5-2.4,1.5-3,2.8c-0.7,1.6-1.4,4.1-1.5,5.8c-4.1-0.2-8.2,1.6-12,3c-14.2,5.2-28.4,12.1-41.1,20.3
	c-3.5,2.2-6.9,4.9-9.9,7.7c-1.2,1.1-2.4,2.4-3.3,3.7l-0.5,0.1c0.4,5.5,0.7,10.9,0.6,16.5l-0.4,9.3c0,0.6-0.2,1.8,0,2.3
	c-0.1,0.7,0,1.2-0.4,1.8c-4.8-2.5-9.7-4.9-14.1-8c-4.7-3.3-8.8-7.5-12.9-11.6l-11.3-11.8l-9.1-10.8c1.4-2.1,1.8-6.4,2.3-8.9l5-23.7
	l-1.3-0.4c-4.2-1.3-7.8-4.3-10.1-8c-0.8-1.2-1.2-2.4-1.9-3.7l-0.6,0.2c-1.3,0.4-2.3,0.4-3.7,0c-3.6-0.9-6.4-3.8-8.1-6.9
	c-2.2-3.9-2.8-8.9-1.5-13.2c1.6-5.8,4.8-8.7,9.9-11.6l-9.8-31.6c-2.1-4.6-4.7-8.6-7.8-12.5c-1.3-1.7-2.8-3.3-4.2-4.9
	c-0.4-0.5-1.6-1.5-1.8-2.1c-0.4-1.1-0.4-3-0.6-4.3c-1-6.1-2.1-11.9-2.4-18.1l1,0.2c0.8-1.2,2.3-2.2,2.8-3.5
	C190.6,307,182.8,293.5,181.4,289.8z"/>
<path class="st3" d="M181.4,289.8c8.8,5,14.3,13,20,21.2l10.2,15.2l6.2,10.1c3.1,5.2,6.2,10.6,10.2,15.1c-6.8,4.7-10.3,12.1-11.8,20
	c-0.6,3.4-0.9,7-0.9,10.5c0,0.9,0.3,3.6,0,4.3c-0.1,0.1-0.2,0.2-0.3,0.4l-0.9,0.2c-1.3-1.9-2-4.2-2.7-6.4c-3-8.5-4.5-17.8-8-26.1
	c-0.7-2.7-1.8-5.4-2.7-8.1L194,330c-2.6-5.5-5.3-10.9-7.6-16.5c0.8-1.2,2.3-2.2,2.8-3.5C190.6,307,182.8,293.5,181.4,289.8z"/>
<path class="st3" d="M244.6,313.3c5.7,3.4,11.5,6.6,17.7,9c3.5,1.4,7.2,2.4,10.9,3.4c2.1,0.6,4.6,1.5,6.8,1.2l0.2,0
	c0.9,0.6,1.5,1.9,2,2.8c3.1,1.3,5.9,1.3,8.6,3.5c3.4,2.8,6.8,5.5,9.7,8.8c0.8,1,1.6,2,2.3,3c0.3,1.2,1.1,2.5,1.6,3.6
	c1.7-3.3,3.3-6.1,6.2-8.5c4.6-3.9,10.4-5.9,16.4-5.4c7.1,0.5,14,2.7,20.3,6c1.3,0.7,2.9,1.4,3.9,2.5c-2.5,13.4-2.4,28.1,3.5,40.7
	c0.8,1.6,1.6,3.2,2.6,4.7c0.7,1.1,1.6,2.3,2,3.6c0.4,1.3,0.5,3,0.6,4.4c0.3,4.1-0.1,8-0.9,12c-0.9,4.3-2.4,9.3-5,12.9
	c-4.8-1.8-9.4-6.1-13.1-9.6c-5.4-5.1-10.5-10.4-14.8-16.4c-5-7-9-14.9-13.2-22.3c-2.9-5.1-5.6-10.9-9.4-15.4
	c-5-7-10.4-12.4-18.4-15.8c-13.2-5.6-28.3-6.4-41.6-1.1c-0.7-1.4,1.1-20.8,1.2-24.9L244.6,313.3z"/>
<path class="st6" d="M282.1,329.7c3.1,1.3,5.9,1.3,8.6,3.5c-0.5,2.8-1.7,5.2-3.2,7.5C286,336.9,283.7,333.5,282.1,329.7z"/>
<path class="st1" d="M303.4,357.7c3.8,4.5,6.5,10.3,9.4,15.4c4.2,7.5,8.2,15.3,13.2,22.3c4.3,6.1,9.4,11.4,14.8,16.4
	c3.7,3.5,8.3,7.8,13.1,9.6l0.2,0.3c-0.5,1.4-1.5,2.3-2.6,3.3c-3,3-6.6,5-10.4,6.8c-1.4,0.5-2.4,1.5-3,2.8c-0.7,1.6-1.4,4.1-1.5,5.8
	c-4.1-0.2-8.2,1.6-12,3c-14.2,5.2-28.4,12.1-41.1,20.3c-3.5,2.2-6.9,4.9-9.9,7.7c-1.2,1.1-2.4,2.4-3.3,3.7l-0.5,0.1
	c0.4,5.5,0.7,10.9,0.6,16.5l-0.4,9.3c0,0.6-0.2,1.8,0,2.3c-0.1,0.7,0,1.2-0.4,1.8c-4.8-2.5-9.7-4.9-14.1-8
	c-4.7-3.3-8.8-7.5-12.9-11.6l-11.3-11.8l-9.1-10.8c1.4-2.1,1.8-6.4,2.3-8.9l5-23.7c2.3,0.2,4.9,0.3,7.1,0c5.6-0.8,9.2-3.5,12.5-7.9
	l-3.7-2.2c-4-2.6-7.6-6.3-8.6-11.2c-0.6-3.2-0.4-6.7,1.6-9.4c1.4-1.8,3.5-3.1,5.8-3.3c1.7-0.2,3.5,0.5,4.8,1.6
	c3.4,3,2.3,6.7,2.6,10.6c0.1,1,0.2,1.6,1,2.1c0.6,0.4,1.5,0.4,2.3,0.3c7.3-1.5,6.2-11,7.7-16.7c0.9-3.5,2.7-7.2,4.8-10.2
	c5.2-7.5,13.2-13.4,21.5-17.1c2.5-1.1,5.1-2.2,7.8-2.7c2.7-0.4,5.2-0.1,7.4,1.5c0.3-1.9-0.3-4.7-1-6.5
	C303.1,358.7,303.3,358.3,303.4,357.7z"/>
<path class="st0" d="M243.8,399l0.4,0c1.8-0.2,3.7,0.2,5.1,1.4c0.6,0.5,0.8,0.9,0.8,1.7c-0.9-1-1.9-1.9-3.3-2.1
	c-2-0.2-3.5,1-4.8,2.3c-1.3,2-1.4,4.1-1.4,6.4l-0.3-0.1c-0.2-1.8-0.4-3.9,0-5.6C240.9,401,242.2,400,243.8,399z"/>
<path class="st0" d="M248.6,403.9c0.4,0,0.5,0,0.9,0.1c0.2,1.3-0.3,2.8-0.4,4.1c-0.1,1.9,0.3,4,1.6,5.5l0.2,0.2l-0.1,0.4l-0.8-0.3
	c-0.5-0.4-1.1-0.8-1.5-1.3c-1.6-1.9-2.1-5.2-1.9-7.6C247.2,404.3,247.7,404.1,248.6,403.9z"/>
<path class="st6" d="M311.7,426.8l-0.8,2.2c-3-1-6.6,0.7-9.8-0.4l-2.9-1C302.5,426.5,307.4,426.7,311.7,426.8z"/>
<path class="st0" d="M293,399.7c1.6-1.1,3.4-1.6,5.4-1.2c0.7,0.1,1.4,0.3,1.9,0.9c0.4,0.6,0.5,1.3,0.4,2c-0.1,0.8-0.5,1.3-1.2,1.8
	c-1.4,0.9-3.2,0.7-4.7,0.2l-2.7-0.8c-1.8-0.6-3.6-1-5.5-1.1c2-0.8,4.1-0.9,6-1.7L293,399.7z"/>
<path class="st16" d="M294.2,390.1l5.6,0c-0.5,0.7-2.3,1.4-3,1.8c-3.7,1.9-7.4,3.8-11.4,5c-1.1,0.3-3.6,1.1-4.6,0.5
	c0.1-0.4,0.2-0.7,0.4-1c0.6-0.9,1.9-1.8,2.9-2.4C287.3,392.1,290.6,390.8,294.2,390.1z"/>
<path class="st0" d="M269.3,471.7c-1.4-5.7-3.1-11.1-5.1-16.6c-2-5.3-4.4-10.4-6.1-15.7c-1.6-5.1-2.5-10.5-2.7-15.8
	c0.6,1,0.8,2.2,1.2,3.3c0.7,1.6,1.5,3.2,2.5,4.6c5.6,8.2,15,13.5,24.7,15.4c-1.9,0-2.8,0.2-4.2,1.4l-0.3,0.2
	c-1.3,1.1-2.1,2.7-2.9,4.1c-1.7,3-3.1,6.2-4.1,9.5C271.3,465.3,270.6,468.6,269.3,471.7z"/>
<path class="st2" d="M303.4,357.7c3.8,4.5,6.5,10.3,9.4,15.4c4.2,7.5,8.2,15.3,13.2,22.3c4.3,6.1,9.4,11.4,14.8,16.4
	c3.7,3.5,8.3,7.8,13.1,9.6l0.2,0.3c-0.5,1.4-1.5,2.3-2.6,3.3c-3,3-6.6,5-10.4,6.8c-1.4,0.5-2.4,1.5-3,2.8c-0.7,1.6-1.4,4.1-1.5,5.8
	c-4.1-0.2-8.2,1.6-12,3c-14.2,5.2-28.4,12.1-41.1,20.3c-3.5,2.2-6.9,4.9-9.9,7.7c-1.2,1.1-2.4,2.4-3.3,3.7l-0.5,0.1l-0.5-3.6
	c1.2-3.1,1.9-6.4,2.9-9.6c1.1-3.3,2.5-6.4,4.1-9.5c0.8-1.5,1.6-3,2.9-4.1l0.3-0.2c1.4-1.2,2.4-1.4,4.2-1.4c6,0.9,13.4,1.9,19.4,0.5
	c1.6-0.4,3.8-1.6,4.3-3.3c0.3-1.3-0.1-3-0.3-4.3c-0.3-1.6-0.4-3.3-0.4-4.9c0-0.3-0.1-1.4,0-1.6c0.2-0.4,1.7-1.3,2.1-1.7
	c0.9-0.8,1.5-1.6,2.1-2.6l0.8-2.2l0-0.2c0.1-2.7-0.9-5.3-1.3-8c1.6-1.1,3.4-1.8,5.1-2.8c0.9-0.6,2-1.4,2.2-2.6
	c0.1-0.5,0.1-0.8-0.2-1.3c-0.6-1.1-1.7-2.1-2.6-3c-2.8-3.2-5.9-7.1-6.8-11.3c-0.5-2,0.2-4.8,0.4-6.9c0.6-8,0.3-18-4.2-24.8
	c0.3-1.9-0.3-4.7-1-6.5C303.1,358.7,303.3,358.3,303.4,357.7z"/>
</svg>
