<?xml version="1.0" encoding="UTF-8"?>
<svg id="Calque_2" data-name="Calque 2" xmlns="http://www.w3.org/2000/svg" xmlns:xlink="http://www.w3.org/1999/xlink" viewBox="0 0 512 170.13">
  <defs>
    <style>
      .cls-1 {
        fill: #15616d;
      }

      .cls-1, .cls-2, .cls-3, .cls-4, .cls-5, .cls-6, .cls-7, .cls-8, .cls-9, .cls-10, .cls-11, .cls-12, .cls-13, .cls-14, .cls-15, .cls-16 {
        stroke-width: 0px;
      }

      .cls-2 {
        fill: #b34603;
      }

      .cls-3 {
        fill: url(#Dégradé_sans_nom_3);
      }

      .cls-4 {
        fill: #001524;
      }

      .cls-5 {
        fill: url(#Dégradé_sans_nom_4-2);
      }

      .cls-6 {
        fill: url(#Dégradé_sans_nom_7);
      }

      .cls-7 {
        fill: url(#Dégradé_sans_nom_4);
      }

      .cls-8 {
        fill: #ffc235;
      }

      .cls-9 {
        fill: #6b572b;
      }

      .cls-10 {
        fill: url(#Dégradé_sans_nom_5);
      }

      .cls-11 {
        fill: #ffecd1;
      }

      .cls-12 {
        fill: #ff7d00;
      }

      .cls-13 {
        fill: url(#Dégradé_sans_nom);
      }

      .cls-14 {
        fill: #068c92;
      }

      .cls-15 {
        fill: #26bfc8;
      }

      .cls-16 {
        fill: url(#Dégradé_sans_nom_6);
      }
    </style>
    <linearGradient id="Dégradé_sans_nom" data-name="Dégradé sans nom" x1="1014.35" y1="-209.58" x2="1067.14" y2="-179.74" gradientTransform="translate(-234.67 -9.01) scale(.67 -.67)" gradientUnits="userSpaceOnUse">
      <stop offset="0" stop-color="#11a3b3"/>
      <stop offset="1" stop-color="#22bec8"/>
    </linearGradient>
    <linearGradient id="Dégradé_sans_nom_3" data-name="Dégradé sans nom 3" x1="724.09" y1="-228.9" x2="470.76" y2="-186.6" gradientTransform="translate(-234.67 -9.01) scale(.67 -.67)" gradientUnits="userSpaceOnUse">
      <stop offset="0" stop-color="#ffe7ab"/>
      <stop offset="1" stop-color="#fff"/>
    </linearGradient>
    <linearGradient id="Dégradé_sans_nom_4" data-name="Dégradé sans nom 4" x1="786.24" y1="138.84" x2="796.13" y2="-268.09" gradientTransform="translate(-234.67 -9.01) scale(.67 -.67)" gradientUnits="userSpaceOnUse">
      <stop offset="0" stop-color="#052c41"/>
      <stop offset="1" stop-color="#04475f"/>
    </linearGradient>
    <linearGradient id="Dégradé_sans_nom_4-2" data-name="Dégradé sans nom 4" x1="1029.51" y1="144.75" x2="1039.4" y2="-262.18" xlink:href="#Dégradé_sans_nom_4"/>
    <linearGradient id="Dégradé_sans_nom_5" data-name="Dégradé sans nom 5" x1="1005.78" y1="-77.13" x2="1075.3" y2="16.47" gradientTransform="translate(-234.67 -9.01) scale(.67 -.67)" gradientUnits="userSpaceOnUse">
      <stop offset="0" stop-color="#313034"/>
      <stop offset="1" stop-color="#005272"/>
    </linearGradient>
    <linearGradient id="Dégradé_sans_nom_6" data-name="Dégradé sans nom 6" x1="918.3" y1="-84.67" x2="906.07" y2="-64.46" gradientTransform="translate(-234.67 -9.01) scale(.67 -.67)" gradientUnits="userSpaceOnUse">
      <stop offset="0" stop-color="#6b3c1b"/>
      <stop offset="1" stop-color="#233239"/>
    </linearGradient>
    <linearGradient id="Dégradé_sans_nom_7" data-name="Dégradé sans nom 7" x1="716.7" y1="-152.66" x2="734.34" y2="-60.72" gradientTransform="translate(-234.67 -9.01) scale(.67 -.67)" gradientUnits="userSpaceOnUse">
      <stop offset="0" stop-color="#00667f"/>
      <stop offset="1" stop-color="#017f92"/>
    </linearGradient>
  </defs>
  <g id="Calque_1_-_copie" data-name="Calque 1 - copie">
    <g>
      <path class="cls-4" d="m19.31,147.24c-.93-3.95-2.01-7.99-2.6-12-.44-2.98-1.3-5.98-1.81-8.98l-2.55-20.26c-1.91-20.64-1.52-42.22,2.07-62.66,2.2-12.5,5.76-24.89,10.13-36.79.81-2.19,1.62-4.38,2.47-6.55H0v170.13h26.4c-2.86-7.47-5.26-15.13-7.1-22.88Z"/>
      <path class="cls-4" d="m484.69,2.52c9.74,25.47,13.85,51.63,14.69,78.81.29,9.48.38,19.08-.21,28.55-.52,8.27-1.62,16.55-2.95,24.72-1.74,10.71-4.47,21.19-8.04,31.43-.39,1.13-.81,2.77-1.42,4.1h25.25V0h-28.28c.32.84.65,1.68.97,2.52Z"/>
      <path class="cls-11" d="m120.51,20.73l.47.14c3.43-5.06,8.62-10.61,13.66-14.08,4.95-3.4,10.39-5.56,16.08-6.79h-38.83c-.2,1.29-.35,2.59-.36,3.87-.07,5.67,5.27,12.97,8.99,16.86Z"/>
      <path class="cls-11" d="m183.82,0h-3.4c1.21.19,2.42.4,3.61.62-.08-.51-.02-.44-.21-.62Z"/>
      <path class="cls-12" d="m184.03.62c2.45.69,4.93,1.07,7.48,1.22-2.28,2.41-4.9,4.81-6.88,7.45,2.83,3.25,4.91,6.95,6.55,10.93,9.92.79,20.24.02,30.17-.52,7.97-.43,16.26-.62,24.11-2.15,4.73-.92,9.49-2.55,13.97-4.3,2.71-1.06,5.35-2.5,7.95-3.8,4.6-2.3,10.6-4.86,13.46-9.46h-36.5l-.66,9.83c-.15,1.04-.46,2.35-1.4,2.96-1.12.74-2.48.86-3.76.53-1.56-.41-2.71-1.62-3.44-3.01-1.4-2.66-.52-4.59.29-7.26l-2.4-2.3c.04-.25.09-.5.15-.75h-49.28c.19.18.12.12.21.62Z"/>
      <path class="cls-4" d="m235.35,3.06c-.81,2.66-1.69,4.6-.29,7.26.73,1.39,1.88,2.6,3.44,3.01,1.28.33,2.64.21,3.76-.53.94-.62,1.24-1.92,1.4-2.96l.66-9.83h-11.23c-.06.25-.11.5-.15.75l2.4,2.3Z"/>
      <path class="cls-1" d="m496.22,134.59c1.33-8.17,2.44-16.46,2.95-24.72.59-9.46.5-19.07.21-28.55-.84-27.18-4.95-53.33-14.69-78.81-.32-.84-.64-1.68-.97-2.52h-26.5c.7,4.4,1.47,8.77,2.53,13.04.87,3.49,2.04,7.05,3.3,10.43,1.01,2.69,2.84,6.1,3.14,8.9.19,1.72-1.15,3.49-2.23,4.75-.62.72-1.2,1.11-2.07,1.46l-.46.21,12.89,11.67c4.68,4.23,9.9,8.7,12.96,14.3,1.49,2.72,2.26,5.77,2.38,8.85.26,6.55-1.67,13.7-4.56,19.53-.8,1.62-1.63,3.38-2.81,4.76l-.07.06.03-.42c.14-1.74.78-3.53,1.06-5.27.84-5.26-.08-10.49-3.47-14.68-1.68-2.08-3.82-3.82-5.94-5.42-8.21-6.17-18.84-10.22-29.04-11.17-11.64-1.08-22.73,1.42-31.83,9.09-6.23,5.25-12.64,14.26-13.28,22.63-1.06,13.75-1.98,29.16,2,42.51.93.22,1.69.3,2.65.23,2.41-3.01,5.84-3.11,8.71-5.23,3.98-2.95,5.4-10.99,4.48-15.57-.91-4.56-3.44-8.27-2.48-13.15.83-4.23,2.4-7.46,5.94-10.07,3.3-2.43,7.64-4.22,11.79-3.52,3.89.65,9.08,3.99,11.26,7.27l.25.41c2.22-1.47,3.92-3.62,5.7-5.58,4.34-4.79,9.62-8.86,15.98-10.52,3.28-.86,7.23-1.29,10.25.56,5.22,3.2,5.86,8.35,5.66,13.95-.04,1.13-.29,2.58,0,3.67l.11.4c-.09,2.86.39,6.9-.72,9.55-.61,1.46-3.1,2.8-3.33,3.96-.79,3.83-.22,8.28-.14,12.21.03,1.54.18,3.48-.28,4.97-.16.51-.6,1.07-.98,1.43-.93.86-2.34,1.05-3.56.93-1.04-.1-2.07-.39-3.08-.67-4.4-1-8.7-1.94-12.84.56-2.28,1.38-3.35,3.87-3.9,6.38-.72,3.31-.18,7.06.05,10.42.1,1.47.35,3.02.03,4.47,6.6,4.32,13.77,8.08,20.63,12,2.98,1.71,6.98,3.57,9.93,5.88h2.89c.61-1.33,1.03-2.98,1.42-4.1,3.58-10.24,6.3-20.72,8.04-31.43Z"/>
      <path class="cls-11" d="m446.61,19.67c-.35,3.67-.78,7.24-1.97,10.76-2.32,6.84-7.15,12.57-11.02,18.59-1.78,2.77-3.66,5.79-4.68,8.93l-16.06-22.62c-.88,9.58-9.19,16.12-16.13,21.89-2.26,1.88-4.56,3.73-6.63,5.81-1.47,1.48-2.86,3.37-4.46,4.66-.41.33-.88.43-1.38.53,1.21,5.65.72,11.72,2.48,17.26,1.86,5.84,5.68,10.9,7.59,16.7-1.42,1.07-2.64,1.54-4.34,2.01l.31,5.55c.03.56-.07.85-.23,1.37-.32,1.08-.56,2.23-.59,3.36-.04,1.36-.83,2.64-1.15,3.96-.74,3.13-.72,6.77-2.11,9.69-1.28,1.01-3.17.59-4.72.41-2.79-.32-5.55-1.04-8.28-1.65-3.6-.81-7.2-1.6-10.72-2.7l-.08,19.7c.69.76,1.37,1.41,2.18,2.03,10.33-8.42,23.95-11.96,37.15-10.69-3.98-13.35-3.06-28.75-2-42.51.64-8.37,7.06-17.38,13.28-22.63,9.1-7.67,20.19-10.17,31.83-9.09,10.2.95,20.83,5,29.04,11.17,2.13,1.6,4.26,3.34,5.94,5.42,3.39,4.19,4.31,9.42,3.47,14.68-.28,1.75-.91,3.53-1.06,5.27l-.03.42.07-.06c1.18-1.39,2.01-3.14,2.81-4.76,2.89-5.84,4.81-12.99,4.56-19.53-.12-3.08-.9-6.13-2.38-8.85-3.06-5.6-8.27-10.07-12.96-14.3l-12.89-11.67c-6.07-5.69-11.3-11.48-14.83-19.12Z"/>
      <path class="cls-11" d="m453.31,152.25l-.55-.59c-2.58-5.96-6.57-11.79-7.74-18.25l-.07-.43c-.65-3.67-.1-5.68,1.75-8.88.42-.73,1.01-1.57,1.15-2.41.55-3.22-.34-7.06-.42-10.34-.13-4.95,1.54-10.98,5.12-14.57,2.51-2.52,5.69-3.43,9.17-3.34,2.83.08,5.71,1.46,7.62,3.56,1,1.1,1.81,2.62,2.23,4.06.88,3,.56,6.09,1.12,9.16.61,3.31,2.21,6.72,2,10.13-.26,4.21-1.58,7.24-4.73,10.07,1.01.28,2.04.57,3.08.67,1.22.12,2.62-.07,3.56-.93.39-.36.83-.92.98-1.43.46-1.49.31-3.42.28-4.97-.08-3.93-.64-8.37.14-12.21.24-1.16,2.72-2.5,3.33-3.96,1.11-2.65.63-6.68.72-9.55l-.11-.4c-.29-1.1-.03-2.54,0-3.67.2-5.6-.44-10.75-5.66-13.95-3.02-1.85-6.97-1.42-10.25-.56-6.36,1.67-11.64,5.73-15.98,10.52-1.78,1.96-3.48,4.11-5.7,5.58l-.25-.41c-2.18-3.28-7.37-6.62-11.26-7.27-4.15-.7-8.49,1.09-11.79,3.52-3.54,2.6-5.11,5.84-5.94,10.07-.96,4.88,1.57,8.59,2.48,13.15.91,4.58-.51,12.62-4.48,15.57-2.87,2.12-6.3,2.22-8.71,5.23,4.81,1.17,9.52,2.45,14.03,4.53,8.6,3.97,16.06,10.74,21.01,18.81,1.62,2.64,3.09,5.63,3.57,8.7l.07.45c.11.74.13,1.47.11,2.18h40.67c-2.95-2.3-6.94-4.17-9.93-5.88-6.85-3.92-14.03-7.68-20.63-12Z"/>
      <path class="cls-11" d="m474.7,120.35c.21-3.4-1.4-6.82-2-10.13-.56-3.06-.24-6.16-1.12-9.16-.42-1.43-1.23-2.95-2.23-4.06-1.91-2.1-4.78-3.48-7.62-3.56-3.48-.1-6.66.81-9.17,3.34-3.58,3.6-5.25,9.63-5.12,14.57.08,3.28.97,7.12.42,10.34-.14.84-.73,1.68-1.15,2.41-1.85,3.2-2.4,5.21-1.75,8.88l.07.43c1.17,6.46,5.16,12.29,7.74,18.25l.55.59c.32-1.44.07-3-.03-4.47-.23-3.36-.77-7.1-.05-10.42.55-2.51,1.61-5,3.9-6.38,4.13-2.51,8.44-1.57,12.84-.56,3.15-2.83,4.47-5.85,4.73-10.07Zm-11.07-10.1c-1.71-.57-3.43-1.42-5.17-1.83-1.29-.31-2.69-.25-3.93-.68v-.37s1.13-.61,1.13-.61c2.8-.09,5.18.13,7.44,2.01.51.42,1.22.88,1.28,1.54l-.75-.05Zm1.08-4.84c-1.44.19-2.87-.81-4.13-1.45-1.45-.55-2.9-.97-4.43-1.23-2.36-.4-4.02-.45-5.99.95l-.26.19-.18-.26.44-.93c.86-1.52,3.17-1.94,4.74-2.37,2.36-.32,4.39-.08,6.55,1,1.59.79,2.96,1.97,3.55,3.68l-.29.43Z"/>
      <path class="cls-13" d="m474.7,120.35c.21-3.4-1.4-6.82-2-10.13-.56-3.06-.24-6.16-1.12-9.16-.42-1.43-1.23-2.95-2.23-4.06-1.91-2.1-4.78-3.48-7.62-3.56-3.48-.1-6.66.81-9.17,3.34-3.58,3.6-5.25,9.63-5.12,14.57.08,3.28.97,7.12.42,10.34-.14.84-.73,1.68-1.15,2.41-1.85,3.2-2.4,5.21-1.75,8.88l.07.43c1.17,6.46,5.16,12.29,7.74,18.25l.55.59c.32-1.44.07-3-.03-4.47-.23-3.36-.77-7.1-.05-10.42.55-2.51,1.61-5,3.9-6.38,4.13-2.51,8.44-1.57,12.84-.56,3.15-2.83,4.47-5.85,4.73-10.07Zm-11.07-10.1c-1.71-.57-3.43-1.42-5.17-1.83-1.29-.31-2.69-.25-3.93-.68v-.37s1.13-.61,1.13-.61c2.8-.09,5.18.13,7.44,2.01.51.42,1.22.88,1.28,1.54l-.75-.05Zm1.08-4.84c-1.44.19-2.87-.81-4.13-1.45-1.45-.55-2.9-.97-4.43-1.23-2.36-.4-4.02-.45-5.99.95l-.26.19-.18-.26.44-.93c.86-1.52,3.17-1.94,4.74-2.37,2.36-.32,4.39-.08,6.55,1,1.59.79,2.96,1.97,3.55,3.68l-.29.43Z"/>
      <path class="cls-4" d="m463.09,108.77c-2.26-1.88-4.64-2.1-7.44-2.01l-1.12.61v.37c1.23.43,2.63.37,3.92.68,1.74.42,3.46,1.27,5.17,1.83l.75.05c-.06-.66-.77-1.12-1.28-1.54Z"/>
      <path class="cls-4" d="m461.44,101.31c-2.16-1.08-4.19-1.32-6.55-1-1.57.43-3.88.85-4.74,2.37l-.44.93.18.26.26-.19c1.97-1.4,3.63-1.35,5.99-.95,1.53.26,2.98.67,4.43,1.23,1.26.64,2.69,1.64,4.13,1.45l.29-.43c-.59-1.71-1.96-2.88-3.55-3.68Z"/>
      <path class="cls-4" d="m443.09,167.94l-.07-.45c-.48-3.07-1.95-6.07-3.57-8.7-4.95-8.07-12.41-14.84-21.01-18.81-4.51-2.08-9.22-3.37-14.03-4.53-.96.08-1.71,0-2.65-.23-13.2-1.27-26.82,2.26-37.15,10.69-2.15,2.31-4.24,4.59-6.01,7.21-3.52,5.21-5.59,10.99-7.16,17.01h91.76c.02-.72,0-1.44-.11-2.18Z"/>
      <path class="cls-1" d="m92.43,150.55c2.79-1.51,5.69-2.43,8.53-3.76l.24-.11c-.47-.76-.76-1.65-1.18-2.44-2.93-5.4-8.27-6.83-13.63-8.58.37-1.05.78-1.93,1.39-2.87-.57-.22-1-.2-1.6-.23-1.82-.1-4.68-.26-5.95-1.69.29-1.39,1.18-2.65,1.86-3.88,1.55-2.76,3.34-5.75,3.65-8.97.19-1.93-.25-3.46-.81-5.28-.5-1.62-1.18-3.32-1.39-5-.35-2.8.55-5.53,1.8-8,1.07-2.11,3.63-5.99,5.92-6.75.46-.69.93-1.29,1.07-2.12l-8.14-12c-2.11-1.37-4.07-3.36-6.02-4.98l-8.69-6.89c-2.29,3.24-5.97,5.97-8.95,8.6l-7.77,6.76c-8.47,8.12-13.47,17.24-16.67,28.46-.89,3.13-1.85,6.4-2.3,9.63-.15,1.08-.38,2.26-.22,3.34.19,1.35.99,2.64,1.06,3.95.19.57.35,1.11.68,1.62,1.76-1.08,3.52-.98,5.46-.51,2.32.56,4.54,1.56,6.76,2.44l7.15,2.78c-3.68.2-7.35-.15-11.01-.53-1.65-.17-3.29-.17-4.88-.72-.78.69-1.21,1.83-1.65,2.75.97.55,3.08,1.47,3.61,2.37.23.39.15.41.06.82-2.01,1.51-7.36,1.44-9.87,1.48.4-.85.81-1.72,1.41-2.46,1.47-1.83,3.79-3.58,3.71-6.14v-.24c-.93.16-2.07.58-2.91.2l-.15-.5c.35-.64.68-.94,1.23-1.4-1.54-2.08-2.7-4.5-4.35-6.47-.83-.99-3.17-2.73-3.34-3.91-1.51-.6-2.73-2.67-3.81-3.91-1.5-1.71-2.92-3.17-4.91-4.29l-.2-.11c4.01-14.66,14.35-27.13,24.9-37.7,3.17-3.18,7.33-6.27,9.62-10.14l-.22-.2-.52-.11c-1.67-2.19-2.67-4.89-3.98-7.31-3.94-7.32-7.42-14.82-10.49-22.54-3.78-9.5-6.8-18.7-6.55-29.08.03-1.31.14-2.63.28-3.96h-3.62c-.84,2.17-1.66,4.36-2.47,6.55-4.37,11.9-7.94,24.29-10.13,36.79-3.59,20.44-3.98,42.01-2.07,62.66l2.55,20.26c.51,3,1.37,6,1.81,8.98.59,4.01,1.67,8.05,2.6,12,1.83,7.76,4.23,15.41,7.1,22.88h49.01c.08-.24.15-.47.24-.71,2.85-7.68,9.62-15,16.78-18.86Z"/>
      <path class="cls-4" d="m36.04,131.41v.24c.09,2.56-2.23,4.31-3.7,6.14-.59.74-1.01,1.6-1.41,2.46,2.5-.04,7.86.03,9.87-1.48.08-.41.17-.43-.06-.82-.53-.89-2.65-1.82-3.61-2.37.44-.93.87-2.06,1.65-2.75v-.03c-.88-.7-1.66-1.04-2.74-1.39Z"/>
      <path class="cls-12" d="m26.54,119.34c.16,1.18,2.5,2.91,3.34,3.91,1.65,1.97,2.81,4.39,4.35,6.47-.55.46-.88.76-1.23,1.4l.15.5c.85.38,1.99-.04,2.9-.2,1.07.34,1.85.68,2.73,1.39v.03c1.59.56,3.23.55,4.88.72,3.66.37,7.33.72,11.01.53l-7.15-2.78c-2.21-.89-4.43-1.89-6.76-2.44-1.94-.47-3.7-.57-5.46.51-.33-.5-.49-1.05-.68-1.62-1.92-3.29-4.51-6.82-8.09-8.41Z"/>
      <path class="cls-4" d="m36.92,33.04c3.07,7.72,6.55,15.22,10.49,22.54,1.3,2.42,2.31,5.12,3.98,7.31l.52.11.22.2c-2.29,3.87-6.45,6.96-9.62,10.14-10.55,10.57-20.89,23.04-24.9,37.7l.2.11c1.99,1.12,3.41,2.58,4.91,4.29,1.09,1.24,2.3,3.31,3.81,3.91,3.58,1.58,6.16,5.12,8.09,8.41-.08-1.31-.87-2.6-1.06-3.95-.15-1.08.07-2.26.22-3.34.45-3.23,1.4-6.5,2.3-9.63,3.2-11.22,8.2-20.34,16.67-28.46l7.77-6.76c2.98-2.63,6.66-5.37,8.95-8.6l-13.32-9.68c1.13-4.34,2.23-9.44,6.47-11.87,1.17-.67,2.62-.7,3.89-.3,1.84.58,3.67,1.52,5.21,2.67,3.4,2.54,6.25,6.13,9.31,9.09,2.54,2.46,5.39,4.57,7.85,7.13.94-1.12,1.5-3.04,2.17-4.36.99-1.95,2.09-3.79,3.27-5.63-5.66-1.55-11.28-3.44-15.41-7.85-3.95-4.21-4.64-9.02-4.4-14.61.19-4.47,1.52-8.89,3.14-13.02,2.66-6.81,6.1-13.04,11.15-18.39.07-.07.14-.14.2-.2H30.65c-.14,1.33-.25,2.65-.28,3.96-.25,10.37,2.77,19.58,6.55,29.08Z"/>
      <path class="cls-12" d="m85.5,74.76l3.38-10.7c-2.45-2.56-5.31-4.67-7.85-7.13-3.06-2.96-5.91-6.55-9.31-9.09-1.54-1.15-3.37-2.09-5.21-2.67-1.27-.4-2.72-.38-3.89.3-4.24,2.43-5.34,7.52-6.47,11.87l13.32,9.68,8.69,6.89c1.95,1.62,3.91,3.61,6.02,4.98l.8-.64c-.27-1.01.26-2.48.52-3.47Z"/>
      <path class="cls-12" d="m77.65,18.59c-1.62,4.13-2.95,8.56-3.14,13.02-.24,5.59.45,10.4,4.4,14.61,4.13,4.41,9.76,6.3,15.41,7.85,4.14.85,10.39,2.43,14.47,1.21,1.34-.4,2.89-1.04,3.83-2.13,2.75-3.18,1.87-8.8,3.85-12.5l.15-.28c.61-1.14,1.66-2.08,2.54-3.02l-3.73-.74c1.03-.94,1.88-2.05,2.75-3.13l-.07-.52c-.16-1.87-.36-4.44.88-5.88-1.54.04-4.64.31-5.99-.29-.62-.27-.82-.68-.96-1.29.28-.51.54-1.17,1.21-1.29.35-.06,1.17.12,1.55.15,2.3.19,3.84.02,5.9-1.11l.3-.17c.58.08.92.42,1.37.76l.07.53-1.96,1.78.98.37h.06s2.01-1.76,2.01-1.76c-.76-1.33-1.46-2.81-2.56-3.88l-.47-.14c-3.72-3.89-9.06-11.19-8.99-16.86.02-1.28.17-2.57.36-3.87h-6.16c.54.45,1.01.99,1.35,1.62l-.2.35-6.99-.54-5.18.8-2.33.45-.24-.43c.5-.83,1.25-.96,2.02-1.53.35-.26.7-.5,1.04-.72h-6.19c-.07.07-.14.14-.2.2-5.05,5.35-8.49,11.58-11.15,18.39Zm22.71-11.98c.47-.07.95-.16,1.42-.05.94.21,1.9.94,2.35,1.79.42.82.34,1.49.05,2.33-1.41,1.32-3.03,1.1-4.84,1.1-1.47-.37-2.82-1.16-4.16-1.85,1.68-1.03,3.36-2.66,5.18-3.31Z"/>
      <path class="cls-2" d="m122.44,24.37l-.07-.53c-.45-.34-.79-.68-1.37-.76l-.3.17c-2.06,1.14-3.6,1.31-5.9,1.11-.39-.03-1.21-.21-1.55-.15-.66.12-.93.78-1.21,1.29.14.61.34,1.01.96,1.29,1.35.6,4.45.34,5.99.29.59-.18,1.02-.56,1.49-.93l1.96-1.78Z"/>
      <path class="cls-4" d="m104.17,10.68c.29-.83.37-1.51-.05-2.33-.44-.85-1.41-1.57-2.35-1.79-.47-.11-.95-.01-1.42.05-1.83.65-3.51,2.28-5.18,3.31,1.34.69,2.69,1.48,4.16,1.85,1.81,0,3.43.21,4.84-1.1Z"/>
      <path class="cls-4" d="m92.13,2.24l.24.43,2.33-.45,5.18-.8,6.99.54.2-.35c-.34-.63-.8-1.17-1.35-1.62h-10.53c-.34.22-.68.45-1.04.72-.77.57-1.52.7-2.02,1.53Z"/>
      <path class="cls-4" d="m148.5,151.23c-11.51-8.58-25.42-8.83-39.07-6.86l-4.59,1.03-3.64,1.28-.24.11c-2.84,1.33-5.74,2.25-8.53,3.76-7.16,3.86-13.93,11.19-16.78,18.86-.09.24-.16.47-.24.71h85.87c-1.9-7.77-5.93-13.78-12.79-18.89Z"/>
      <path class="cls-1" d="m188.54,163.64c-.42-1.13-.41-3.01-.61-4.27-.96-6.06-2.13-11.94-2.44-18.09-.75-.16-1.94-1.01-2.61-1.39l-6.61-3.86-11.88-6.58c-4.49-2.51-8.98-5.24-13.77-7.13l.73-11.83c-1.37-6.8-3.74-12.38-7.92-17.94-9.79-9.22-21.8-13.62-35.17-10.31-1.98.49-3.87,1.18-5.77,1.92-.77.3-2.11,1.04-2.92,1.07-.58.02-1.57-.44-2.13-.67-4.09-1.64-8.07-5.81-12.44-6.34l-.8.64,8.14,12c-.15.83-.61,1.44-1.07,2.12l.22.09c1.59.65,3.31.54,4.95,1.11,7.22,2.51,13.07,7.91,16.09,14.92,1.73,4.01,2.66,8.95,2.37,13.31-.17,2.43-.77,4.87-1.23,7.26,3.15-3.7,6.25-9.45,11.74-9.94.96-.09,1.78-.07,2.51.62.75.72,1.1,2.25,1.06,3.24-.08,1.95-.92,3.45-2.37,4.71-1.86,1.61-4.15,2.91-6.15,4.34-4.56,3.26-8.06,6.89-11.45,11.33l.33.25.13.13c13.65-1.97,27.56-1.72,39.07,6.86,6.86,5.11,10.89,11.12,12.79,18.89h32.86c-1.21-1.51-2.51-2.93-3.82-4.36-.43-.46-1.56-1.54-1.78-2.12Zm-50.7-49.85c-.33.73-.81,1.06-1.54,1.32l-.42-.04c-.65-.08-1.13-.31-1.49-.89-.49-.78-.42-1.49-.15-2.32.53-.62.79-.76,1.57-1l.47-.06c.8.02,1.03.35,1.55.88.26.74.35,1.36.01,2.11Zm28.02,36.39c-7.93-4.23-16.07-7.15-24.86-8.99l.74-2.58c1.14-2.95,4.28-5.29,7.09-6.5l.4-.02c3.55,1.82,6.66,5.14,9.57,7.85,4.34,4.05,9.18,8.17,12.54,13.09l-5.47-2.84Z"/>
      <path class="cls-3" d="m188.54,163.64c-.42-1.13-.41-3.01-.61-4.27-.96-6.06-2.13-11.94-2.44-18.09-.75-.16-1.94-1.01-2.61-1.39l-6.61-3.86-11.88-6.58c-4.49-2.51-8.98-5.24-13.77-7.13l.73-11.83c-1.37-6.8-3.74-12.38-7.92-17.94-9.79-9.22-21.8-13.62-35.17-10.31-1.98.49-3.87,1.18-5.77,1.92-.77.3-2.11,1.04-2.92,1.07-.58.02-1.57-.44-2.13-.67-4.09-1.64-8.07-5.81-12.44-6.34l-.8.64,8.14,12c-.15.83-.61,1.44-1.07,2.12l.22.09c1.59.65,3.31.54,4.95,1.11,7.22,2.51,13.07,7.91,16.09,14.92,1.73,4.01,2.66,8.95,2.37,13.31-.17,2.43-.77,4.87-1.23,7.26,3.15-3.7,6.25-9.45,11.74-9.94.96-.09,1.78-.07,2.51.62.75.72,1.1,2.25,1.06,3.24-.08,1.95-.92,3.45-2.37,4.71-1.86,1.61-4.15,2.91-6.15,4.34-4.56,3.26-8.06,6.89-11.45,11.33l.33.25.13.13c13.65-1.97,27.56-1.72,39.07,6.86,6.86,5.11,10.89,11.12,12.79,18.89h32.86c-1.21-1.51-2.51-2.93-3.82-4.36-.43-.46-1.56-1.54-1.78-2.12Zm-50.7-49.85c-.33.73-.81,1.06-1.54,1.32l-.42-.04c-.65-.08-1.13-.31-1.49-.89-.49-.78-.42-1.49-.15-2.32.53-.62.79-.76,1.57-1l.47-.06c.8.02,1.03.35,1.55.88.26.74.35,1.36.01,2.11Zm28.02,36.39c-7.93-4.23-16.07-7.15-24.86-8.99l.74-2.58c1.14-2.95,4.28-5.29,7.09-6.5l.4-.02c3.55,1.82,6.66,5.14,9.57,7.85,4.34,4.05,9.18,8.17,12.54,13.09l-5.47-2.84Z"/>
      <path class="cls-12" d="m136.28,110.81l-.47.06c-.78.24-1.04.38-1.57,1-.27.83-.33,1.54.15,2.32.36.58.83.81,1.49.89l.42.04c.73-.26,1.21-.59,1.54-1.32.33-.75.24-1.36-.01-2.11-.52-.53-.75-.86-1.55-.88Z"/>
      <path class="cls-4" d="m158.8,139.95c-2.91-2.71-6.02-6.03-9.57-7.85l-.4.02c-2.8,1.21-5.95,3.55-7.09,6.5l-.74,2.58c8.8,1.84,16.93,4.76,24.86,8.99l5.47,2.84c-3.36-4.92-8.2-9.04-12.54-13.09Z"/>
      <path class="cls-1" d="m116.62,40.37l-.15.28c-1.98,3.7-1.1,9.32-3.85,12.5-.94,1.08-2.49,1.72-3.83,2.13-4.07,1.23-10.33-.35-14.47-1.21-1.18,1.84-2.28,3.68-3.27,5.63-.67,1.32-1.23,3.24-2.17,4.36l-3.38,10.7c-.26.98-.78,2.46-.52,3.47,4.37.53,8.34,4.7,12.44,6.34.55.22,1.55.68,2.13.67.81-.02,2.15-.77,2.92-1.07,1.9-.74,3.79-1.43,5.77-1.92,13.38-3.32,25.39,1.08,35.17,10.31.13-1.35-1.16-3.56-1.7-4.83-6.94-16.49-17.63-31.15-25.1-47.35Z"/>
      <path class="cls-15" d="m85.33,99.74c-1.25,2.47-2.15,5.2-1.8,8,.21,1.68.89,3.39,1.39,5,.56,1.82,1,3.35.81,5.28-.31,3.21-2.1,6.21-3.65,8.97-.69,1.23-1.58,2.49-1.86,3.88,1.28,1.43,4.14,1.59,5.95,1.69.6.03,1.03.02,1.6.23,1.7-1.17,4.01-.71,5.93-.38,3.3.57,6.33,2.85,8.16,5.63,1.51,2.28,1.95,4.88,2.97,7.36l4.59-1.03-.13-.13-.33-.25c3.39-4.45,6.89-8.07,11.45-11.33,2.01-1.44,4.29-2.74,6.15-4.34,1.45-1.26,2.29-2.76,2.37-4.71.04-.99-.31-2.53-1.06-3.24-.73-.7-1.55-.71-2.51-.62-5.48.5-8.58,6.24-11.74,9.94.46-2.39,1.06-4.83,1.23-7.26.3-4.36-.64-9.3-2.37-13.31-3.02-7.02-8.87-12.41-16.09-14.92-1.64-.57-3.35-.46-4.95-1.11l-.22-.09c-2.29.76-4.85,4.64-5.92,6.75Zm7.67,10.04c1.81-.7,3.41.13,5.06.94,1.28.63,2.44,1.38,3.39,2.45.96.08,2.63,1.78,3.39,2.43l-.34.08c-.86.09-2.03-.16-2.9-.24-1.95-.19-6.57-.27-8.03-1.45.2-.59.5-.94,1.05-1.26,1.62-.95,3.9-.33,5.61.05l-.29-.31c-1.23-1.23-4.26-1.39-5.95-1.25-.95.08-1.79.46-2.65.84-.12.06-.92.45-.98.45-.15-.01-.25-.18-.38-.27.51-1.23,1.8-1.99,3-2.46Zm5.63,7.83l.14.38-.64.45c-.6.24-1.96.92-2.56.94-.14,0-1.12-.61-1.31-.7-.76-.38-1.4-.59-2.24-.69-.89-.11-1.67-.32-2.52-.59,3.05-.46,6.09-.2,9.13.21Z"/>
      <path class="cls-4" d="m94.26,118.68c.19.09,1.16.71,1.31.7.59-.02,1.96-.69,2.56-.94l.64-.45-.14-.38c-3.04-.42-6.08-.67-9.13-.21.85.27,1.63.48,2.52.59.85.1,1.48.31,2.24.69Z"/>
      <path class="cls-4" d="m91.35,112.06c.86-.38,1.7-.76,2.65-.84,1.69-.14,4.72.02,5.95,1.25l.29.31c-1.71-.38-3.99-1-5.61-.05-.55.32-.85.67-1.05,1.26,1.46,1.18,6.08,1.26,8.03,1.45.87.08,2.04.33,2.9.24l.34-.08c-.76-.65-2.43-2.35-3.39-2.43-.95-1.07-2.11-1.82-3.39-2.45-1.65-.81-3.25-1.64-5.06-.94-1.2.47-2.49,1.23-3,2.46.13.09.23.25.38.27.05,0,.86-.39.98-.45Z"/>
      <path class="cls-11" d="m93.71,132.41c-1.93-.33-4.24-.79-5.93.38-.61.94-1.02,1.82-1.39,2.87,5.37,1.75,10.71,3.18,13.63,8.58.43.79.71,1.68,1.18,2.44l3.64-1.28c-1.02-2.48-1.47-5.08-2.97-7.36-1.83-2.77-4.86-5.05-8.16-5.63Z"/>
      <path class="cls-4" d="m120.97,20.87c1.11,1.07,1.8,2.55,2.56,3.88l-2.01,1.77h-.06c-1.46,2.12-1.53,5.1-3.28,6.95-.87,1.08-1.71,2.2-2.75,3.13l3.73.74c-.88.94-1.93,1.88-2.54,3.02,7.47,16.21,18.16,30.87,25.1,47.35.54,1.27,1.83,3.48,1.7,4.83,4.18,5.56,6.56,11.13,7.92,17.94,3.27,1.21,6.27,2.76,9.39,4.29,4.15,2.04,8.02,3.95,11.89,6.51l-6.15-11.64c.91-.05,1.79-.12,2.65-.46,4.44-1.76,7.96-8.78,9.79-12.98.33-2.93,1.51-5.76,2.21-8.6-5.03-1.8-10.03-2.56-14.78-5.28-3.16-1.81-4.51-4.03-5.44-7.51-.03-.13-.33-1.32-.42-1.39-.22-.17-2.24-.28-2.66-.36-1.93-.37-3.77-1.06-5.46-2.06-3.54-2.09-7.07-6.21-8.01-10.28-.59-2.53-.42-5.58,1.09-7.76,1.12-1.63,2.49-2.5,4.43-2.83,6.62-1.15,9.7,5.29,14.23,8.37,1.07.73,4.55,2.96,5.6,2.74l-2.71-8.38c-.57-2.03-.97-4.22-1.86-6.14l-.11-.24c1.63-3.06,3.22-6.38,5.25-9.19l.23-.31-.13-.27c-1.23.1-2.3.13-3.26-.75-1.52-1.38-2.15-4.43-2.31-6.41-.14-1.84-.14-3.96.6-5.68,1.83-4.23,7.56-5.8,11.31-7.97,3.16-1.83,5.51-3.87,7.9-6.62,1.99-2.64,4.6-5.05,6.88-7.45-2.54-.15-5.02-.53-7.48-1.22-1.19-.22-2.4-.43-3.61-.62h-29.7c-5.68,1.24-11.13,3.39-16.08,6.79-5.04,3.47-10.22,9.02-13.66,14.08Z"/>
      <path class="cls-11" d="m120.48,26.14c-.48.37-.9.75-1.49.93-1.24,1.45-1.04,4.02-.88,5.88l.07.52c1.75-1.86,1.81-4.83,3.28-6.96l-.98-.37Z"/>
      <path class="cls-2" d="m186.52,84.51c-7.46-6.42-12.56-14.49-16.81-23.27-1.05.22-4.53-2.01-5.6-2.74-4.52-3.08-7.61-9.52-14.23-8.37-1.94.34-3.31,1.21-4.43,2.83-1.51,2.19-1.67,5.23-1.09,7.76.94,4.07,4.47,8.19,8.01,10.28,1.69,1,3.53,1.68,5.46,2.06.43.08,2.45.19,2.66.36.09.07.39,1.27.42,1.39.92,3.47,2.27,5.69,5.44,7.51,4.75,2.72,9.75,3.48,14.78,5.28,4.31,1.73,8.49,1.59,12.95,2.37-2.56-1.75-5.21-3.44-7.56-5.47Z"/>
      <path class="cls-12" d="m179.89,100.56c-.21-1.43-.31-3.05-.97-4.35-1.84,4.2-5.35,11.22-9.79,12.98-.86.34-1.74.41-2.65.46l6.15,11.64c-3.86-2.56-7.74-4.47-11.89-6.51-3.12-1.53-6.12-3.08-9.39-4.29l-.73,11.83c4.79,1.89,9.29,4.62,13.77,7.13l11.88,6.58,6.61,3.86c.67.39,1.86,1.24,2.61,1.39l.97.23c.83-1.17,2.26-2.19,2.83-3.52,1.28-2.96-6.45-16.55-7.89-20.21-.51-1.47-.38-3.3-.46-4.86-.22-4.16-.44-8.24-1.05-12.36Z"/>
      <path class="cls-11" d="m186.52,84.51c2.36,2.03,5,3.72,7.56,5.47,1.63.7,3.24,1.16,5.02.84,1.89-.35,3.27-1.33,4.34-2.92,2.15-3.22.76-8.44-.02-11.94-2.08-.65-4.12-.9-6.29-1l-.32-.46c1.51-2.41,4.98-2.63,7.16-4.22l.21-.16c-.81-2.49-.81-5.25-1.95-7.63-1.28.11-3.5.33-4.6-.49-.73-.54-.76-.91-.86-1.77.02-.85.17-1.61.58-2.37.98-1.76,2.53-2.52,4.4-3.03.84-.27,1.8-.22,2.68-.26-2.26-2.75-4.6-5.54-6.52-8.53-.8-1.25-1.83-3.01-2.06-4.48-.32-2.09.31-4.24-.19-6.37-.42-1.79-1.09-3.56-1.61-5.32l-2.87-9.64c-1.64-3.98-3.72-7.68-6.55-10.93-2.39,2.75-4.74,4.79-7.9,6.62-3.75,2.17-9.47,3.74-11.31,7.97-.75,1.72-.75,3.84-.6,5.68.16,1.98.79,5.03,2.31,6.41.97.88,2.04.85,3.26.75l.13.27-.23.31c-2.03,2.81-3.62,6.13-5.25,9.19l.11.24c.89,1.92,1.29,4.1,1.86,6.14l2.71,8.38c4.25,8.78,9.35,16.85,16.81,23.27Zm2.86-38.61l-1,.07c-1.02-.28-2.04-1.08-3.15-.87l-.48.11-.19-.22,1.14-1.13c.35-.08.39-.12.81-.07.81.08,2.6.85,3.15,1.45l-.27.66Zm-11.12-4.23c2.95-2.05,6.27-3.67,9.86-4.09.72.05,1.47.11,2.16.32.91.28,1.52.78,1.94,1.59l-.34.27c-3.31-.91-6.19-.3-9.4.66l-4.22,1.25Z"/>
      <path class="cls-4" d="m185.69,43.87l-1.14,1.13.19.22.48-.11c1.11-.21,2.12.59,3.15.87l1-.07.27-.66c-.54-.6-2.34-1.37-3.15-1.45-.42-.04-.46,0-.81.07Z"/>
      <path class="cls-2" d="m197.59,60.12c1.11-2.23,2.87-3.33,4.15-5.29-1.87.51-3.42,1.27-4.4,3.03-.42.75-.56,1.52-.58,2.37.51.04.23.06.83-.1Z"/>
      <path class="cls-4" d="m191.87,39.76l.34-.27c-.42-.82-1.03-1.32-1.94-1.59-.69-.21-1.44-.27-2.16-.32-3.59.42-6.91,2.04-9.86,4.09l4.22-1.25c3.22-.96,6.09-1.57,9.4-.66Z"/>
      <path class="cls-12" d="m196.8,74.49l.32.46c2.17.1,4.21.35,6.29,1,.27-1.94,1.33-3.89.76-5.84l-.21.16c-2.18,1.59-5.65,1.81-7.16,4.22Z"/>
      <path class="cls-12" d="m197.59,60.12c-.6.16-.32.14-.83.1.1.86.14,1.23.86,1.77,1.1.82,3.32.6,4.6.49.33-.78,1.49-1.27,2.15-1.8,1.1-.88,1.95-1.87,2.09-3.31-.51-1.09-1.26-1.9-2.05-2.8-.88.03-1.84-.01-2.68.26-1.28,1.96-3.04,3.06-4.15,5.29Z"/>
      <path class="cls-4" d="m298.28,8.19c-10.93,6.08-21.69,14.53-34.89,14.34-.27-3.49-.78-5.89-2.91-8.77l-1.06-.5c-4.48,1.75-9.25,3.37-13.97,4.3-7.85,1.53-16.14,1.72-24.11,2.15-9.93.54-20.25,1.31-30.17.52l2.87,9.64c.53,1.76,1.2,3.53,1.61,5.32.49,2.13-.13,4.28.19,6.37.23,1.48,1.25,3.23,2.06,4.48,1.92,3,4.26,5.79,6.52,8.53.78.9,1.54,1.71,2.05,2.8-.14,1.44-.99,2.43-2.09,3.31-.66.53-1.82,1.02-2.15,1.8,1.13,2.39,1.14,5.14,1.95,7.63.57,1.96-.49,3.9-.76,5.84.78,3.5,2.17,8.73.02,11.94-1.06,1.59-2.45,2.57-4.34,2.92-1.78.32-3.39-.13-5.02-.84-4.46-.78-8.64-.65-12.95-2.37-.71,2.85-1.88,5.68-2.21,8.6.66,1.3.76,2.91.97,4.35.61,4.12.83,8.2,1.05,12.36.08,1.56-.05,3.39.46,4.86,8.78,5,14.35,13.04,19.99,21.16l10.24,15.24,6.15,10.09c.76-1.61,2.86-2.76,4.22-3.89,7.02-5.83,14.62-11.85,22.49-16.48l.06-2.59c.56-1.71.39-4.17.42-5.96-.99-3.38-3.26-7.07-5.13-10.06-2.63-4.2-5.68-8.4-8.9-12.17-6.59-7.71-14.1-14.82-17.51-24.64-1.38-3.97-1.96-8.33-2.32-12.5-.99-11.35,2.29-23.93,9.72-32.7,6.22-7.34,15.71-12.22,25.34-12.94,1.82-.14,8.25-.63,9.53.48l.13-.08c1.03-.7,2.6-.4,3.79-.23l.32.36c2.45.27,4.95.99,7.32,1.66,7.25,2.05,14.24,5.32,19.04,11.37,4.26,5.37,6.83,12.4,8.14,19.06l1.6,9.65c1.52,7.33,5.11,13.36,10.91,18.09.64.64,1.05,1.03,1.25,1.93-1.16,2.24-5.76,2.63-7.87,3.81l-.13.59c.17,1.44.33,2.89.66,4.3.33,1.42,1.27,3.11,1.12,4.54l-.54.47c-1.14,1.3-1.46,1.98-1.46,3.7.77.51,1.47,1.02,2.15,1.64-.29.43-1.29,1.63-1.36,2.07-.32,2.01.63,5.48,1.02,7.5l.09.44c.24,1.18-.15,2.18-.82,3.16-1.75,2.53-5.4,3.59-8.3,4.04-3.6.57-8.05.88-11.61.1l-.96-.1c-.7,2-.57,4.93-.68,7.07l-.42,18.11.94.87c.86.56,1.53,1.89,2.01,2.78,3.08,1.26,5.92,1.28,8.63,3.47,3.39,2.77,6.84,5.47,9.71,8.8.01-.6.04-1.21-.02-1.81-.44-4.24.22-8.77.78-12.97.71-5.23,1.65-10.18,3.61-15.11.68-1.7,1.52-3.76,3.01-4.89,6.51-5.55,13.44-9.56,15.23-18.68,1.69-8.63-2.25-16.66-1.77-25.27l.03-.47c-.72-2-.65-4.49-.81-6.61-.79-10.7.34-20.69,4.85-30.51,2.96-6.45,7.85-11.12,14.51-13.58,4.87-1.31,9.08-.4,13.72,1.2l9.27-5.23.35-.17c2.01-.98,3.73-1.27,5.95-1.18.59.09,1.33.11,1.89.3,1.79-.02,4.71-.42,6.12.97.57.57.72,1.16.86,1.93.81,1.05,2.22,3.06,3.31,3.72,1.6.77,2.94,2.14,4.34,3.24,1.81,1.42,4.5,2.94,6.7,3.66l8.95-11.49c2.12-2.88,4.16-5.95,6.76-8.42-1.73-.35-3.68-.16-5.45-.16-4.45,0-9.13.17-13.48-.77-2.02-.44-4.23-1.23-5.74-2.71-2.61-2.57-1.49-5.81-.6-8.86.04-.15.36-1.06.34-1.14-.05-.24-.33-.34-.5-.52-1.14-1.22-1.31-1.73-1.29-3.44l.64-.35.1-.64-.52-.63-.41-.5c-.29-1.62-.46-3.93,0-5.51l1-.24h.03s.35-.66.35-.66l-.28-.45c-1.04-.16-2.11-.11-3.16-.11l-.81.09c-.67-.42-.76-.42-1.02-1.15.12-.29.28-.58.45-.87h-81.73l4.36,6.73-2.03,1.47Zm40.85-2.53l.88.2c.86.09,1.2-.3,1.86-.75.46-.16.21-.11.76-.11.13.37.28,1.06.5,1.35.43.6,1.09.75,1.44,1.5-.63.27-1.45.52-1.92,1.04l-.77.83-.21-.49c-.69-.32-1.16-.3-1.89-.25-.42.03-.19.08-.62-.25l.58-1.38c-.12-.45-.26-.73-.55-1.09l-.31-.38.25-.24Z"/>
      <path class="cls-7" d="m298.28,8.19c-10.93,6.08-21.69,14.53-34.89,14.34-.27-3.49-.78-5.89-2.91-8.77l-1.06-.5c-4.48,1.75-9.25,3.37-13.97,4.3-7.85,1.53-16.14,1.72-24.11,2.15-9.93.54-20.25,1.31-30.17.52l2.87,9.64c.53,1.76,1.2,3.53,1.61,5.32.49,2.13-.13,4.28.19,6.37.23,1.48,1.25,3.23,2.06,4.48,1.92,3,4.26,5.79,6.52,8.53.78.9,1.54,1.71,2.05,2.8-.14,1.44-.99,2.43-2.09,3.31-.66.53-1.82,1.02-2.15,1.8,1.13,2.39,1.14,5.14,1.95,7.63.57,1.96-.49,3.9-.76,5.84.78,3.5,2.17,8.73.02,11.94-1.06,1.59-2.45,2.57-4.34,2.92-1.78.32-3.39-.13-5.02-.84-4.46-.78-8.64-.65-12.95-2.37-.71,2.85-1.88,5.68-2.21,8.6.66,1.3.76,2.91.97,4.35.61,4.12.83,8.2,1.05,12.36.08,1.56-.05,3.39.46,4.86,8.78,5,14.35,13.04,19.99,21.16l10.24,15.24,6.15,10.09c.76-1.61,2.86-2.76,4.22-3.89,7.02-5.83,14.62-11.85,22.49-16.48l.06-2.59c.56-1.71.39-4.17.42-5.96-.99-3.38-3.26-7.07-5.13-10.06-2.63-4.2-5.68-8.4-8.9-12.17-6.59-7.71-14.1-14.82-17.51-24.64-1.38-3.97-1.96-8.33-2.32-12.5-.99-11.35,2.29-23.93,9.72-32.7,6.22-7.34,15.71-12.22,25.34-12.94,1.82-.14,8.25-.63,9.53.48l.13-.08c1.03-.7,2.6-.4,3.79-.23l.32.36c2.45.27,4.95.99,7.32,1.66,7.25,2.05,14.24,5.32,19.04,11.37,4.26,5.37,6.83,12.4,8.14,19.06l1.6,9.65c1.52,7.33,5.11,13.36,10.91,18.09.64.64,1.05,1.03,1.25,1.93-1.16,2.24-5.76,2.63-7.87,3.81l-.13.59c.17,1.44.33,2.89.66,4.3.33,1.42,1.27,3.11,1.12,4.54l-.54.47c-1.14,1.3-1.46,1.98-1.46,3.7.77.51,1.47,1.02,2.15,1.64-.29.43-1.29,1.63-1.36,2.07-.32,2.01.63,5.48,1.02,7.5l.09.44c.24,1.18-.15,2.18-.82,3.16-1.75,2.53-5.4,3.59-8.3,4.04-3.6.57-8.05.88-11.61.1l-.96-.1c-.7,2-.57,4.93-.68,7.07l-.42,18.11.94.87c.86.56,1.53,1.89,2.01,2.78,3.08,1.26,5.92,1.28,8.63,3.47,3.39,2.77,6.84,5.47,9.71,8.8.01-.6.04-1.21-.02-1.81-.44-4.24.22-8.77.78-12.97.71-5.23,1.65-10.18,3.61-15.11.68-1.7,1.52-3.76,3.01-4.89,6.51-5.55,13.44-9.56,15.23-18.68,1.69-8.63-2.25-16.66-1.77-25.27l.03-.47c-.72-2-.65-4.49-.81-6.61-.79-10.7.34-20.69,4.85-30.51,2.96-6.45,7.85-11.12,14.51-13.58,4.87-1.31,9.08-.4,13.72,1.2l9.27-5.23.35-.17c2.01-.98,3.73-1.27,5.95-1.18.59.09,1.33.11,1.89.3,1.79-.02,4.71-.42,6.12.97.57.57.72,1.16.86,1.93.81,1.05,2.22,3.06,3.31,3.72,1.6.77,2.94,2.14,4.34,3.24,1.81,1.42,4.5,2.94,6.7,3.66l8.95-11.49c2.12-2.88,4.16-5.95,6.76-8.42-1.73-.35-3.68-.16-5.45-.16-4.45,0-9.13.17-13.48-.77-2.02-.44-4.23-1.23-5.74-2.71-2.61-2.57-1.49-5.81-.6-8.86.04-.15.36-1.06.34-1.14-.05-.24-.33-.34-.5-.52-1.14-1.22-1.31-1.73-1.29-3.44l.64-.35.1-.64-.52-.63-.41-.5c-.29-1.62-.46-3.93,0-5.51l1-.24h.03s.35-.66.35-.66l-.28-.45c-1.04-.16-2.11-.11-3.16-.11l-.81.09c-.67-.42-.76-.42-1.02-1.15.12-.29.28-.58.45-.87h-81.73l4.36,6.73-2.03,1.47Zm40.85-2.53l.88.2c.86.09,1.2-.3,1.86-.75.46-.16.21-.11.76-.11.13.37.28,1.06.5,1.35.43.6,1.09.75,1.44,1.5-.63.27-1.45.52-1.92,1.04l-.77.83-.21-.49c-.69-.32-1.16-.3-1.89-.25-.42.03-.19.08-.62-.25l.58-1.38c-.12-.45-.26-.73-.55-1.09l-.31-.38.25-.24Z"/>
      <path class="cls-9" d="m382.13,3.15l-1,.24c-.46,1.58-.28,3.89,0,5.51l.41.5.68.08-.09-6.32Z"/>
      <path class="cls-12" d="m339.73,7.37l-.58,1.38c.43.33.2.28.62.25.73-.05,1.2-.07,1.89.25l.21.49.77-.83c.47-.52,1.28-.77,1.92-1.04-.35-.75-1.01-.9-1.44-1.5-.21-.3-.36-.99-.5-1.35-.55,0-.3-.05-.76.11-.66.45-1.01.84-1.86.75l-.88-.2-.25.24.31.38c.29.36.43.63.55,1.09Z"/>
      <path class="cls-4" d="m378.25,2.02l.81-.09c.32-.65.7-1.29,1.09-1.93h-2.48c-.17.29-.33.58-.45.87.27.73.35.73,1.02,1.15Z"/>
      <path class="cls-4" d="m267.36,9.46c-2.6,1.3-5.24,2.74-7.95,3.8l1.06.5c2.13,2.89,2.65,5.29,2.91,8.77,13.21.19,23.96-8.26,34.89-14.34l2.03-1.47-4.36-6.73h-15.12c-2.86,4.6-8.87,7.16-13.46,9.46Z"/>
      <path class="cls-4" d="m249.57,106.84c-4.88.18-9.53-.96-13.26-4.24-3.49-3.07-4.8-6.92-5.05-11.46l-.38-.05c-1.25-.18-2.14-.72-2.86-1.77-2.22-3.19-1.09-9.95-.42-13.5.71-7.3,3.27-15.46,7.12-21.71,5.44-8.84,13.57-16.14,20.99-23.3-1.28-1.11-7.71-.62-9.53-.48-9.64.72-19.12,5.6-25.34,12.94-7.43,8.77-10.71,21.35-9.72,32.7.36,4.17.94,8.53,2.32,12.5,3.41,9.83,10.93,16.93,17.51,24.64,3.22,3.77,6.27,7.97,8.9,12.17,1.87,2.99,4.14,6.67,5.13,10.06l-.1-25.93c1.68-.68,3.2-1.55,4.69-2.58Z"/>
      <path class="cls-4" d="m444.54,11.92c.56,2.57,1.14,5.29,2.07,7.75,3.53,7.64,8.76,13.43,14.83,19.12l.46-.21c.87-.35,1.46-.73,2.07-1.46,1.08-1.26,2.41-3.03,2.23-4.75-.3-2.8-2.13-6.21-3.14-8.9-1.26-3.37-2.43-6.93-3.3-10.43-1.07-4.27-1.84-8.64-2.53-13.04h-14.14c0,.17-.01.34-.01.51-.03,3.82.65,7.69,1.46,11.41Z"/>
      <path class="cls-5" d="m444.54,11.92c.56,2.57,1.14,5.29,2.07,7.75,3.53,7.64,8.76,13.43,14.83,19.12l.46-.21c.87-.35,1.46-.73,2.07-1.46,1.08-1.26,2.41-3.03,2.23-4.75-.3-2.8-2.13-6.21-3.14-8.9-1.26-3.37-2.43-6.93-3.3-10.43-1.07-4.27-1.84-8.64-2.53-13.04h-14.14c0,.17-.01.34-.01.51-.03,3.82.65,7.69,1.46,11.41Z"/>
      <path class="cls-10" d="m444.54,11.92c.56,2.57,1.14,5.29,2.07,7.75,3.53,7.64,8.76,13.43,14.83,19.12l.46-.21c.87-.35,1.46-.73,2.07-1.46,1.08-1.26,2.41-3.03,2.23-4.75-.3-2.8-2.13-6.21-3.14-8.9-1.26-3.37-2.43-6.93-3.3-10.43-1.07-4.27-1.84-8.64-2.53-13.04h-14.14c0,.17-.01.34-.01.51-.03,3.82.65,7.69,1.46,11.41Z"/>
      <path class="cls-4" d="m311.24,164.44c4.46-3.95,9.11-7.87,13.16-12.26,4.09-4.44,7.42-9.84,9.64-15.45.94-2.38,1.83-5.14,1.71-7.72,1.62.2,4.2,2.63,5.72,3.54l13.45,7.41c2.27,1.24,5.08,3.21,7.52,3.93l.08-19.7c-.46-.9-17.84-7.14-20.05-8.15-2.39-1.09-4.48-2.32-6.63-3.83-3.72-3.12-6.46-6.62-7.67-11.37.25-1.18.55-2.2,1.21-3.22,1.43-2.19,3.72-3.45,6.26-3.92,4.61-.85,10.12,1.82,13.84,4.35l.29.2c-.08-3.01.45-5.93,1.4-8.79,1.07-3.19,2.7-6.3,4.7-9.01,3.9-5.27,9.14-9.15,13.64-13.84,2.14-2.23,3.76-4.99,5.94-7.14.77-.76,1.64-1.22,2.6-1.69,1.83,3.24,3.49,7.2,5.84,10.08l.28-.16c.05-3.75-.78-11.51,2.36-14.29,1.82-1.61,3.84-2.76,5.52-4.57l.3-.33c-2.19-.73-4.88-2.24-6.7-3.66-1.4-1.1-2.74-2.47-4.34-3.24,0,1.42.27,3.11-.85,4.19-1.2,1.16-3.1,1.48-4.7,1.4-3.15-.14-4.95-1.67-6.95-3.9-1.5-1.69-4.12-3.86-4.19-6.2l.66-.41,1.77.69c.94.38,2.08.62,3.09.54l.25-.5c.14-.84.38-1.62.63-2.43-.56-.2-1.3-.22-1.89-.3-2.22-.09-3.94.2-5.95,1.18l-.35.17-9.27,5.23c2.55,1.91,4.92,2.81,7.94,3.76-15.55,6.81-30.84,17.19-37.31,33.58-1.6,4.05-2.34,7.88-2.9,12.16l-.03.47c-.48,8.61,3.45,16.64,1.77,25.27-1.78,9.12-8.71,13.13-15.23,18.68-1.49,1.14-2.33,3.2-3.01,4.89-1.97,4.92-2.91,9.88-3.61,15.11-.57,4.2-1.23,8.72-.78,12.97.06.6.04,1.21.02,1.81.04.05.08.09.11.14h4.67c1.91-2.02,4.06-3.91,6.07-5.69Z"/>
      <path class="cls-4" d="m377.98,37.91c-.71,1.38-1.13,2.05-2.65,2.5-1.58.47-2.58.2-4-.55-.69-.81-.84-1.38-.96-2.42l-.25.5c-1.02.08-2.15-.16-3.09-.54l-1.77-.69-.66.41c.07,2.33,2.69,4.51,4.19,6.2,2,2.23,3.8,3.76,6.95,3.9,1.6.07,3.5-.25,4.7-1.4,1.11-1.07.85-2.76.85-4.19-1.09-.66-2.51-2.66-3.31-3.72Z"/>
      <path class="cls-16" d="m377.98,37.91c-.71,1.38-1.13,2.05-2.65,2.5-1.58.47-2.58.2-4-.55-.69-.81-.84-1.38-.96-2.42l-.25.5c-1.02.08-2.15-.16-3.09-.54l-1.77-.69-.66.41c.07,2.33,2.69,4.51,4.19,6.2,2,2.23,3.8,3.76,6.95,3.9,1.6.07,3.5-.25,4.7-1.4,1.11-1.07.85-2.76.85-4.19-1.09-.66-2.51-2.66-3.31-3.72Z"/>
      <path class="cls-12" d="m375.33,40.4c1.52-.45,1.94-1.11,2.65-2.5-.14-.77-.28-1.36-.86-1.93-1.41-1.39-4.33-1-6.12-.97-.25.81-.49,1.59-.63,2.43.12,1.05.27,1.61.96,2.42,1.42.74,2.41,1.01,4,.55Z"/>
      <path class="cls-12" d="m339.82,40.08c-6.66,2.46-11.55,7.13-14.51,13.58-4.51,9.82-5.64,19.81-4.85,30.51.16,2.12.09,4.61.81,6.61.57-4.29,1.3-8.12,2.9-12.16,6.47-16.39,21.76-26.77,37.31-33.58-3.02-.95-5.38-1.85-7.94-3.76-4.65-1.6-8.86-2.51-13.72-1.2Z"/>
      <path class="cls-12" d="m364.61,145.91c-.81-.63-1.49-1.28-2.18-2.03-2.44-.71-5.25-2.68-7.52-3.93l-13.45-7.41c-1.52-.9-4.1-3.34-5.72-3.54.12,2.58-.77,5.34-1.71,7.72-2.22,5.61-5.55,11.01-9.64,15.45-4.05,4.39-8.69,8.31-13.16,12.26-2.01,1.78-4.16,3.67-6.07,5.69h3.33c.61-.7,1.29-1.38,2.06-2.04,4.56-3.89,10.36-5.91,16.37-5.44,7.12.55,13.99,2.68,20.31,5.98.86.45,1.85.92,2.71,1.5h1.48c1.57-6.02,3.65-11.8,7.16-17.01,1.77-2.62,3.86-4.9,6.01-7.21Z"/>
      <path class="cls-11" d="m264.83,35.18c1.39.79,3.03,1.32,4.35,2.16l-.21.24c-2.17,2.48-3.49,4.86-3.27,8.26.13,1.92.75,3.8,1.22,5.66,1.32,5.18,1.29,9.38.06,14.55-.47,2-1.19,4.04-2.05,5.91-1.96,4.53-4.94,8.3-7.26,12.61-.54,3.48-.14,6.49-.24,9.93-.04,1.63-.34,3.26-.46,4.89.76.93,1.81,1.83,3.07,1.97.49.05.36.04.84-.08,1.32-3.04,4.89-6.31,7.98-7.48,2.3-.87,4.28-.73,6.53.3,4.26,1.95,6.93,6.88,8.38,11.1,1.52,4.43,2.72,9.6,2.74,14.3,0,1.75-.08,3.34-.91,4.92-.75,1.43-1.95,2.58-3.35,3.37l-1.1,1.19c3.56.78,8.01.47,11.61-.1,2.9-.46,6.55-1.51,8.3-4.04.67-.98,1.06-1.97.82-3.16l-.09-.44c-.4-2.02-1.35-5.49-1.02-7.5.07-.43,1.07-1.63,1.36-2.07-.68-.62-1.38-1.14-2.15-1.64-2.38-.2-5.78-.22-7.9-1.33l9.36-2.36.54-.47c.15-1.43-.79-3.12-1.12-4.54-.33-1.42-.49-2.86-.66-4.3-1.79,1.36-3.71,1.07-5.84,1.01-.39-.49-.26-.22-.4-.82-.2-.72-.15-1.61.03-2.34.18-.71,1.1-1.2,1.69-1.57,1.84-1.13,3.89-2.1,6.08-2.27,1.63-.13,3.75.42,5.2-.34-5.8-4.73-9.39-10.76-10.91-18.09l-1.6-9.65c-1.32-6.66-3.89-13.69-8.14-19.06-4.79-6.05-11.78-9.32-19.04-11.37-2.37-.67-4.87-1.38-7.32-1.66.51,1.85,3.25,3.39,4.87,4.32Zm16.85,33.33c1.1-.16,2.36-.13,3.47.01,2.11.27,5.16,1.46,6.42,3.19,1.04,1.44,1.5,3.91,1.17,5.66-.13.68-.2.74-.73,1.12-.8-.57-1.17-1.92-1.58-2.82-.49-1-1.21-2.81-2.24-3.29l-.73-.35c-3.91-1.95-7.39-1.93-11.45-.57,1.79-1.28,3.66-2.11,5.68-2.95Zm.65,8.11l.56-.1.32.35c-.28.62-.54,1.21-.7,1.88.52,1.51,1.74,2.27,3.08,3.02l.3.16c-2.14.75-4.05,1.32-6.33,1.38-1.65-.51-3.22-1.27-4.77-2.02,2.34-1.81,4.67-3.85,7.56-4.67Z"/>
      <path class="cls-12" d="m299.99,110.03c0-1.71.33-2.39,1.46-3.7l-9.36,2.36c2.12,1.11,5.52,1.13,7.9,1.33Z"/>
      <path class="cls-4" d="m285.87,81.92l-.3-.16c-1.33-.75-2.56-1.51-3.08-3.02.17-.67.42-1.25.7-1.88l-.32-.35-.56.1c-2.9.81-5.22,2.86-7.56,4.67,1.55.75,3.12,1.51,4.77,2.02,2.28-.06,4.19-.63,6.33-1.38Z"/>
      <path class="cls-1" d="m287.45,72.03l.73.35c1.03.48,1.75,2.29,2.24,3.29.41.9.79,2.25,1.58,2.82.53-.38.61-.44.73-1.12.33-1.75-.12-4.22-1.17-5.66-1.26-1.73-4.31-2.92-6.42-3.19-1.11-.14-2.37-.17-3.47-.01-2.02.84-3.89,1.67-5.68,2.95,4.06-1.36,7.54-1.37,11.45.57Z"/>
      <path class="cls-8" d="m301.76,91.03c-2.18.17-4.23,1.14-6.08,2.27-.59.36-1.5.86-1.69,1.57-.19.73-.23,1.62-.03,2.34l.15-1.26.59-.11.94.67c1.08.48,3.54.2,4.69-.09,2.11-1.18,6.71-1.58,7.87-3.81-.2-.9-.61-1.29-1.25-1.93-1.45.76-3.57.21-5.2.34Z"/>
      <path class="cls-12" d="m295.66,96.52l-.94-.67-.59.11-.15,1.26c.14.61,0,.33.4.82,2.13.06,4.05.35,5.84-1.01l.13-.59c-1.15.29-3.62.57-4.69.09Z"/>
      <path class="cls-1" d="m256.17,86.99l.16-.43c.33-.95.54-1.37,1.36-1.99,2.32-4.31,5.29-8.08,7.26-12.61-.5-.55-.46-.61-1.19-.68-1.66,1.21-2.85,3.12-4.31,4.58-3.79,3.82-9.94,8.4-15.32,9.39l-1.3.25c1.75,1.19,3.33,2.46,4.73,4.07,2.19,2.52,4.02,5.31,6.26,7.83.57.64,1.26,1.6,1.98,2.04-.02-.46-.04-.9-.16-1.35-.92-3.55-.69-7.63.54-11.09Z"/>
      <path class="cls-14" d="m257.68,84.57c-.81.63-1.02,1.04-1.36,1.99l-.16.43c-1.23,3.45-1.46,7.54-.54,11.09.12.45.14.88.16,1.35.63.2.61.23,1.2-.04.12-1.63.41-3.26.46-4.89.09-3.44-.3-6.45.24-9.93Z"/>
      <path class="cls-11" d="m259.71,33.07c.25.94.08,2.35.05,3.34-.16,6.26-2.06,12.18-5.48,17.42-5.43,8.31-14.18,13.14-22.21,18.5-1.58,1.05-2.9,2.44-4.46,3.49-.67,3.56-1.8,10.31.42,13.5.72,1.04,1.61,1.59,2.86,1.77l.38.05c.17-1.12.4-2.26.83-3.31.61-1.49,1.83-2.81,3.36-3.38,2.54-.96,5.02.03,7.36,1.05l1.3-.25c5.38-.99,11.53-5.57,15.32-9.39,1.45-1.47,2.65-3.37,4.31-4.58.73.07.69.13,1.19.68.86-1.87,1.57-3.91,2.05-5.91,1.23-5.18,1.26-9.38-.06-14.55-.47-1.85-1.09-3.74-1.22-5.66-.23-3.39,1.1-5.77,3.27-8.26l.21-.24c-1.32-.84-2.96-1.37-4.35-2.16-1.63-.93-4.36-2.47-4.87-4.32l-.32-.36-.03.37c-.07.83-.1,1.38.11,2.2Z"/>
      <path class="cls-6" d="m259.71,33.07c.25.94.08,2.35.05,3.34-.16,6.26-2.06,12.18-5.48,17.42-5.43,8.31-14.18,13.14-22.21,18.5-1.58,1.05-2.9,2.44-4.46,3.49-.67,3.56-1.8,10.31.42,13.5.72,1.04,1.61,1.59,2.86,1.77l.38.05c.17-1.12.4-2.26.83-3.31.61-1.49,1.83-2.81,3.36-3.38,2.54-.96,5.02.03,7.36,1.05l1.3-.25c5.38-.99,11.53-5.57,15.32-9.39,1.45-1.47,2.65-3.37,4.31-4.58.73.07.69.13,1.19.68.86-1.87,1.57-3.91,2.05-5.91,1.23-5.18,1.26-9.38-.06-14.55-.47-1.85-1.09-3.74-1.22-5.66-.23-3.39,1.1-5.77,3.27-8.26l.21-.24c-1.32-.84-2.96-1.37-4.35-2.16-1.63-.93-4.36-2.47-4.87-4.32l-.32-.36-.03.37c-.07.83-.1,1.38.11,2.2Z"/>
      <path class="cls-1" d="m234.73,54.11c-3.85,6.25-6.41,14.4-7.12,21.71,1.56-1.05,2.88-2.43,4.46-3.49,8.02-5.36,16.78-10.19,22.21-18.5,3.42-5.24,5.33-11.16,5.48-17.42.02-.99.19-2.4-.05-3.34-.22-.82-.19-1.37-.11-2.2l.03-.37c-1.19-.16-2.76-.47-3.79.23l-.13.08c-7.42,7.16-15.55,14.46-20.99,23.3Z"/>
      <path class="cls-12" d="m277.2,153.04c-2.4-1.94-4.56-4.26-6.74-6.43-8.64-8.57-11.96-14.95-13.3-27.01,4.29,4.11,11.05,7.73,16.96,8.65l6.08.63.96.1,1.1-1.19c1.4-.79,2.6-1.94,3.35-3.37.83-1.58.92-3.18.91-4.92-.02-4.71-1.22-9.87-2.74-14.3-1.45-4.22-4.12-9.15-8.38-11.1-2.24-1.02-4.22-1.17-6.53-.3-3.1,1.17-6.66,4.44-7.98,7.48-.48.12-.35.13-.84.08-1.25-.14-2.31-1.04-3.07-1.97-.59.27-.57.24-1.2.04-.72-.43-1.41-1.4-1.98-2.04-2.24-2.51-4.07-5.3-6.26-7.83-1.39-1.6-2.97-2.88-4.73-4.07-2.34-1.02-4.82-2.01-7.36-1.05-1.53.58-2.74,1.9-3.36,3.38-.43,1.05-.67,2.19-.83,3.31.25,4.54,1.55,8.39,5.05,11.46,3.73,3.28,8.38,4.42,13.26,4.24-1.49,1.03-3.01,1.9-4.69,2.58l.1,25.93c-.03,1.79.14,4.25-.42,5.96,5.66,3.38,11.53,6.62,17.68,9.02,3.52,1.37,7.23,2.42,10.87,3.41,2.11.58,4.57,1.47,6.76,1.19h.16s-.94-.87-.94-.87c-.79-.02-1.3-.54-1.9-1.02Zm-28.46-53.85c-2.92.05-6.03-1.31-8.09-3.33l.19-.5c1.14.28,2.47,1.22,3.63,1.67l4.77,1.58.08.5c-.24.05-.31.07-.58.08Z"/>
      <path class="cls-4" d="m244.47,97.04c-1.16-.45-2.49-1.39-3.63-1.67l-.19.5c2.06,2.02,5.17,3.38,8.09,3.33.27,0,.34-.03.58-.08l-.08-.5-4.77-1.58Z"/>
      <path class="cls-2" d="m257.16,119.61c1.34,12.06,4.66,18.43,13.3,27.01,2.18,2.17,4.35,4.5,6.74,6.43.6.48,1.12,1.01,1.9,1.02l.42-18.11c.11-2.14-.02-5.07.68-7.07l-6.08-.63c-5.91-.92-12.67-4.54-16.96-8.65Z"/>
      <path class="cls-12" d="m438.26,7.1c-5.6,6.04-12.19,11.32-19.23,15.6-3.57,2.16-7.31,3.95-10.99,5.92-2.6,2.47-4.64,5.54-6.76,8.42l-8.95,11.49-.3.33c-1.68,1.81-3.71,2.95-5.52,4.57-3.14,2.78-2.3,10.54-2.36,14.29l-.28.16c-2.34-2.87-4.01-6.83-5.84-10.08-.96.48-1.83.93-2.6,1.69-2.17,2.14-3.8,4.91-5.94,7.14-4.5,4.69-9.75,8.56-13.64,13.84-2,2.71-3.63,5.81-4.7,9.01-.96,2.85-1.48,5.78-1.4,8.79l-.29-.2c-3.71-2.53-9.22-5.2-13.84-4.35-2.54.47-4.83,1.73-6.26,3.92-.67,1.02-.96,2.04-1.21,3.22,1.21,4.75,3.96,8.25,7.67,11.37,2.15,1.51,4.24,2.74,6.63,3.83,2.21,1.01,19.59,7.25,20.05,8.15,3.52,1.1,7.13,1.88,10.72,2.7,2.74.62,5.49,1.33,8.28,1.65,1.55.18,3.44.6,4.72-.41,1.39-2.92,1.37-6.55,2.11-9.69.31-1.32,1.1-2.6,1.15-3.96.03-1.12.27-2.28.59-3.36.15-.52.26-.81.23-1.37l-.31-5.55c1.69-.46,2.92-.94,4.34-2.01-1.91-5.8-5.73-10.87-7.59-16.7-1.76-5.53-1.27-11.61-2.48-17.26.5-.1.97-.2,1.38-.53,1.6-1.29,2.99-3.18,4.46-4.66,2.08-2.08,4.37-3.93,6.63-5.81,6.94-5.77,15.24-12.31,16.13-21.89l16.06,22.62c1.02-3.14,2.9-6.16,4.68-8.93,3.87-6.02,8.7-11.75,11.02-18.59,1.19-3.51,1.62-7.09,1.97-10.76-.93-2.46-1.52-5.19-2.07-7.75-.81-3.72-1.49-7.59-1.46-11.41,0-.17,0-.34.01-.51h-23.92c2.04,1.13,4.17,2.09,6.28,2.93l12.82,4.17Zm-64.64,78.71l-.26-.44.76-.87.18-1.63c.24-.85,1.16-1.02,1.87-1.32,1.41-.06,2.68.21,4.06.28.39.02.54.03.91.17l-.47.74c-.34.68,0,1.47.2,2.15l.1.36-.25.44-1.42.08c-1.88.07-3.82.24-5.69.05Zm14.87,14.96c1.46-.08,2.8-.1,4.25.1.48.52.66.56.69,1.25-.75.52-2.1.34-2.99.34l-.1.02c-.75.42-1.05.56-1.95.54-.91-.02-1.48-.12-2.1-.77.44-.83,1.39-1.11,2.21-1.47Zm-.68,9.97l.35-.12.71-.14.3.26c-.3.76-.99,1.13-1.37,1.81-.45.81.41.69.72,1.32-.44.06-.31.1-.66-.03-1.09-.42-2.11-.66-3.25-.89l-3.94-.71c2.21-.95,4.82-.72,7.15-1.49Z"/>
      <path class="cls-2" d="m384.61,112.94c1.14.23,2.16.47,3.25.89.36.14.22.09.66.03-.31-.63-1.17-.51-.72-1.32.37-.67,1.06-1.05,1.37-1.81l-.3-.26-.71.14-.35.12c-2.33.77-4.94.54-7.15,1.49l3.94.71Z"/>
      <path class="cls-2" d="m390.34,102.47l.1-.02c.89,0,2.25.19,2.99-.34-.03-.7-.21-.73-.69-1.25-1.45-.19-2.79-.18-4.25-.1-.82.36-1.77.65-2.21,1.47.61.66,1.18.76,2.1.77.9.02,1.21-.12,1.95-.54Z"/>
      <path class="cls-4" d="m380.98,85.24l-.1-.36c-.19-.68-.54-1.47-.2-2.15l.47-.74c-.37-.14-.52-.15-.91-.17-1.39-.07-2.65-.34-4.06-.28-.71.3-1.63.48-1.87,1.32l-.18,1.63-.76.87.26.44c1.87.2,3.81.03,5.69-.05l1.42-.08.25-.44Z"/>
      <path class="cls-1" d="m382.22,2.04l.28.45-.35.65h-.03s.09,6.32.09,6.32l-.68-.08.52.63-.1.64-.64.35c-.02,1.71.15,2.22,1.29,3.44.16.18.45.28.5.52.02.08-.3.99-.34,1.14-.89,3.05-2.02,6.3.6,8.86,1.5,1.48,3.71,2.27,5.74,2.71,4.36.94,9.04.77,13.48.77,1.77,0,3.73-.19,5.45.16,3.68-1.97,7.42-3.76,10.99-5.92,7.04-4.27,13.63-9.56,19.23-15.6l-12.82-4.17c-2.11-.83-4.25-1.79-6.28-2.93h-39.02c-.4.64-.77,1.28-1.09,1.93,1.05,0,2.12-.05,3.16.11Z"/>
      <path class="cls-4" d="m243.29,168.75c-.67-1.35,1.11-20.83,1.21-24.85-7.87,4.63-15.47,10.65-22.49,16.48-1.35,1.12-3.46,2.27-4.22,3.89,1.17,1.93,2.34,3.91,3.55,5.86h64.17c-.19-.09-.38-.17-.57-.26-13.16-5.63-28.26-6.42-41.64-1.11Z"/>
      <path class="cls-4" d="m186.47,141.51l-.97-.23c.31,6.15,1.48,12.03,2.44,18.09.2,1.26.18,3.14.61,4.27.22.58,1.35,1.66,1.78,2.12,1.31,1.43,2.61,2.85,3.82,4.36h4.89l-5.01-12.1c-2.55-5.48-5.35-10.88-7.56-16.52Z"/>
      <path class="cls-11" d="m211.64,154.17l-10.24-15.24c-5.65-8.11-11.21-16.15-19.99-21.16,1.44,3.66,9.17,17.25,7.89,20.21-.57,1.32-2,2.34-2.83,3.52,2.21,5.63,5.01,11.03,7.56,16.52l5.01,12.1h22.3c-1.21-1.95-2.37-3.92-3.55-5.86l-6.15-10.09Z"/>
      <path class="cls-11" d="m290.69,161.18c-.46,2.76-1.69,5.23-3.23,7.53-1.41-3.85-3.77-7.24-5.4-10.99-.48-.9-1.15-2.23-2.01-2.78h-.16c-2.2.29-4.66-.61-6.76-1.19-3.64-1-7.35-2.04-10.87-3.41-6.15-2.4-12.02-5.64-17.68-9.02l-.06,2.59c-.11,4.02-1.88,23.5-1.21,24.85,13.38-5.3,28.49-4.52,41.64,1.11.19.08.38.17.57.26h15s-.08-.09-.11-.14c-2.87-3.33-6.32-6.03-9.71-8.8Z"/>
      <path class="cls-11" d="m326.94,162.64c-6.01-.46-11.81,1.55-16.37,5.44-.77.66-1.45,1.34-2.06,2.04h41.45c-.86-.59-1.85-1.05-2.71-1.5-6.32-3.3-13.19-5.44-20.31-5.98Z"/>
      <path class="cls-2" d="m287.46,168.71c1.54-2.3,2.77-4.77,3.23-7.53-2.71-2.19-5.55-2.21-8.63-3.47,1.63,3.75,3.99,7.14,5.4,10.99Z"/>
    </g>
  </g>
</svg>