<?xml version="1.0" encoding="UTF-8"?>
<svg id="Calque_2" data-name="Calque 2" xmlns="http://www.w3.org/2000/svg" xmlns:xlink="http://www.w3.org/1999/xlink" viewBox="0 0 514 173">
  <defs>
    <style>
      .cls-1 {
        fill: #15616d;
      }

      .cls-1, .cls-2, .cls-3, .cls-4, .cls-5, .cls-6, .cls-7, .cls-8, .cls-9, .cls-10, .cls-11, .cls-12, .cls-13 {
        stroke-width: 0px;
      }

      .cls-2 {
        fill: #b34603;
      }

      .cls-3 {
        fill: #cd5604;
      }

      .cls-4 {
        fill: url(#Dégradé_sans_nom_3);
      }

      .cls-5 {
        fill: #001524;
      }

      .cls-6 {
        fill: #043950;
      }

      .cls-7 {
        fill: url(#Dégradé_sans_nom_4);
      }

      .cls-8 {
        fill: #ffc235;
      }

      .cls-9 {
        fill: none;
      }

      .cls-10 {
        fill: url(#Dégradé_sans_nom_2);
      }

      .cls-11 {
        fill: #ffecd1;
      }

      .cls-12 {
        fill: #ff7d00;
      }

      .cls-13 {
        fill: #8b3202;
      }
    </style>
    <linearGradient id="Dégradé_sans_nom_2" data-name="Dégradé sans nom 2" x1="897.47" y1="-578.25" x2="922.55" y2="-624.97" gradientTransform="translate(-234.01 -318.88) scale(.67 -.67)" gradientUnits="userSpaceOnUse">
      <stop offset="0" stop-color="#923905"/>
      <stop offset="1" stop-color="#b94d06"/>
    </linearGradient>
    <linearGradient id="Dégradé_sans_nom_3" data-name="Dégradé sans nom 3" x1="701.66" y1="-578.43" x2="448.33" y2="-536.12" gradientTransform="translate(-234.01 -318.88) scale(.67 -.67)" gradientUnits="userSpaceOnUse">
      <stop offset="0" stop-color="#ffe7ab"/>
      <stop offset="1" stop-color="#fff"/>
    </linearGradient>
    <linearGradient id="Dégradé_sans_nom_4" data-name="Dégradé sans nom 4" x1="792.08" y1="-73.35" x2="801.97" y2="-480.28" gradientTransform="translate(-234.01 -318.88) scale(.67 -.67)" gradientUnits="userSpaceOnUse">
      <stop offset="0" stop-color="#052c41"/>
      <stop offset="1" stop-color="#04475f"/>
    </linearGradient>
  </defs>
  <g id="Calque_1_-_copie_2" data-name="Calque 1 - copie 2">
    <g>
      <polygon class="cls-9" points="512.98 0 512.98 171.67 438.84 171.67 428.52 171.67 .98 171.67 .98 0 0 0 0 173 514 173 514 0 512.98 0"/>
      <path class="cls-5" d="m428.52,171.67h84.46V0h-24.55c-.43,1.33-.97,2.69-1.75,3.43-2.55,6.43-5.08,12.93-8.13,19.14-9.71,19.74-23.26,37.47-38.23,53.47-5.1,5.46-10.33,11.11-15.88,16.1,2.67,1.15,5.44,2.29,7.92,3.79,3.99,2.41,7.35,5.6,10.67,8.83,1.65,1.61,3.45,3.2,4.82,5.05l2.91,6.86,4.47.15c.66-3.38,1.55-6.3,3.21-9.32l1.18-1.34c2.77-2.83,6.04-3.28,9.78-3.29,6.89-.27,14.03-1.14,20.91-.67-2.62,1.85-6.37,3.27-9.51,3.89,1.66.42,7.03.29,7.84,1.5-2.19,1.3-4.81,1.79-7.31,2.04-3.49.84-7.07,1.69-9.68,4.35-1.43,1.46-2.36,3.34-3.58,4.97-1.22,1.62-2.86,2.89-4.6,3.92-1.7,1.01-3.44.88-5.3.51-.2-.04-1.19-.31-1.32-.28-.16.05-.29.19-.39.32l-.18.41c-.26.57-.47.74-.93,1.15-1.15.04-1.84-.1-2.7-.91-.27-.25-.47-.44-.77-.67-1.08,1.7-2.27,3.57-4.38,4.04-.56.12-1.23.16-1.73-.16-.92-.57-1.85-1.83-2.37-2.75-1.8.78-3.46,1.18-5.4,1.35-.45-.28-1.98-.39-2.62-.59.62-.19,1.23-.35,1.79-.69l-.05-.52c-.74-.5-1.64-.38-2.5-.43-1.55-.09-3.15-.15-4.68-.42-1.38-.24-2.71-.71-4.03-1.16,3.05-.47,6.15-.72,9.15-1.45,2.16-.53,4.22-1.38,6.29-2.19l-9.11-.05c-2.37-.02-4.75.17-7.12.06-3.57-.16-7.17-.96-10.49-2.24l-.87,41.75c-2.06-2.33-3.16-5.17-4.36-8.01l-3.52-8.13-5.82-12.48c-3.48-7-7.58-13.45-11.9-19.94-2.47-2.51-4.43-5.61-6.88-8.2-7.58-8.04-16.6-14.27-26.15-19.74-.54,1.37-1.55,2.33-2.58,3.35-3,2.98-6.57,5-10.39,6.76-1.36.52-2.4,1.48-3,2.8-.75,1.65-1.39,4.05-1.47,5.84-4.14-.21-8.22,1.61-12.05,3.01-14.2,5.16-28.38,12.11-41.07,20.31-3.46,2.23-6.85,4.9-9.89,7.68-1.2,1.09-2.37,2.36-3.33,3.67l-.55.13c.42,5.54.73,10.95.57,16.5l-.38,9.27c-.01.58-.19,1.78.01,2.31-.05.7-.02,1.17-.4,1.77-4.76-2.45-9.74-4.94-14.12-8.03-4.71-3.33-8.81-7.48-12.88-11.55l-11.29-11.81-9.07-10.79c-2.45,1.13-5.4.98-8.05,1.01l3.99-35.78.05-.25c-.79.81-1.54,1.47-2.46,2.12l-.27.19c.43.86.37,1.52.31,2.45-.23,3.57-1.05,7.22-1.53,10.76l-2.48,20.85-10.06.56c-9.74,1.19-20.89,5.17-28.7,11.18-6.95,6.49-13.49,13.08-18.59,21.17-.13.2-.18.52-.4.6-.47.18-1.9.07-2.45.06l-1.73-.14c-3.46-5.14-5.2-11.5-5.79-17.61-.06-.64.1-1.68-.53-1.91l-5.3,18.29-.14.48c-.48.33-1.35.15-1.94.13l-5.75-.09-22.19.51,14.11-14.45c7.42-7.17,15.21-13.74,23.27-20.17,6.95-5.54,13.82-11.22,21.83-15.21,2.84-1.41,5.92-2.81,9.04-3.43l.36-.38v-4.13c-.06-.88.04-1.18-.67-1.78l-13.65,9.47-26.81,20.97-22.36,19.34-7.31,7.02c-.7.67-2.04,2.23-2.94,2.54-.39.13-1.22.06-1.64.08l-4.25.03c.2-2.63.08-6.66,1.3-9.01-1.02-2.23,3.06-24.68,3.88-28.43l1.58-8.29-.29-.87c-.25-1.39-.53-4.77-.15-6.08.18-.64.65-1.28,1.02-1.83-.26.05-.65-.16-.9-.24-2.56,7.69-6.87,14.8-10.04,22.28-2.25,5.31-4.34,10.8-6.02,16.31l-4.42,16.49c-1.53-4.45-2.92-8.82-5.8-12.63-1.39-1.83-2.98-3.45-4.65-5.02l-3.55-3.12c-.2-.17-.98-.75-1.07-.96-.38-.87,3.06-9.3,3.74-10.68l2.63-4.61c-2.67-1.53-5.12-3.5-7.69-5.19-4.19-2.76-8.64-5.13-13.22-7.2-4.89-2.21-10.25-3.16-15.21-5.26-1.54-.65-3.11-1.33-4.5-2.26-1.4-.93-2.89-2.59-4.48-3.11-.82-.27-2.04-.17-2.91-.26l-5.7-.57c1.91-1.01,3.78-1.97,5.46-3.36-3.22-.02-6.66.8-9.87,1.19-1.32.16-3.1.55-4.34-.02-.56-.26-.75-.31-.98-.89,1.98-.16,3.67-.96,5.42-1.84,4.06-2.04,8.02-4.85,12.48-5.92,2.8-.67,5.74-.53,8.57-.03,3.57.63,7.45,1.88,10.47,3.92,4.94,3.34,7.85,8.24,11.86,12.47,5.3,5.57,11.47,10.49,15.88,16.85,2.91-2.92,6.28-5.28,9.64-7.64,5.07-3.56,10.59-7.52,16.63-9.14l.09-.32c-.49-.1-.62-.26-.99-.57l.25-.25c-.61-1.33-2.64-2.45-3.75-3.43l-4.82-4.5-12.48-12.27c-8.67-8.48-16.65-17.73-24.04-27.33-5.8-7.53-11.42-15-16.33-23.17-1.87-3.11-3.4-6.36-5.07-9.58-3.47-6.71-6.54-13.66-9.18-20.77H.98v171.67h427.54Zm59.12-101.03l-.29.4c-.27-.03-.46-.16-.66-.34-1.26-1.1-2.31-1.75-3.79-2.53,2.61-.92,3.08-1.72,4.39-4.08.53.69.82,1.61,1.38,2.27.53.63,1.93,1.09,2.7,1.44l.09.5c-1.11.98-2.94,1.25-3.81,2.35ZM28.31,137c1.48-1.29,3.41-1.73,5.29-2.08.6-1.86-.87-3.69-1.22-5.45-.14-.71-.18-1.06.22-1.67.92.47,1.43,1.3,2.07,2.09,1.27,1.58,2.75,3.61,4.48,4.69l.27.16c2.82,1.71,5.16,1.46,8.27,1.08-.37,1.34-2.79,3.5-4.02,4.22-.78.46-1.52.73-2.43.78l-.48-.26c-.7-.6-1.38-1.15-2.17-1.65l-.5.2-.17,2.22c-.93.06-2.66-.03-3.45.36-.25-.38-.51-.73-.67-1.16-.19-.5-.22-.69-.59-1.1-.53.25-.91.35-1.5.25-1.25-.21-2.88-1.06-3.6-2.13l.18-.54Z"/>
      <path class="cls-12" d="m491.36,67.8c-.76-.35-2.16-.8-2.7-1.44-.56-.66-.85-1.58-1.38-2.27-1.31,2.37-1.78,3.17-4.39,4.08,1.49.78,2.54,1.43,3.79,2.53.21.18.39.32.66.34l.29-.4c.87-1.1,2.7-1.37,3.81-2.35l-.09-.5Z"/>
      <path class="cls-1" d="m31.73,139.68c.59.1.97,0,1.5-.25.37.41.41.6.59,1.1.16.43.41.78.67,1.16.79-.38,2.52-.29,3.45-.36l.17-2.22.5-.2c.78.5,1.46,1.04,2.17,1.65l.48.26c.91-.06,1.64-.33,2.43-.78,1.22-.72,3.65-2.87,4.02-4.22-3.11.38-5.45.63-8.27-1.08l-.27-.16c-1.73-1.08-3.22-3.11-4.48-4.69-.63-.79-1.15-1.61-2.07-2.09-.39.61-.36.96-.22,1.67.35,1.77,1.82,3.59,1.22,5.45-1.89.35-3.82.79-5.29,2.08l-.18.54c.72,1.07,2.34,1.92,3.6,2.13Z"/>
      <path class="cls-11" d="m477.63,108.84c1.2.21,2.59.28,3.7.78,2.5-.25,5.12-.74,7.31-2.04-.82-1.21-6.18-1.08-7.84-1.5,3.14-.62,6.89-2.04,9.51-3.89-6.88-.47-14.02.41-20.91.67l-.53,4.63,8.77,1.35Z"/>
      <path class="cls-12" d="m443.39,124.54c.52.93,1.46,2.18,2.37,2.75.51.31,1.18.28,1.73.16,2.11-.46,3.3-2.34,4.38-4.04.31.22.5.41.77.67.86.81,1.55.95,2.7.91.46-.4.67-.58.93-1.15l.18-.41c.1-.13.23-.28.39-.32.13-.04,1.12.24,1.32.28,1.87.37,3.6.5,5.3-.51,1.74-1.03,3.38-2.3,4.6-3.92,1.22-1.63,2.14-3.5,3.58-4.97,2.61-2.66,6.19-3.51,9.68-4.35-1.11-.5-2.5-.57-3.7-.78l-8.77-1.35.53-4.63c-3.74.02-7.01.47-9.78,3.29l-1.18,1.34c-1.66,3.03-2.55,5.94-3.21,9.32l-4.47-.15c-.38,1.22-1.26,1.96-2.13,2.85l-5.23,5.02Z"/>
      <path class="cls-12" d="m60.86,102.11c-4.02-4.23-6.93-9.13-11.86-12.47-3.02-2.04-6.9-3.3-10.47-3.92-2.82-.5-5.76-.64-8.57.03-4.46,1.06-8.42,3.88-12.48,5.92-1.76.88-3.44,1.68-5.42,1.84.22.59.42.63.98.89,1.23.58,3.02.18,4.34.02,3.21-.39,6.65-1.21,9.87-1.19-1.68,1.39-3.55,2.35-5.46,3.36l5.7.57c.88.09,2.1,0,2.91.26,1.59.52,3.08,2.18,4.48,3.11,1.4.93,2.96,1.61,4.5,2.26,4.95,2.09,10.32,3.05,15.21,5.26,4.57,2.07,9.02,4.44,13.22,7.2,2.57,1.69,5.02,3.66,7.69,5.19l1.25-1.48c-4.4-6.36-10.58-11.28-15.88-16.85Z"/>
      <path class="cls-11" d="m103.01,102.18c-6.04,1.62-11.56,5.58-16.63,9.14-3.36,2.36-6.73,4.72-9.64,7.64l-1.25,1.48-2.63,4.61c-.68,1.38-4.11,9.81-3.74,10.68.09.21.87.79,1.07.96l3.55,3.12c1.67,1.57,3.27,3.19,4.65,5.02,2.88,3.81,4.27,8.18,5.8,12.63l4.42-16.49c1.68-5.51,3.77-11,6.02-16.31,3.17-7.48,7.48-14.59,10.04-22.28-.55-.27-1.05-.2-1.65-.21Z"/>
      <path class="cls-1" d="m173.73,94.65c-1.56-1.38-8.21-7.88-9.75-8.01l-24.05,16.37c-1.83,1.64-3.55,3.09-5.97,3.73-4.14,6.06-8.37,12.51-13.65,17.65-4.44,3.83-8.2,8.19-11.96,12.67-3.01,3.58-6.11,7.27-8.82,11.08-1.22,2.35-1.11,6.38-1.3,9.01l4.25-.03c.43-.02,1.25.05,1.64-.08.9-.31,2.25-1.87,2.94-2.54l7.31-7.02,22.36-19.34,26.81-20.97,13.65-9.47-.08-.36-3.37-2.69Z"/>
      <path class="cls-5" d="m136.99,102.57l-3.03,4.17c2.42-.64,4.14-2.09,5.97-3.73l24.05-16.37.17-.39c-.24-1.34-.6-2.6-1.25-3.8-6.91,7.07-15.8,11.8-22.99,18.49-1.09.93-1.47,1.41-2.93,1.62Z"/>
      <path class="cls-13" d="m120.31,124.39c-1.02-3.78-2.53-8.08-5.09-11.1-.98-1.15-2.45-2.52-4.06-2.57-4.51-.14-4.89,6.43-7.44,8.72l-.32.27c-.82,3.75-4.89,26.21-3.88,28.43,2.71-3.81,5.82-7.49,8.82-11.08,3.76-4.48,7.52-8.84,11.96-12.67Z"/>
      <path class="cls-1" d="m185.13,107.32c-2.31-1.49-4.86-3.06-7.63-3.32-3.13.61-6.2,2.01-9.04,3.43-8.01,3.99-14.87,9.67-21.83,15.21-8.06,6.43-15.85,13-23.27,20.17l-14.11,14.45,22.19-.51,5.75.09c.59.02,1.46.2,1.94-.13l.14-.48,5.3-18.29c.63.23.47,1.27.53,1.91.59,6.11,2.33,12.47,5.79,17.61l1.73.14c.55.01,1.98.12,2.45-.06.23-.09.27-.4.4-.6,5.1-8.09,11.64-14.68,18.59-21.17,7.81-6.02,18.96-9.99,28.7-11.18-.39-1.28-1.35-2.38-2.19-3.4-4.5-5.46-9.49-10.01-15.43-13.85Z"/>
      <path class="cls-1" d="m488.43,0h-6.19c1.69,1.04,3.26,2.17,4.44,3.43.78-.74,1.32-2.1,1.75-3.43Z"/>
      <path class="cls-11" d="m443.68,5.24l-.17.38-1.87,5.75c-.42,1.16-1.61,3.39-1.48,4.63.12,1.22,1.48,3.23,2.08,4.37l.56,1.1c2.17,3.56,4.53,6.44,7.5,9.35.61.59,1.15,1.03,1.43,1.86-.26,1.03-.8,1.56-1.72,2.1-2.17,1.29-5.87,1.68-7.52,3.62l-.17,2.54c-.67.57-1.77,1.26-2.04,2.11.21.43.36.75.67,1.12.65.65.97.87,1.22,1.76-.33,1.45-.99,2.2-2.22,3l-.72.38c-.24,4.84,2.12,9.22-2.15,13.09-2.44,2.22-5.92,2.34-9.03,2.1l-13.97-2c-1.99,1.5-3.54,3.4-5.1,5.33-1.74,2.16-3.6,4.45-4.98,6.85-1.05,1.82-1.78,3.77-2.62,5.68l.06.31c-1,1.41-1.5,2.61-1.23,4.37.35,2.37,1.7,4.68,2.67,6.85l2.32,5.75.29-.03c1.48.08,2.29,1.04,3.26,2.12l6.52,7.45c1.96,2.05,4.18,3.87,6.34,5.7l-8.25,1.02,1.24,2.3c3.33,1.28,6.92,2.08,10.49,2.24,2.37.11,4.75-.09,7.12-.06l9.11.05c-2.06.81-4.13,1.66-6.29,2.19-3,.73-6.1.98-9.15,1.45,1.32.45,2.65.92,4.03,1.16,1.53.27,3.13.33,4.68.42.86.05,1.76-.06,2.5.43l.05.52c-.56.34-1.17.5-1.79.69.64.2,2.17.31,2.62.59,1.95-.17,3.6-.57,5.4-1.35l5.23-5.02c.87-.89,1.75-1.63,2.13-2.85l-2.91-6.86c-1.37-1.86-3.17-3.44-4.82-5.05-3.32-3.23-6.68-6.43-10.67-8.83-2.49-1.5-5.26-2.64-7.92-3.79,5.56-5,10.78-10.65,15.88-16.1,14.96-16,28.51-33.73,38.23-53.47,3.05-6.21,5.58-12.71,8.13-19.14-1.18-1.26-2.75-2.39-4.44-3.43h-38.13c.21,1.79.02,3.48-.42,5.24Z"/>
      <path class="cls-5" d="m405.48,99.17c.17.83,1.25,2.27,1.67,3.08l3.49,7.07c.78,1.57,1.53,3.28,2.74,4.57l8.25-1.02c-2.16-1.84-4.38-3.65-6.34-5.7l-6.52-7.45c-.98-1.08-1.78-2.04-3.26-2.12,0,.46-.11,1.13-.02,1.56Z"/>
      <path class="cls-12" d="m410.63,109.33l-3.49-7.07c-.42-.81-1.5-2.25-1.67-3.08-.09-.44.01-1.1.02-1.56l-.29.03-2.32-5.75c-.97-2.17-2.31-4.47-2.67-6.85-.26-1.77.23-2.96,1.23-4.37l-.06-.31c-.31-.93-.19-2.02-.19-3l-.19-4.81c-.32-4.64-.58-9.32-1.49-13.89-.59-2.95-1.54-5.77-2.51-8.62,1.17,1.3,1.98,3.08,3.09,4.48,3.78,4.77,8.38,6.33,13.99,7.98l13.97,2c3.11.24,6.58.11,9.03-2.1,4.27-3.87,1.91-8.25,2.15-13.09l.72-.38-.46-.75c-.84-1.44-2.39-2.55-3.57-3.74,1.12-.63,3.7-.37,5.02-.27-.3-.37-.46-.69-.67-1.12.27-.85,1.37-1.55,2.04-2.11l.17-2.54c1.65-1.94,5.35-2.33,7.52-3.62.92-.55,1.46-1.08,1.72-2.1-.28-.83-.82-1.27-1.43-1.86-2.97-2.91-5.33-5.79-7.5-9.35l-.56-1.1c-.6-1.14-1.96-3.15-2.08-4.37-.12-1.24,1.06-3.46,1.48-4.63l1.87-5.75-.93.35c-.45,1.13-1.3,2.54-.9,3.71l.17.37c-.88.05-2-1.29-2.88-1.73-1.11-.55-2.15-.88-3.36-1.12l-.45-.09-3.25-.32-1.41.72c-2.6,1.32-3.91,3.33-5.44,5.71-.17-1.9-.67-7.88-2.31-9.17-.62-.49-1.11-.4-1.85-.23-4.38.98-10.09,7.32-12.19,11.11-.62,1.11-1.22,2.28-1.59,3.5-.94-2.79-2.12-5.63-4.9-7.05-1.33-.68-3.14-1.04-4.6-.6-1.94.59-3.5,2.37-4.31,4.15-1.65,3.61-1.38,7.32.05,10.95.49,1.25,1.1,2.5,1.84,3.62.54.82,2.56,2.52,2.59,3.27-1.78,3.01-3.66,5.98-5.98,8.62-5.4,6.13-12.72,10.26-20.58,12.29l-10.29,2.54c.26,4.15-.1,7.99-.94,12.04,4.26.87,8.09,2.56,12.03,4.33,7.77,3.49,15.73,7.65,20.48,15.05l.48.78c.64,1.05,1.65,2.41,1.91,3.6.84,1.4,1.41,2.95,2.01,4.46,1.72-.96,3.35-1.7,5.24-2.28.34,2.27.53,4.57.14,6.85-.77,4.55-2.35,9.07-3.62,13.51-.54-1.56-.92-3.14-1.23-4.76-.19-.96-.23-1.93-.65-2.82-.46-.99-.17-2.73-.17-3.83,0-.45-.19-.58-.26-.98-.15-.84-.02-1.96-.02-2.83,0-.76.18-1.8-.23-2.42.14-.51.04-.31.25-.63-.39-1.31-.9-2.46-1.49-3.69l-.21-.3c-.58-.88-.47-1.28-1.42-2-.88.44-1.5,1.01-2.38,1.42l-2.26,1.29c-1.98,1.05-3.91,2.43-5.75,3.71-.97.68-2.15,1.33-2.98,2.16,1.55,1.56,3.38,3.32,4.65,5.09,1.09,1.52,3.56,3.47,3.64,5.4,4.32,6.49,8.41,12.94,11.9,19.94l5.82,12.48,3.52,8.13c1.19,2.84,2.3,5.68,4.36,8.01l.87-41.75-1.24-2.3c-1.21-1.29-1.96-3-2.74-4.57Z"/>
      <path class="cls-2" d="m435.94,44.43c1.18,1.19,2.72,2.3,3.57,3.74l.46.75c1.23-.8,1.89-1.54,2.22-3-.26-.89-.58-1.11-1.22-1.76-1.31-.1-3.89-.36-5.02.27Z"/>
      <path class="cls-2" d="m435.61,7.2c1.21.23,2.26.56,3.36,1.12.88.44,2,1.78,2.88,1.73l-.17-.37c-.4-1.17.45-2.58.9-3.71l.93-.35.17-.38-1.02-1.11c-.83-.89-2-1.97-3.28-2.07-1.74-.14-3.54,1.54-4.72,2.66l-1.03,1.17.17.65-1.91.25,3.25.32.45.09Z"/>
      <path class="cls-3" d="m396.35,96.29c-.21.32-.1.12-.25.63.41.62.24,1.66.23,2.42,0,.87-.13,1.99.02,2.83.07.4.26.53.26.98,0,1.1-.29,2.83.17,3.83.41.89.46,1.86.65,2.82.32,1.62.7,3.2,1.23,4.76,1.27-4.44,2.85-8.97,3.62-13.51.39-2.28.2-4.57-.14-6.85-1.89.57-3.52,1.31-5.24,2.28-.6-1.51-1.17-3.06-2.01-4.46l-.03.58c.59,1.23,1.1,2.38,1.49,3.69Z"/>
      <path class="cls-5" d="m400.11,54.51c-1.11-1.4-1.92-3.18-3.09-4.48.97,2.85,1.92,5.66,2.51,8.62.92,4.57,1.17,9.25,1.49,13.89l.19,4.81c0,.98-.11,2.06.19,3,.84-1.91,1.58-3.86,2.62-5.68,1.38-2.4,3.24-4.7,4.98-6.85,1.56-1.93,3.11-3.83,5.1-5.33-5.61-1.65-10.22-3.21-13.99-7.98Z"/>
      <path class="cls-12" d="m379.86,98.89c.83-.84,2.01-1.49,2.98-2.16,1.84-1.28,3.77-2.67,5.75-3.71l2.26-1.29c.88-.41,1.5-.98,2.38-1.42.95.72.83,1.12,1.42,2l.21.3.03-.58c-.26-1.19-1.27-2.54-1.91-3.6l-.48-.78c-4.75-7.39-12.71-11.56-20.48-15.05-3.95-1.77-7.77-3.46-12.03-4.33-.9,4.34-2.39,9.3-5.04,12.88l.17.29c9.55,5.47,18.57,11.7,26.15,19.74,2.45,2.6,4.41,5.69,6.88,8.2-.07-1.93-2.55-3.88-3.64-5.4-1.27-1.78-3.1-3.53-4.65-5.09Z"/>
      <path class="cls-10" d="m379.86,98.89c.83-.84,2.01-1.49,2.98-2.16,1.84-1.28,3.77-2.67,5.75-3.71l2.26-1.29c.88-.41,1.5-.98,2.38-1.42.95.72.83,1.12,1.42,2l.21.3.03-.58c-.26-1.19-1.27-2.54-1.91-3.6l-.48-.78c-4.75-7.39-12.71-11.56-20.48-15.05-3.95-1.77-7.77-3.46-12.03-4.33-.9,4.34-2.39,9.3-5.04,12.88l.17.29c9.55,5.47,18.57,11.7,26.15,19.74,2.45,2.6,4.41,5.69,6.88,8.2-.07-1.93-2.55-3.88-3.64-5.4-1.27-1.78-3.1-3.53-4.65-5.09Z"/>
      <path class="cls-5" d="m355.65,43.54c.77,1.64,1.65,3.18,2.62,4.71.72,1.13,1.63,2.34,2.04,3.62.42,1.3.48,3,.62,4.35l10.29-2.54c7.86-2.03,15.17-6.17,20.58-12.29,2.32-2.63,4.2-5.6,5.98-8.62-.03-.75-2.05-2.45-2.59-3.27-.74-1.12-1.35-2.37-1.84-3.62-1.43-3.63-1.71-7.34-.05-10.95.81-1.78,2.38-3.56,4.31-4.15,1.46-.44,3.27-.08,4.6.6,2.78,1.42,3.96,4.26,4.9,7.05.37-1.21.97-2.39,1.59-3.5,2.1-3.79,7.81-10.13,12.19-11.11.74-.17,1.23-.25,1.85.23,1.65,1.29,2.14,7.27,2.31,9.17,1.53-2.37,2.84-4.39,5.44-5.71l1.41-.72,1.91-.25-.17-.65,1.03-1.17c1.18-1.12,2.98-2.8,4.72-2.66,1.28.1,2.45,1.18,3.28,2.07l1.02,1.11c.44-1.76.63-3.45.42-5.24h-91.19c-.27.94-.52,1.89-.76,2.85-2.54,13.41-2.38,28.14,3.51,40.7Z"/>
      <path class="cls-1" d="m40.94,30.35c4.91,8.16,10.53,15.64,16.33,23.17,7.4,9.6,15.37,18.85,24.04,27.33l12.48,12.27,4.82,4.5c1.11.98,3.14,2.1,3.75,3.43l-.25.25c.37.31.5.47.99.57l-.09.32c.6,0,1.1-.06,1.65.21.25.08.65.29.9.24l6.48-7.45c1.13-1.31,2.44-3.19,4.03-3.89.5-.22.73-.38,1.09-.82l-.34-1.27c-1.64-5.79-4.97-11.22-9.14-15.54-1.71-1.78-3.71-3.53-6.2-4.05-1.23-.26-2.67-.14-3.93-.18-2.97-.08-5.81-.64-8.39-2.17-2.86-1.69-4.08-4.76-4.87-7.84.21-1,.77-2.26,1.39-3.07.25-.32.4-.51.51-.92l-.47-.2c-.76-.22-1.27-.24-1.81-.92-.39-.49-.27-.93-.17-1.5.06-.37.15-.56.09-.93-.15-.95-.91-3.27-1.47-4.02-.6-.8-2.14-1.43-3.02-1.89-1.01-.53-1.96-1.16-2.91-1.78,2.19-3.11,4.22-6.18,5.39-9.83-4.59-5.06-12.5-7.33-18.76-9.65-1.7.69-2.61.71-4.41.26l-.26-.07-2,2.88-2.44-2.81-5.92-.46c1.19-1.06,2.26-2.28,3.87-2.62l.27-.05c-.22-.42-1.36-.85-1.82-1.11-1.06-.59-1.94-1.19-2.62-2.22-2.23-2.28-4.26-3.9-6.89-5.67,3.37.64,16.14,3.95,17.91,6.75.22.34.24.69.27,1.08,1.15-.81,2.75-1.13,4.08-1.55,4.16-1.31,8.17-2.3,12.45-3.15-1.04-5.19-.78-9.87,1.07-14.86.14-.37.29-.73.44-1.09H26.69c2.64,7.11,5.72,14.06,9.18,20.77,1.66,3.22,3.19,6.47,5.07,9.58Z"/>
      <path class="cls-5" d="m58.07,22.38l.97-1.72c-.03-.39-.05-.74-.27-1.08-1.76-2.8-14.54-6.11-17.91-6.75,2.63,1.77,4.66,3.39,6.89,5.67l.47.19c3.17,1.29,6.4,3.19,9.84,3.69Z"/>
      <path class="cls-12" d="m111.17,110.72c1.61.05,3.08,1.42,4.06,2.57,2.56,3.02,4.06,7.33,5.09,11.1,5.28-5.14,9.51-11.59,13.65-17.65l3.03-4.17c1.68-2.51,4.1-4.83,6.32-6.86,4.01-3.68,8.33-7.04,12.68-10.3,2.36-1.77,4.8-3.42,6.93-5.47l-.03-.17s-.2-.5-.21-.51c-.62-.71-3.3-1.35-4.23-1.71-1.53-.58-2.95-1.3-4.38-2.08-6.37-2.4-12.77-7.27-18.12-11.47-3.34-2.62-9.14-6.97-9.67-11.45.11-.17.16-.39.32-.5.74-.53,3.58-.51,4.62-.71,1.01-.19,1.96-.58,2.87-1.03l.44-.22c2.96-2.34,5.3-5.19,6.74-8.69,1.22-2.96,1.88-6.69.5-9.7-.72-1.57-2.22-2.67-3.82-3.24-1.88-.67-3.85-.48-5.61.46-3.65,1.93-5.3,5.58-6.44,9.31-1.68-9.28-5.41-18.96-9.48-27.46l-4.36.64c-5.69.48-10.07.08-14.56-3.73l-.37.11c.18,4.71,5.77,7.69,8.76,10.84-2.62-1.47-5.15-2.88-8.07-3.68-2.63-.72-5.79-.93-8.2.5-3.13,1.86-4.5,5.41-5.42,8.72-1.33-1.31-2.92-2.37-4.32-3.61-1.58-1.4-2.95-2.99-4.29-4.6-4.28.85-8.29,1.84-12.45,3.15-1.33.42-2.93.74-4.08,1.55l-.97,1.72c-3.44-.5-6.68-2.4-9.84-3.69l-.47-.19c.68,1.03,1.56,1.62,2.62,2.22.46.26,1.6.69,1.82,1.11l-.27.05c-1.61.35-2.68,1.56-3.87,2.62l5.92.46,2.44,2.81,2-2.88.26.07c1.79.45,2.7.43,4.41-.26,6.27,2.32,14.17,4.59,18.76,9.65-1.17,3.65-3.2,6.72-5.39,9.83.95.62,1.9,1.26,2.91,1.78.88.46,2.42,1.09,3.02,1.89.56.75,1.32,3.07,1.47,4.02.06.37-.03.57-.09.93-.1.57-.21,1.01.17,1.5.53.68,1.05.7,1.81.92l.47.2c-.11.41-.26.6-.51.92-.63.81-1.18,2.07-1.39,3.07.79,3.08,2.01,6.15,4.87,7.84,2.58,1.53,5.42,2.09,8.39,2.17,1.26.03,2.7-.08,3.93.18,2.49.52,4.49,2.27,6.2,4.05,4.16,4.32,7.5,9.75,9.14,15.54l.34,1.27,1.58,10.58c-5.07,1.04-9.33,3.2-12.26,7.64l-1.51,2.72-1.58,8.29.32-.27c2.55-2.29,2.93-8.86,7.44-8.72Zm18.66-73.57c.63-2.05,1.59-4.08,3.57-5.11.37-.1.29-.09.64-.13,1.31-.15,2.6.08,3.62.98,1.33,1.19,1.25,2.85,1.38,4.5-.6-1.19-1.14-2.81-2.3-3.47-.69.72-.6,2.3-.89,3.3-.22.77-.69,1.47-1.1,2.15-1.73,1.76-3.45,2.46-5.77,3.12.07-1.76.34-3.64.86-5.33Zm-27.7-9.67c-2.29.56-3.76,1.03-5.66,2.46l-.35.26c-.85.62-1.91,1.27-3.01.98-1.07-.28-2.5-1.49-2.91-2.52-.29-.71-.05-1.23.29-1.87.74-1.42,2.15-3.06,3.73-3.5l.24-.04c2.93-.29,5.61,2.35,7.69,4.07l-.02.16Z"/>
      <path class="cls-13" d="m135.84,37.21c.29-1,.2-2.57.89-3.3,1.16.67,1.7,2.28,2.3,3.47-.13-1.65-.04-3.32-1.38-4.5-1.01-.9-2.31-1.12-3.62-.98-.35.04-.27.03-.64.13-1.97,1.02-2.93,3.06-3.57,5.11-.52,1.69-.79,3.56-.86,5.33,2.33-.65,4.04-1.35,5.77-3.12.41-.68.88-1.38,1.1-2.15Z"/>
      <path class="cls-5" d="m94.46,23.25l-.24.04c-1.58.44-2.99,2.08-3.73,3.5-.34.64-.57,1.16-.29,1.87.41,1.03,1.84,2.24,2.91,2.52,1.1.28,2.16-.36,3.01-.98l.35-.26c1.9-1.43,3.37-1.9,5.66-2.46l.02-.16c-2.08-1.72-4.76-4.36-7.69-4.07Z"/>
      <path class="cls-13" d="m118.75,101.05l-1.58-10.58c-.36.44-.59.6-1.09.82-1.58.71-2.9,2.59-4.03,3.89l-6.48,7.45c-.36.55-.84,1.19-1.02,1.83-.37,1.31-.09,4.69.15,6.08l.29.87,1.51-2.72c2.93-4.45,7.18-6.6,12.26-7.64Z"/>
      <path class="cls-1" d="m152.39,69.03c.68,2.07,1.6,4.24,1.66,6.43,1.43.78,2.85,1.5,4.38,2.08.93.35,3.61,1,4.23,1.71.01.01.21.51.21.51l.03.17c-2.12,2.06-4.57,3.7-6.93,5.47-4.35,3.26-8.67,6.62-12.68,10.3-2.22,2.04-4.64,4.36-6.32,6.86,1.46-.21,1.84-.69,2.93-1.62,7.19-6.69,16.08-11.41,22.99-18.49,0-.3.82-1.4,1.01-1.71.37-.33.83-1.23,1.04-1.7,1.27-2.86.17-8.81-.84-11.67-1.47-4.17-5.68-9.55-9.66-11.49-.37-.18-.59-.3-.86-.62l-.24-.3c-1.83.59-3.51,1.43-5.06,2.58.42,1.74,1.32,3.29,1.96,4.95.82,2.14,1.43,4.37,2.14,6.55Z"/>
      <path class="cls-13" d="m131.21,51.34c-1.04.19-3.88.18-4.62.71-.16.11-.21.33-.32.5.53,4.48,6.33,8.83,9.67,11.45,5.35,4.2,11.75,9.07,18.12,11.47-.06-2.2-.98-4.36-1.66-6.43-.71-2.18-1.32-4.41-2.14-6.55-.64-1.66-1.54-3.21-1.96-4.95l-.29-.38c-3.04-1.6-4.99-5.28-8.34-6.46-1.61-.57-3.46.08-4.89-.46l-.26-.14-.44.22c-.92.46-1.86.85-2.87,1.03Z"/>
      <path class="cls-5" d="m75.56,15.95c1.34,1.62,2.72,3.21,4.29,4.6,1.4,1.24,2.99,2.3,4.32,3.61.92-3.31,2.3-6.86,5.42-8.72,2.41-1.44,5.57-1.23,8.2-.5,2.92.81,5.44,2.22,8.07,3.68-2.99-3.15-8.58-6.13-8.76-10.84l.37-.11c4.49,3.81,8.87,4.21,14.56,3.73l4.36-.64c4.07,8.49,7.8,18.18,9.48,27.46,1.15-3.73,2.8-7.38,6.44-9.31,1.76-.93,3.73-1.13,5.61-.46,1.6.57,3.09,1.67,3.82,3.24,1.39,3.01.72,6.74-.5,9.7-1.44,3.51-3.78,6.35-6.74,8.69l.26.14c1.43.54,3.28-.11,4.89.46,3.35,1.19,5.3,4.86,8.34,6.46l.44-.53c1.58-2.16,2.85-5.03,4.11-7.41,6.84-12.91,12.6-28.41,10.51-43.26-.3-2.11-.73-4.08-1.29-5.96h-84.7c-.15.36-.31.73-.44,1.09-1.85,4.99-2.12,9.67-1.07,14.86Z"/>
      <path class="cls-1" d="m152.56,49.22c-1.26,2.38-2.53,5.24-4.11,7.41l-.44.53.29.38c1.55-1.14,3.23-1.99,5.06-2.58,5.21-1.47,13.16-2.34,18.1.34,5.2,2.82,6.08,8.9,7.84,13.99,1.87,5.43,4.96,9.88,10.44,12.1,3.67,1.48,7.31,1.62,11.15.77l.07.36c.59,2.88,2.26,5.83,4.78,7.42,2.22,1.4,5.4,1.58,7.91.97.99-.24,1.94-.55,2.87-.96l.27-.19c.92-.65,1.67-1.31,2.46-2.12l-.05.25-3.99,35.78c2.64-.03,5.6.11,8.05-1.01,1.44-2.1,1.79-6.4,2.33-8.9l4.98-23.73-1.33-.36c-4.2-1.35-7.79-4.31-10.15-8.02-.75-1.18-1.23-2.43-1.88-3.66l-.6.18c-1.33.44-2.31.36-3.68,0-3.55-.92-6.38-3.76-8.13-6.88-2.2-3.92-2.75-8.92-1.54-13.25,1.61-5.75,4.82-8.74,9.86-11.58l-9.77-31.62c-2.06-4.61-4.71-8.55-7.79-12.53-.62-.8-1.27-1.56-1.94-2.32h-31.84c.56,1.88.99,3.86,1.29,5.96,2.09,14.85-3.67,30.35-10.51,43.26Z"/>
      <path class="cls-4" d="m152.56,49.22c-1.26,2.38-2.53,5.24-4.11,7.41l-.44.53.29.38c1.55-1.14,3.23-1.99,5.06-2.58,5.21-1.47,13.16-2.34,18.1.34,5.2,2.82,6.08,8.9,7.84,13.99,1.87,5.43,4.96,9.88,10.44,12.1,3.67,1.48,7.31,1.62,11.15.77l.07.36c.59,2.88,2.26,5.83,4.78,7.42,2.22,1.4,5.4,1.58,7.91.97.99-.24,1.94-.55,2.87-.96l.27-.19c.92-.65,1.67-1.31,2.46-2.12l-.05.25-3.99,35.78c2.64-.03,5.6.11,8.05-1.01,1.44-2.1,1.79-6.4,2.33-8.9l4.98-23.73-1.33-.36c-4.2-1.35-7.79-4.31-10.15-8.02-.75-1.18-1.23-2.43-1.88-3.66l-.6.18c-1.33.44-2.31.36-3.68,0-3.55-.92-6.38-3.76-8.13-6.88-2.2-3.92-2.75-8.92-1.54-13.25,1.61-5.75,4.82-8.74,9.86-11.58l-9.77-31.62c-2.06-4.61-4.71-8.55-7.79-12.53-.62-.8-1.27-1.56-1.94-2.32h-31.84c.56,1.88.99,3.86,1.29,5.96,2.09,14.85-3.67,30.35-10.51,43.26Z"/>
      <path class="cls-6" d="m205.73,89.92c-2.52-1.59-4.19-4.54-4.78-7.42l-.07-.36c-3.84.85-7.48.71-11.15-.77-5.47-2.21-8.56-6.67-10.44-12.1-1.75-5.08-2.64-11.17-7.84-13.99-4.94-2.68-12.89-1.81-18.1-.34l.24.3c.27.32.49.44.86.62,3.98,1.94,8.19,7.33,9.66,11.49,1.01,2.86,2.11,8.81.84,11.67-.21.47-.67,1.38-1.04,1.7-.19.31-1,1.41-1.01,1.71.65,1.2,1.01,2.46,1.25,3.8l-.17.39c1.54.13,8.19,6.63,9.75,8.01l3.37,2.69.08.36c.71.6.61.9.68,1.78v4.13s-.37.38-.37.38c2.77.27,5.32,1.83,7.63,3.32,5.94,3.84,10.93,8.39,15.43,13.85.84,1.02,1.81,2.12,2.19,3.4l10.06-.56,2.48-20.85c.48-3.55,1.3-7.2,1.53-10.76.06-.93.12-1.59-.31-2.45-.93.41-1.88.72-2.87.96-2.5.61-5.68.42-7.91-.97Z"/>
      <path class="cls-5" d="m301.36,0h-1.52c.53.54,1.04,1.09,1.54,1.66.01-.55.03-1.11-.02-1.66Z"/>
      <path class="cls-7" d="m301.36,0h-1.52c.53.54,1.04,1.09,1.54,1.66.01-.55.03-1.11-.02-1.66Z"/>
      <path class="cls-5" d="m301.38,1.66c.79.99,1.65,1.95,2.32,3.03,1.23-1.65,2.71-3.21,4.26-4.7h-6.59c.05.55.03,1.11.02,1.66Z"/>
      <path class="cls-12" d="m303.69,4.7c.33,1.19,1.11,2.46,1.62,3.61,1.69-3.21,3.24-5.89,5.97-8.3h-3.34c-1.55,1.49-3.03,3.05-4.26,4.7Z"/>
      <path class="cls-12" d="m352.15,2.85c.24-.96.5-1.9.76-2.85h-5.29c.2.1.41.2.61.3,1.31.68,2.94,1.41,3.92,2.54Z"/>
      <path class="cls-5" d="m203.35,14.85l9.77,31.62c-5.04,2.84-8.25,5.83-9.86,11.58-1.21,4.32-.65,9.33,1.54,13.25,1.75,3.13,4.58,5.97,8.13,6.88,1.37.35,2.35.43,3.68,0l.6-.18c.65,1.23,1.13,2.48,1.88,3.66,2.36,3.7,5.95,6.67,10.15,8.02l1.33.36c2.28.24,4.88.34,7.15.02,5.6-.8,9.2-3.48,12.53-7.89l-3.7-2.22c-4.05-2.65-7.6-6.27-8.57-11.18-.64-3.22-.4-6.73,1.64-9.44,1.38-1.83,3.54-3.09,5.83-3.32,1.72-.17,3.51.53,4.8,1.65,3.44,2.97,2.32,6.67,2.61,10.6.07.97.16,1.57,1.02,2.13.64.43,1.52.43,2.25.29,7.26-1.45,6.2-10.99,7.72-16.65.95-3.53,2.68-7.17,4.78-10.17,5.22-7.46,13.19-13.38,21.45-17.09,2.5-1.12,5.13-2.24,7.85-2.7,2.67-.45,5.18-.11,7.42,1.47.3-1.94-.32-4.7-.99-6.54-.23-.63-.08-.97.03-1.62-5.01-7-10.4-12.38-18.45-15.82-1.33-.57-2.69-1.08-4.05-1.55h-36.41c-.39.14-.79.28-1.18.43-.04-.08-.07-.23-.09-.43h-22.96c2.34,3.87,4.79,7.72,7.76,11.07-6.83,4.68-10.29,12.07-11.79,20-.65,3.42-.88,7-.95,10.48-.02.86.32,3.6.04,4.25-.06.14-.2.23-.3.35l-.87.17c-1.34-1.89-1.95-4.2-2.71-6.36-3.01-8.54-4.52-17.79-8.01-26.11-.69-2.74-1.76-5.43-2.73-8.09l-2.38-5.76h-5.65c.66.75,1.32,1.52,1.94,2.32,3.09,3.98,5.73,7.92,7.79,12.53Z"/>
      <path class="cls-11" d="m204.39,13.85c3.49,8.32,4.99,17.57,8.01,26.11.76,2.16,1.38,4.48,2.71,6.36l.87-.17c.1-.12.24-.21.3-.35.28-.65-.05-3.39-.04-4.25.07-3.48.3-7.06.95-10.48,1.5-7.92,4.96-15.31,11.79-20-2.97-3.35-5.42-7.2-7.76-11.07h-21.95l2.38,5.76c.97,2.66,2.04,5.35,2.73,8.09Z"/>
      <path class="cls-11" d="m304.36,17.37c3.84,4.53,6.52,10.29,9.43,15.44,4.23,7.48,8.24,15.33,13.22,22.34,4.31,6.07,9.39,11.38,14.82,16.44,3.71,3.46,8.33,7.76,13.12,9.56,2.65-3.59,4.14-8.55,5.04-12.88.84-4.05,1.2-7.9.94-12.04-.14-1.36-.21-3.05-.62-4.35-.41-1.28-1.32-2.49-2.04-3.62-.97-1.53-1.85-3.07-2.62-4.71-5.89-12.56-6.05-27.29-3.51-40.7-.98-1.13-2.61-1.86-3.92-2.54-.2-.11-.41-.2-.61-.3h-36.33c-2.73,2.41-4.29,5.09-5.97,8.3-.51-1.14-1.29-2.42-1.62-3.61-.67-1.08-1.52-2.05-2.32-3.03-.49-.57-1.01-1.12-1.54-1.66h-11.15c-.08.13-.17.26-.25.39-.05-.13-.11-.26-.16-.39h-6.42c1.37.47,2.72.98,4.05,1.55,8.05,3.45,13.44,8.82,18.45,15.82Z"/>
      <path class="cls-11" d="m245.45,0h-1.28c.02.2.05.35.09.43.39-.16.79-.29,1.18-.43Z"/>
      <path class="cls-2" d="m288.69,0h-.41c.05.13.11.26.16.39.09-.13.17-.26.25-.39Z"/>
      <path class="cls-12" d="m265.19,114.81c-1.99-5.27-4.36-10.35-6.08-15.73-1.62-5.05-2.53-10.47-2.71-15.77.57,1.05.8,2.17,1.24,3.27.65,1.64,1.47,3.15,2.46,4.61,5.59,8.24,15.03,13.5,24.67,15.37,6,.95,13.41,1.93,19.41.52,1.55-.36,3.84-1.59,4.27-3.28.32-1.27-.12-3.03-.31-4.29-.26-1.64-.41-3.27-.45-4.93,0-.28-.13-1.43-.02-1.64.2-.4,1.72-1.33,2.13-1.68.92-.78,1.52-1.55,2.13-2.59-3.02-1.03-6.65.67-9.77-.36l-2.89-.98c4.27-1.12,9.07-.93,13.45-.84v-.2c.13-2.74-.87-5.31-1.25-8.01,1.61-1.14,3.43-1.76,5.07-2.83.93-.6,2.01-1.4,2.23-2.56.1-.53.07-.82-.2-1.28-.63-1.07-1.74-2.05-2.56-3-2.76-3.19-5.86-7.11-6.81-11.33-.46-2.04.2-4.8.36-6.89.59-7.98.29-17.97-4.22-24.84-2.24-1.58-4.75-1.92-7.42-1.47-2.71.45-5.35,1.58-7.85,2.7-8.26,3.71-16.23,9.63-21.45,17.09-2.1,2.99-3.83,6.63-4.78,10.17-1.52,5.66-.46,15.2-7.72,16.65-.73.15-1.61.14-2.25-.29-.85-.57-.95-1.17-1.02-2.13-.28-3.93.83-7.63-2.61-10.6-1.29-1.12-3.08-1.82-4.8-1.65-2.29.23-4.45,1.48-5.83,3.32-2.03,2.71-2.27,6.22-1.64,9.44.97,4.92,4.53,8.53,8.57,11.18l3.7,2.22c-3.33,4.41-6.94,7.09-12.53,7.89-2.27.32-4.87.22-7.15-.02l-4.98,23.73c-.54,2.5-.89,6.8-2.33,8.9l9.07,10.79,11.29,11.81c4.07,4.07,8.16,8.22,12.88,11.55,4.38,3.1,9.36,5.58,14.12,8.03.38-.61.35-1.08.4-1.77-.2-.53-.02-1.72-.01-2.31l.38-9.27c.16-5.56-.15-10.96-.57-16.5l-.48-3.58c-1.38-5.66-3.07-11.14-5.13-16.59Zm36.1-55.75c.43.58.52,1.27.43,1.99-.1.77-.53,1.33-1.16,1.75-1.37.91-3.2.66-4.69.25l-2.66-.77c-1.82-.62-3.55-.95-5.46-1.14,1.98-.77,4.09-.89,6.05-1.68l.23-.1c1.64-1.12,3.41-1.56,5.4-1.24.7.11,1.42.34,1.86.93Zm-19.08-3.02c.63-.95,1.95-1.79,2.92-2.37,3.16-1.91,6.44-3.16,10.04-3.94l5.65.03c-.48.68-2.27,1.37-3.04,1.77-3.67,1.9-7.44,3.8-11.39,5.05-1.15.29-3.6,1.05-4.6.47.09-.39.19-.67.42-1.01Zm-39.24,5.96c-1.3,2.05-1.39,4.05-1.35,6.42l-.27-.11c-.22-1.76-.37-3.87.03-5.61.45-1.98,1.79-3.02,3.45-4.01l.39-.05c1.81-.17,3.75.16,5.11,1.45.55.52.75.93.78,1.68-.89-.98-1.89-1.94-3.29-2.05-2-.16-3.47,1.05-4.85,2.29Zm8.76,11.83l-.79-.28c-.52-.36-1.07-.78-1.49-1.26-1.61-1.85-2.12-5.24-1.93-7.61.65-.68,1.13-.86,2.02-1.13.38-.03.52.02.88.14.18,1.32-.27,2.78-.36,4.11-.14,1.91.33,4.03,1.63,5.48l.16.18-.12.38Z"/>
      <path class="cls-5" d="m251.11,61.76c-.03-.75-.23-1.16-.78-1.68-1.36-1.28-3.3-1.62-5.11-1.45l-.39.05c-1.66.99-2.99,2.03-3.45,4.01-.4,1.74-.25,3.85-.03,5.61l.27.11c-.04-2.36.05-4.37,1.35-6.42,1.37-1.24,2.85-2.45,4.85-2.29,1.39.11,2.4,1.07,3.29,2.05Z"/>
      <path class="cls-5" d="m250.06,67.8c.1-1.33.55-2.79.36-4.11-.35-.12-.5-.16-.88-.14-.89.26-1.38.45-2.02,1.13-.2,2.37.31,5.76,1.93,7.61.42.48.96.9,1.49,1.26l.79.28.12-.38-.16-.18c-1.3-1.44-1.77-3.57-1.63-5.48Z"/>
      <path class="cls-2" d="m299.26,87.32l2.89.98c3.12,1.03,6.75-.67,9.77.36l.8-2.18c-4.38-.09-9.19-.28-13.45.84Z"/>
      <path class="cls-5" d="m294.03,59.37l-.23.1c-1.96.79-4.07.9-6.05,1.68,1.91.18,3.64.52,5.46,1.14l2.66.77c1.49.41,3.32.66,4.69-.25.63-.42,1.07-.98,1.16-1.75.09-.71,0-1.41-.43-1.99-.44-.59-1.16-.81-1.86-.93-1.99-.32-3.76.12-5.4,1.24Z"/>
      <path class="cls-8" d="m286.4,56.57c3.95-1.25,7.71-3.15,11.39-5.05.76-.4,2.55-1.09,3.04-1.77l-5.65-.03c-3.6.78-6.88,2.03-10.04,3.94-.97.59-2.29,1.42-2.92,2.37-.22.34-.33.61-.42,1.01,1,.58,3.46-.19,4.6-.47Z"/>
      <path class="cls-5" d="m260.1,91.18c-.99-1.46-1.8-2.98-2.46-4.61-.44-1.1-.67-2.22-1.24-3.27.18,5.3,1.09,10.72,2.71,15.77,1.72,5.38,4.09,10.46,6.08,15.73,2.06,5.45,3.75,10.93,5.13,16.59,1.24-3.1,1.92-6.42,2.93-9.6,1.05-3.31,2.46-6.44,4.15-9.48.81-1.45,1.61-3.02,2.88-4.12l.26-.22c1.43-1.22,2.37-1.39,4.23-1.42-9.64-1.87-19.08-7.13-24.67-15.37Z"/>
      <path class="cls-1" d="m341.84,71.59c-5.43-5.06-10.51-10.37-14.82-16.44-4.98-7.01-8.99-14.86-13.22-22.34-2.91-5.15-5.59-10.91-9.43-15.44-.11.65-.27.99-.03,1.62.68,1.83,1.29,4.6.99,6.54,4.51,6.87,4.81,16.86,4.22,24.84-.16,2.09-.82,4.86-.36,6.89.95,4.22,4.05,8.14,6.81,11.33.82.95,1.94,1.93,2.56,3,.27.47.3.75.2,1.28-.21,1.17-1.29,1.96-2.23,2.56-1.64,1.06-3.46,1.69-5.07,2.83.38,2.7,1.38,5.27,1.26,8.01v.2s-.8,2.18-.8,2.18c-.61,1.04-1.21,1.81-2.13,2.59-.42.35-1.94,1.29-2.13,1.68-.11.22.02,1.36.02,1.64.04,1.66.19,3.29.45,4.93.2,1.26.64,3.02.31,4.29-.43,1.68-2.71,2.91-4.27,3.28-6,1.41-13.4.43-19.41-.52-1.86.03-2.8.2-4.23,1.42l-.26.22c-1.27,1.11-2.07,2.67-2.88,4.12-1.68,3.03-3.09,6.16-4.15,9.48-1.01,3.18-1.7,6.5-2.93,9.6l.48,3.58.55-.13c.96-1.31,2.13-2.57,3.33-3.67,3.04-2.78,6.43-5.45,9.89-7.68,12.7-8.2,26.87-15.15,41.07-20.31,3.83-1.39,7.91-3.21,12.05-3.01.08-1.78.72-4.19,1.47-5.84.6-1.32,1.64-2.28,3-2.8,3.82-1.76,7.38-3.78,10.39-6.76,1.03-1.02,2.03-1.98,2.58-3.35l-.17-.29c-4.79-1.8-9.41-6.1-13.12-9.56Z"/>
    </g>
  </g>
</svg>