<svg width="2450" height="704" viewBox="0 0 2450 704" fill="none" xmlns="http://www.w3.org/2000/svg">
<path d="M1 82.6023C21.9207 45.8813 42.8503 9.16023 63.771 9.16023C84.6917 9.16023 105.621 21.4006 126.542 33.6409C147.463 45.8813 168.392 82.6023 189.313 82.6023C210.234 82.6023 231.163 1 252.084 1C273.005 1 293.934 58.1216 314.855 58.1216C335.776 58.1216 356.705 1 377.626 1C398.547 1 419.476 90.7626 440.397 90.7626C461.318 90.7626 482.247 85.3194 503.168 74.4421C524.089 63.5648 545.019 17.3205 565.939 17.3205C586.86 17.3205 607.79 74.4421 628.71 74.4421C649.631 74.4421 670.561 28.1978 691.481 17.3205C712.402 6.44314 733.332 1 754.252 1C775.173 1 796.103 82.6023 817.023 82.6023C837.944 82.6023 858.874 67.6449 879.794 58.1216C900.715 48.5984 921.645 25.4807 942.565 25.4807C963.486 25.4807 984.416 66.2819 1005.34 66.2819C1026.26 66.2819 1047.19 14.6034 1068.11 9.16023C1089.03 3.71709 1109.96 1 1130.88 1C1151.8 1 1172.73 41.8012 1193.65 58.1216C1214.57 74.4421 1235.5 98.9228 1256.42 98.9228C1277.34 98.9228 1298.27 33.6409 1319.19 33.6409C1340.11 33.6409 1361.04 82.6023 1381.96 82.6023C1402.88 82.6023 1423.81 45.8813 1444.73 33.6409C1465.65 21.4006 1486.58 9.16023 1507.5 9.16023C1528.43 9.16023 1549.35 66.2819 1570.28 66.2819C1591.2 66.2819 1612.13 25.4807 1633.05 25.4807C1653.97 25.4807 1674.9 40.4381 1695.82 49.9614C1716.74 59.4847 1737.67 82.6023 1758.59 82.6023C1779.51 82.6023 1800.44 79.8852 1821.36 74.4421C1842.28 68.999 1863.21 33.6409 1884.13 33.6409C1905.05 33.6409 1925.98 74.4421 1946.9 74.4421C1967.82 74.4421 1988.75 74.4421 2009.67 74.4421C2030.59 74.4421 2051.52 82.6023 2072.44 82.6023C2093.36 82.6023 2114.29 55.4045 2135.21 41.8012C2156.14 28.1978 2177.07 1 2197.99 1C2218.91 1 2239.84 51.3244 2260.76 66.2819C2281.68 81.2393 2302.61 90.7626 2323.53 90.7626C2344.45 90.7626 2365.38 40.4381 2386.3 25.4807C2407.22 10.5233 2428.15 5.76163 2449.07 1" stroke="#783CC8"/>
<path d="M1 147.884C21.9207 147.884 42.8503 147.884 63.771 147.884C84.6917 147.884 105.621 172.365 126.542 172.365C147.463 172.365 168.392 104.366 189.313 98.9229C210.234 93.4797 231.163 90.7626 252.084 90.7626C273.005 90.7626 293.934 172.365 314.855 172.365C335.776 172.365 356.705 166.922 377.626 156.044C398.547 145.167 419.476 104.366 440.397 98.9229C461.318 93.4797 482.247 90.7626 503.168 90.7626C524.089 90.7626 545.019 131.564 565.939 131.564C586.86 131.564 607.79 90.7626 628.71 90.7626C649.631 90.7626 670.561 115.243 691.481 131.564C712.402 147.884 733.332 188.685 754.252 188.685C775.173 188.685 796.103 107.083 817.023 107.083C837.944 107.083 858.874 115.243 879.794 115.243C900.715 115.243 921.645 115.243 942.565 115.243C963.486 115.243 984.416 164.205 1005.34 164.205C1026.26 164.205 1047.19 107.083 1068.11 107.083C1089.03 107.083 1109.96 156.044 1130.88 156.044C1151.8 156.044 1172.73 98.9229 1193.65 98.9229C1214.57 98.9229 1235.5 166.922 1256.42 172.365C1277.34 177.808 1298.27 180.525 1319.19 180.525C1340.11 180.525 1361.04 98.9229 1381.96 98.9229C1402.88 98.9229 1423.81 131.564 1444.73 131.564C1465.65 131.564 1486.58 128.847 1507.5 123.404C1528.43 117.96 1549.35 98.9229 1570.28 98.9229C1591.2 98.9229 1612.13 156.044 1633.05 156.044C1653.97 156.044 1674.9 98.9229 1695.82 98.9229C1716.74 98.9229 1737.67 147.884 1758.59 147.884C1779.51 147.884 1800.44 107.083 1821.36 107.083C1842.28 107.083 1863.21 164.205 1884.13 164.205C1905.05 164.205 1925.98 98.9229 1946.9 98.9229C1967.82 98.9229 1988.75 164.205 2009.67 164.205C2030.59 164.205 2051.52 153.327 2072.44 147.884C2093.36 142.441 2114.29 138.361 2135.21 131.564C2156.14 124.767 2177.07 107.083 2197.99 107.083C2218.91 107.083 2239.84 172.365 2260.76 172.365C2281.68 172.365 2302.61 90.7626 2323.53 90.7626C2344.45 90.7626 2365.38 147.884 2386.3 147.884C2407.22 147.884 2428.15 147.884 2449.07 147.884" stroke="#783CC8"/>
<path d="M1 172.365C21.9207 180.525 42.8503 188.685 63.771 188.685C84.6917 188.685 105.621 188.685 126.542 188.685C147.463 188.685 168.392 262.127 189.313 262.127C210.234 262.127 231.163 180.525 252.084 180.525C273.005 180.525 293.934 180.525 314.855 180.525C335.776 180.525 356.705 202.289 377.626 213.166C398.547 224.043 419.476 245.807 440.397 245.807C461.318 245.807 482.247 188.685 503.168 188.685C524.089 188.685 545.019 224.043 565.939 229.486C586.86 234.93 607.79 234.93 628.71 237.647C649.631 240.364 670.561 245.807 691.481 245.807C712.402 245.807 733.332 172.365 754.252 172.365C775.173 172.365 796.103 229.486 817.023 229.486C837.944 229.486 858.874 221.326 879.794 221.326C900.715 221.326 921.645 224.043 942.565 229.486C963.486 234.93 984.416 270.288 1005.34 270.288C1026.26 270.288 1047.19 252.604 1068.11 237.647C1089.03 222.689 1109.96 180.525 1130.88 180.525C1151.8 180.525 1172.73 191.402 1193.65 196.845C1214.57 202.289 1235.5 205.006 1256.42 213.166C1277.34 221.326 1298.27 240.364 1319.19 245.807C1340.11 251.25 1361.04 253.967 1381.96 253.967C1402.88 253.967 1423.81 230.849 1444.73 221.326C1465.65 211.803 1486.58 202.289 1507.5 196.845C1528.43 191.402 1549.35 188.685 1570.28 188.685C1591.2 188.685 1612.13 262.127 1633.05 262.127C1653.97 262.127 1674.9 205.006 1695.82 205.006C1716.74 205.006 1737.67 213.166 1758.59 213.166C1779.51 213.166 1800.44 213.166 1821.36 213.166C1842.28 213.166 1863.21 237.647 1884.13 245.807C1905.05 253.967 1925.98 262.127 1946.9 262.127C1967.82 262.127 1988.75 259.41 2009.67 253.967C2030.59 248.524 2051.52 241.727 2072.44 229.486C2093.36 217.246 2114.29 180.525 2135.21 180.525C2156.14 180.525 2177.07 213.166 2197.99 213.166C2218.91 213.166 2239.84 205.006 2260.76 205.006C2281.68 205.006 2302.61 205.006 2323.53 205.006C2344.45 205.006 2365.38 229.486 2386.3 229.486C2407.22 229.486 2428.15 205.006 2449.07 180.525" stroke="#783CC8"/>
<path d="M1 302.929C21.9207 294.768 42.8503 286.608 63.771 286.608C84.6917 286.608 105.621 351.89 126.542 351.89C147.463 351.89 168.392 313.806 189.313 302.929C210.234 292.051 231.163 286.608 252.084 286.608C273.005 286.608 293.934 293.405 314.855 302.929C335.776 312.452 356.705 343.73 377.626 343.73C398.547 343.73 419.476 335.57 440.397 335.57C461.318 335.57 482.247 341.013 503.168 343.73C524.089 346.447 545.019 351.89 565.939 351.89C586.86 351.89 607.79 319.249 628.71 319.249C649.631 319.249 670.561 351.89 691.481 351.89C712.402 351.89 733.332 262.127 754.252 262.127C775.173 262.127 796.103 343.73 817.023 343.73C837.944 343.73 858.874 335.57 879.794 335.57C900.715 335.57 921.645 343.73 942.565 343.73C963.486 343.73 984.416 262.127 1005.34 262.127C1026.26 262.127 1047.19 351.89 1068.11 351.89C1089.03 351.89 1109.96 316.532 1130.88 311.089C1151.8 305.646 1172.73 302.929 1193.65 302.929C1214.57 302.929 1235.5 327.409 1256.42 327.409C1277.34 327.409 1298.27 278.448 1319.19 278.448C1340.11 278.448 1361.04 278.448 1381.96 278.448C1402.88 278.448 1423.81 281.165 1444.73 286.608C1465.65 292.051 1486.58 308.372 1507.5 319.249C1528.43 330.126 1549.35 351.89 1570.28 351.89C1591.2 351.89 1612.13 278.448 1633.05 278.448C1653.97 278.448 1674.9 313.806 1695.82 319.249C1716.74 324.692 1737.67 327.409 1758.59 327.409C1779.51 327.409 1800.44 278.448 1821.36 278.448C1842.28 278.448 1863.21 335.57 1884.13 335.57C1905.05 335.57 1925.98 327.409 1946.9 327.409C1967.82 327.409 1988.75 343.73 2009.67 343.73C2030.59 343.73 2051.52 308.372 2072.44 302.929C2093.36 297.485 2114.29 300.212 2135.21 294.768C2156.14 289.325 2177.07 270.288 2197.99 270.288C2218.91 270.288 2239.84 274.368 2260.76 278.448C2281.68 282.528 2302.61 294.768 2323.53 294.768C2344.45 294.768 2365.38 294.768 2386.3 294.768C2407.22 294.768 2428.15 307.009 2449.07 319.249" stroke="#783CC8"/>
<path d="M1 433.492C21.9207 400.852 42.8503 368.211 63.771 368.211C84.6917 368.211 105.621 370.928 126.542 376.371C147.463 381.814 168.392 417.172 189.313 417.172C210.234 417.172 231.163 343.73 252.084 343.73C273.005 343.73 293.934 384.531 314.855 384.531C335.776 384.531 356.705 372.291 377.626 368.211C398.547 364.13 419.476 360.05 440.397 360.05C461.318 360.05 482.247 392.691 503.168 392.691C524.089 392.691 545.019 375.008 565.939 368.211C586.86 361.413 607.79 351.89 628.71 351.89C649.631 351.89 670.561 368.211 691.481 376.371C712.402 384.531 733.332 389.974 754.252 400.851C775.173 411.729 796.103 441.653 817.023 441.653C837.944 441.653 858.874 343.73 879.794 343.73C900.715 343.73 921.645 409.012 942.565 409.012C963.486 409.012 984.416 377.734 1005.34 368.211C1026.26 358.687 1047.19 351.89 1068.11 351.89C1089.03 351.89 1109.96 351.89 1130.88 351.89C1151.8 351.89 1172.73 417.172 1193.65 417.172C1214.57 417.172 1235.5 376.371 1256.42 376.371C1277.34 376.371 1298.27 417.172 1319.19 417.172C1340.11 417.172 1361.04 360.05 1381.96 360.05C1402.88 360.05 1423.81 425.332 1444.73 425.332C1465.65 425.332 1486.58 360.05 1507.5 360.05C1528.43 360.05 1549.35 362.767 1570.28 368.211C1591.2 373.654 1612.13 417.172 1633.05 417.172C1653.97 417.172 1674.9 403.569 1695.82 392.691C1716.74 381.814 1737.67 351.89 1758.59 351.89C1779.51 351.89 1800.44 365.493 1821.36 376.371C1842.28 387.248 1863.21 417.172 1884.13 417.172C1905.05 417.172 1925.98 351.89 1946.9 351.89C1967.82 351.89 1988.75 376.371 2009.67 376.371C2030.59 376.371 2051.52 376.371 2072.44 376.371C2093.36 376.371 2114.29 409.012 2135.21 409.012C2156.14 409.012 2177.07 409.012 2197.99 409.012C2218.91 409.012 2239.84 409.012 2260.76 409.012C2281.68 409.012 2302.61 433.492 2323.53 433.492C2344.45 433.492 2365.38 351.89 2386.3 351.89C2407.22 351.89 2428.15 368.211 2449.07 384.531" stroke="#783CC8"/>
<path d="M1 466.133C21.9207 474.294 42.8503 482.454 63.771 482.454C84.6917 482.454 105.621 449.813 126.542 449.813C147.463 449.813 168.392 506.934 189.313 506.934C210.234 506.934 231.163 449.813 252.084 449.813C273.005 449.813 293.934 506.934 314.855 506.934C335.776 506.934 356.705 494.694 377.626 490.614C398.547 486.534 419.476 485.171 440.397 482.454C461.318 479.737 482.247 478.374 503.168 474.294C524.089 470.213 545.019 457.973 565.939 457.973C586.86 457.973 607.79 493.331 628.71 498.774C649.631 504.217 670.561 506.934 691.481 506.934C712.402 506.934 733.332 482.454 754.252 482.454C775.173 482.454 796.103 515.095 817.023 515.095C837.944 515.095 858.874 433.492 879.794 433.492C900.715 433.492 921.645 482.454 942.565 482.454C963.486 482.454 984.416 451.176 1005.34 441.653C1026.26 432.129 1047.19 425.332 1068.11 425.332C1089.03 425.332 1109.96 515.095 1130.88 515.095C1151.8 515.095 1172.73 515.095 1193.65 515.095C1214.57 515.095 1235.5 433.492 1256.42 433.492C1277.34 433.492 1298.27 436.209 1319.19 441.653C1340.11 447.096 1361.04 498.774 1381.96 498.774C1402.88 498.774 1423.81 482.454 1444.73 474.294C1465.65 466.133 1486.58 449.813 1507.5 449.813C1528.43 449.813 1549.35 455.256 1570.28 457.973C1591.2 460.69 1612.13 463.416 1633.05 466.133C1653.97 468.85 1674.9 474.294 1695.82 474.294C1716.74 474.294 1737.67 449.813 1758.59 449.813C1779.51 449.813 1800.44 482.454 1821.36 482.454C1842.28 482.454 1863.21 449.813 1884.13 449.813C1905.05 449.813 1925.98 515.095 1946.9 515.095C1967.82 515.095 1988.75 457.973 2009.67 457.973C2030.59 457.973 2051.52 457.973 2072.44 457.973C2093.36 457.973 2114.29 457.973 2135.21 457.973C2156.14 457.973 2177.07 449.813 2197.99 449.813C2218.91 449.813 2239.84 515.095 2260.76 515.095C2281.68 515.095 2302.61 466.133 2323.53 466.133C2344.45 466.133 2365.38 515.095 2386.3 515.095C2407.22 515.095 2428.15 478.374 2449.07 441.653" stroke="#783CC8"/>
<path d="M1 515.095C21.9207 555.896 42.8503 596.697 63.771 596.697C84.6917 596.697 105.621 569.499 126.542 564.056C147.463 558.613 168.392 555.896 189.313 555.896C210.234 555.896 231.163 580.377 252.084 580.377C273.005 580.377 293.934 574.933 314.855 572.216C335.776 569.499 356.705 564.056 377.626 564.056C398.547 564.056 419.476 596.697 440.397 596.697C461.318 596.697 482.247 561.339 503.168 547.736C524.089 534.132 545.019 515.095 565.939 515.095C586.86 515.095 607.79 564.056 628.71 564.056C649.631 564.056 670.561 564.056 691.481 564.056C712.402 564.056 733.332 531.415 754.252 531.415C775.173 531.415 796.103 583.094 817.023 588.537C837.944 593.98 858.874 593.98 879.794 596.697C900.715 599.414 921.645 604.857 942.565 604.857C963.486 604.857 984.416 531.415 1005.34 531.415C1026.26 531.415 1047.19 588.537 1068.11 588.537C1089.03 588.537 1109.96 539.575 1130.88 539.575C1151.8 539.575 1172.73 547.736 1193.65 547.736C1214.57 547.736 1235.5 531.415 1256.42 531.415C1277.34 531.415 1298.27 531.415 1319.19 531.415C1340.11 531.415 1361.04 555.896 1381.96 555.896C1402.88 555.896 1423.81 555.896 1444.73 555.896C1465.65 555.896 1486.58 596.697 1507.5 596.697C1528.43 596.697 1549.35 523.255 1570.28 523.255C1591.2 523.255 1612.13 525.972 1633.05 531.415C1653.97 536.858 1674.9 564.056 1695.82 564.056C1716.74 564.056 1737.67 555.896 1758.59 555.896C1779.51 555.896 1800.44 613.018 1821.36 613.018C1842.28 613.018 1863.21 574.934 1884.13 564.056C1905.05 553.179 1925.98 547.736 1946.9 547.736C1967.82 547.736 1988.75 596.697 2009.67 596.697C2030.59 596.697 2051.52 588.537 2072.44 588.537C2093.36 588.537 2114.29 604.857 2135.21 604.857C2156.14 604.857 2177.07 579.014 2197.99 564.056C2218.91 549.099 2239.84 515.095 2260.76 515.095C2281.68 515.095 2302.61 613.018 2323.53 613.018C2344.45 613.018 2365.38 515.095 2386.3 515.095C2407.22 515.095 2428.15 559.976 2449.07 604.857" stroke="#783CC8"/>
<path d="M1 613.017C21.9207 613.017 42.8503 613.017 63.771 613.017C84.6917 613.017 105.621 623.895 126.542 629.338C147.463 634.781 168.392 637.498 189.313 645.658C210.234 653.819 231.163 678.299 252.084 678.299C273.005 678.299 293.934 613.017 314.855 613.017C335.776 613.017 356.705 625.258 377.626 637.498C398.547 649.738 419.476 686.459 440.397 686.459C461.318 686.459 482.247 596.697 503.168 596.697C524.089 596.697 545.019 702.78 565.939 702.78C586.86 702.78 607.79 621.178 628.71 621.178C649.631 621.178 670.561 702.78 691.481 702.78C712.402 702.78 733.332 637.498 754.252 637.498C775.173 637.498 796.103 678.299 817.023 678.299C837.944 678.299 858.874 660.616 879.794 653.818C900.715 647.021 921.645 637.498 942.565 637.498C963.486 637.498 984.416 645.658 1005.34 653.818C1026.26 661.979 1047.19 686.459 1068.11 686.459C1089.03 686.459 1109.96 653.818 1130.88 653.818C1151.8 653.818 1172.73 678.299 1193.65 678.299C1214.57 678.299 1235.5 596.697 1256.42 596.697C1277.34 596.697 1298.27 596.697 1319.19 596.697C1340.11 596.697 1361.04 672.856 1381.96 678.299C1402.88 683.742 1423.81 686.459 1444.73 686.459C1465.65 686.459 1486.58 613.017 1507.5 613.017C1528.43 613.017 1549.35 694.62 1570.28 694.62C1591.2 694.62 1612.13 604.857 1633.05 604.857C1653.97 604.857 1674.9 670.139 1695.82 670.139C1716.74 670.139 1737.67 653.818 1758.59 653.818C1779.51 653.818 1800.44 656.536 1821.36 661.979C1842.28 667.422 1863.21 694.62 1884.13 694.62C1905.05 694.62 1925.98 629.338 1946.9 629.338C1967.82 629.338 1988.75 661.979 2009.67 661.979C2030.59 661.979 2051.52 644.295 2072.44 637.498C2093.36 630.701 2114.29 621.178 2135.21 621.178C2156.14 621.178 2177.07 661.979 2197.99 661.979C2218.91 661.979 2239.84 653.818 2260.76 653.818C2281.68 653.818 2302.61 670.139 2323.53 670.139C2344.45 670.139 2365.38 659.262 2386.3 653.818C2407.22 648.375 2428.15 642.941 2449.07 637.498" stroke="#783CC8"/>
</svg>
