<svg width="3084" height="583" viewBox="0 0 3084 583" fill="none" xmlns="http://www.w3.org/2000/svg">
<path d="M1 533.131C103.735 525.624 206.47 518.105 309.205 471.49C411.94 424.876 514.675 339.154 617.41 286.567C720.145 233.981 822.88 214.518 925.615 286.567C1028.35 358.617 1131.08 522.169 1233.82 502.311C1336.55 482.453 1439.29 279.184 1542.02 255.747C1644.76 232.31 1747.5 388.693 1850.23 471.49C1952.97 554.288 2055.7 563.478 2158.44 471.49C2261.17 379.503 2363.9 186.327 2466.64 122.191C2569.37 58.0555 2672.11 122.948 2774.84 204.379C2877.58 285.811 2980.31 383.793 3083.05 481.764" stroke="#783CC8"/>
<path d="M1 492.037C103.735 503.947 206.47 515.858 309.205 399.575C411.94 283.293 514.675 38.8063 617.41 29.7295C720.145 20.6527 822.88 246.997 925.615 348.208C1028.35 449.419 1131.08 425.485 1233.82 471.49C1336.55 517.495 1439.29 633.416 1542.02 553.678C1644.76 473.94 1747.5 198.531 1850.23 204.379C1952.97 210.227 2055.7 497.309 2158.44 533.131C2261.17 568.953 2363.9 353.503 2466.64 307.114C2569.37 260.725 2672.11 383.386 2774.84 440.669C2877.58 497.953 2980.31 489.858 3083.05 481.763" stroke="#783CC8"/>
<path d="M1 440.67C103.735 209.256 206.47 -22.1683 309.205 50.2768C411.94 122.722 514.675 499.026 617.41 543.405C720.145 587.784 822.88 300.25 925.615 173.559C1028.35 46.8674 1131.08 81.0183 1233.82 142.738C1336.55 204.458 1439.29 293.736 1542.02 399.576C1644.76 505.415 1747.5 627.817 1850.23 563.952C1952.97 500.087 2055.7 249.967 2158.44 214.653C2261.17 179.339 2363.9 358.854 2466.64 409.849C2569.37 460.844 2672.11 383.33 2774.84 379.029C2877.58 374.728 2980.31 443.662 3083.05 512.584" stroke="#783CC8"/>
<path d="M1 368.756C103.735 258.908 206.47 149.072 309.205 101.645C411.94 54.2171 514.675 69.2209 617.41 111.918C720.145 154.615 822.88 225.006 925.615 235.2C1028.35 245.395 1131.08 195.393 1233.82 255.747C1336.55 316.101 1439.29 486.799 1542.02 533.132C1644.76 579.464 1747.5 501.442 1850.23 420.123C1952.97 338.804 2055.7 254.178 2158.44 224.927C2261.17 195.675 2363.9 221.788 2466.64 307.115C2569.37 392.441 2672.11 536.959 2774.84 563.952C2877.58 590.945 2980.31 500.392 3083.05 409.85" stroke="#783CC8"/>
<path d="M1 276.294C103.735 397.578 206.47 518.85 309.205 440.67C411.94 362.49 514.675 84.8456 617.41 81.0975C720.145 77.3494 822.88 347.509 925.615 409.849C1028.35 472.19 1131.08 326.724 1233.82 276.294C1336.55 225.864 1439.29 270.48 1542.02 296.841C1644.76 323.202 1747.5 331.285 1850.23 296.841C1952.97 262.397 2055.7 185.402 2158.44 235.2C2261.17 284.998 2363.9 461.59 2466.64 430.397C2569.37 399.203 2672.11 160.249 2774.84 91.371C2877.58 22.4934 2980.31 123.716 3083.05 224.926" stroke="#783CC8"/>
<path d="M1 214.653C103.735 278.134 206.47 341.626 309.205 409.849C411.94 478.072 514.675 551.048 617.41 492.037C720.145 433.027 822.88 242.041 925.615 245.473C1028.35 248.905 1131.08 446.766 1233.82 471.49C1336.55 496.214 1439.29 347.802 1542.02 348.208C1644.76 348.615 1747.5 497.817 1850.23 481.764C1952.97 465.71 2055.7 284.377 2158.44 307.114C2261.17 329.851 2363.9 556.636 2466.64 574.225C2569.37 591.814 2672.11 400.197 2774.84 307.114C2877.58 214.032 2980.31 219.473 3083.05 224.926" stroke="#783CC8"/>
<path d="M1 173.559C103.735 69.1416 206.47 -35.2755 309.205 50.2768C411.94 135.829 514.675 411.351 617.41 481.764C720.145 552.177 822.88 417.458 925.615 337.935C1028.35 258.411 1131.08 234.06 1233.82 296.841C1336.55 359.622 1439.29 509.536 1542.02 512.584C1644.76 515.632 1747.5 371.815 1850.23 224.926C1952.97 78.0378 2055.7 -71.9214 2158.44 40.0033C2261.17 151.928 2363.9 525.725 2466.64 543.405C2569.37 561.084 2672.11 222.635 2774.84 91.3708C2877.58 -39.8929 2980.31 36.0068 3083.05 111.918" stroke="#783CC8"/>
<path d="M1 101.644C103.735 148.033 206.47 194.41 309.205 235.2C411.94 275.989 514.675 311.167 617.41 379.029C720.145 446.89 822.88 547.424 925.615 563.952C1028.35 580.479 1131.08 513.002 1233.82 502.311C1336.55 491.619 1439.29 537.737 1542.02 502.311C1644.76 466.884 1747.5 349.924 1850.23 296.841C1952.97 243.757 2055.7 254.55 2158.44 245.473C2261.17 236.396 2363.9 207.472 2466.64 276.294C2569.37 345.115 2672.11 511.703 2774.84 543.405C2877.58 575.106 2980.31 471.93 3083.05 368.755" stroke="#783CC8"/>
</svg>
